<svg width="312" height="304" viewBox="0 0 312 304" fill="none" xmlns="http://www.w3.org/2000/svg">
<path d="M95.7957 82.7482C101 80.5971 105.788 76.8501 108.98 73.1725C115.433 65.6785 116.474 54.6457 114.322 45.0007C113.212 39.9353 111.269 34.9393 108.147 30.776C100.237 19.9514 86.4976 13.9839 73.175 13.0819C64.9177 12.5268 55.8972 14.8166 48.9583 19.2575C37.648 26.6127 32.5826 42.2945 38.4806 55.409C43.8929 67.4133 52.7053 65.1928 62.4197 70.5357C70.3994 74.9072 75.1873 83.789 85.1792 84.691C88.7181 84.9686 92.3956 84.2053 95.7957 82.7482Z" fill="#F4F4F4"/>
<path d="M38.55 55.3397C43.9623 67.3439 52.7747 65.1235 62.4891 70.4664C70.4688 74.8379 75.2566 83.7196 85.2486 84.6217C88.7181 84.8992 92.3263 84.136 95.7957 82.6788C97.8774 81.8461 99.8202 80.7359 101.694 79.4869C78.4485 78.3073 51.3869 60.405 46.6685 45.764C43.3378 35.3557 47.2236 24.878 51.1094 17.8698C50.3461 18.2861 49.6522 18.7024 48.9583 19.1187C37.7173 26.5433 32.652 42.2252 38.55 55.3397Z" fill="#E3E3E3"/>
<path d="M90.9385 67.8989C99.4077 67.8989 106.273 61.0333 106.273 52.564C106.273 44.0948 99.4077 37.2291 90.9385 37.2291C82.4692 37.2291 75.6036 44.0948 75.6036 52.564C75.6036 61.0333 82.4692 67.8989 90.9385 67.8989Z" fill="#EBB64A"/>
<path d="M94.8936 64.8458C86.4282 64.8458 79.5587 57.9763 79.5587 49.5109C79.5587 45.4864 81.1547 41.8088 83.7221 39.0332C78.9342 41.6006 75.6036 46.666 75.6036 52.564C75.6036 61.0294 82.4731 67.8989 90.9385 67.8989C95.3794 67.8989 99.3345 66.0254 102.11 63.0417C99.959 64.2213 97.461 64.8458 94.8936 64.8458Z" fill="#E3A63B"/>
<path d="M102.388 53.5354C100.306 55.1313 100.583 50.3435 97.8773 46.874C95.1711 43.4046 90.4527 42.5026 92.5344 40.9066C94.616 39.3107 98.5018 40.7678 101.208 44.2373C103.984 47.7761 104.469 51.87 102.388 53.5354Z" fill="white"/>
<path d="M227.085 18.7907C223.807 17.6106 220.135 17.7417 216.923 19.2496C210.105 22.5277 198.566 28.8216 197.123 35.181C195.091 44.3596 218.496 55.9639 241.443 75.2389C264.389 94.5139 266.881 102.25 271.011 95.6284C275.141 89.0067 291.532 71.633 278.55 51.2435C268.323 35.1154 239.017 23.1177 227.085 18.7907Z" fill="#ECB579"/>
<path d="M271.011 95.6285C273.306 91.957 279.468 84.8764 282.156 75.829C278.55 79.3037 274.027 82.1884 268.716 80.6805C256.194 77.1402 232.002 47.1787 213.907 35.9022C208.007 32.1652 203.221 30.9196 199.549 30.9196C198.369 32.3619 197.517 33.8043 197.189 35.2466C195.157 44.4252 218.562 56.0295 241.508 75.3045C264.324 94.5139 266.881 102.25 271.011 95.6285Z" fill="#DFA164"/>
<path d="M225.643 59.3074C228.134 58.5863 230.822 58.5863 233.444 58.5207C234.1 58.5207 234.756 58.5207 235.411 58.5207C246.032 58.2585 254.686 54.9149 259.866 49.0144C260.98 47.7031 261.964 46.3263 262.947 44.9496C263.34 44.3595 263.734 43.7695 264.193 43.1794C265.11 41.8682 266.159 40.6225 267.208 39.3769C266.749 39.049 266.291 38.7212 265.832 38.3934C264.783 39.6391 263.799 40.8848 262.816 42.196C262.422 42.786 261.964 43.3761 261.57 43.9661C260.652 45.2774 259.669 46.6541 258.62 47.8998C253.768 53.4725 245.508 56.6195 235.411 56.8817C234.756 56.8817 234.166 56.8817 233.51 56.8817C230.756 56.8817 228.003 56.9473 225.249 57.734C223.741 58.1929 222.365 58.783 221.053 59.5697C221.578 59.8975 222.037 60.2909 222.561 60.6187C223.479 60.0942 224.528 59.6353 225.643 59.3074Z" fill="#F2D0A4"/>
<path d="M213.383 44.0317C214.563 44.3595 215.743 44.6217 216.857 44.9495C222.561 46.3919 229.248 47.572 235.542 45.474C240.263 43.9005 244.196 40.688 247.737 37.3444C249.966 35.312 252.064 33.1485 254.162 31.0505C253.637 30.7883 253.178 30.4605 252.654 30.1982C250.687 32.2306 248.655 34.1975 246.622 36.0987C243.213 39.2457 239.476 42.3926 235.018 43.835C229.183 45.7363 222.758 44.6217 217.251 43.2449C216.071 42.9827 214.956 42.6549 213.776 42.3271C208.99 41.0814 204.007 39.7702 198.959 39.7702C198.631 39.7702 198.304 39.7702 197.976 39.7702C198.304 40.2947 198.631 40.8847 199.025 41.4092C203.876 41.5403 208.728 42.786 213.383 44.0317Z" fill="#F2D0A4"/>
<path d="M216.726 53.0791C221.25 51.6368 226.036 51.7023 229.773 51.899C230.101 51.899 230.429 51.9646 230.822 51.9646C233.313 52.0957 235.87 52.2268 238.427 51.7023C241.64 50.9812 244.393 49.1454 246.95 47.3753C250.949 44.5562 255.08 41.4092 258.161 37.1477C258.817 36.2299 259.341 35.3776 259.866 34.3942C259.407 34.0664 258.948 33.8041 258.423 33.5419C257.964 34.4597 257.44 35.312 256.784 36.1643C253.899 40.2291 249.9 43.3105 245.967 45.9985C243.541 47.7031 240.918 49.4077 237.968 50.0633C235.673 50.5878 233.182 50.4567 230.822 50.3255C230.494 50.3255 230.166 50.26 229.773 50.26C225.905 50.0633 220.857 49.9977 216.136 51.5056C214.694 51.9646 213.383 52.5546 212.137 53.2102C212.596 53.6036 213.12 53.9314 213.645 54.3248C214.628 53.8003 215.677 53.4069 216.726 53.0791Z" fill="#F2D0A4"/>
<path d="M232.133 31.313C229.052 32.6897 225.184 32.6897 220.332 31.313C215.546 29.9362 211.022 27.7071 207.023 24.7568C206.499 25.0846 206.04 25.4125 205.515 25.7403C209.777 28.9528 214.694 31.4441 219.873 32.952C225.118 34.4599 229.38 34.4599 232.854 32.8864C236.591 31.1818 239.017 27.9693 241.115 24.4946C240.59 24.2324 240.066 24.0357 239.542 23.839C237.509 26.9859 235.411 29.8706 232.133 31.313Z" fill="#F2D0A4"/>
<path d="M210.76 22.4621C214.694 24.6256 219.086 26.5269 223.741 26.9858C225.839 27.1825 227.609 27.0514 229.117 26.4614C231.346 25.6746 233.248 23.97 234.624 21.6754C234.1 21.4787 233.575 21.2165 233.051 21.0198C231.871 22.8555 230.363 24.2323 228.593 24.8223C227.347 25.2813 225.839 25.4124 223.938 25.2157C219.939 24.8223 216.071 23.2489 212.53 21.4131C211.94 21.8065 211.35 22.1343 210.76 22.4621Z" fill="#F2D0A4"/>
<path d="M237.509 36.0332C230.822 40.4914 221.774 41.0814 214.563 37.5411C212.858 36.6888 211.154 35.6399 209.58 34.5909C206.695 32.7552 203.745 30.7883 200.27 30.0672C199.811 30.5261 199.353 31.0506 198.959 31.5751C199.287 31.6406 199.549 31.6406 199.877 31.7062C203.024 32.3618 205.778 34.132 208.662 35.9677C210.301 37.0167 212.071 38.1312 213.842 39.049C221.578 42.8516 231.281 42.196 238.427 37.41C242.164 34.9187 245.18 31.3784 247.081 27.3136C246.557 27.0513 246.098 26.8547 245.573 26.5924C243.803 30.395 241.049 33.673 237.509 36.0332Z" fill="#F2D0A4"/>
<path d="M264.061 91.6292C266.094 85.3353 267.995 79.4348 272.322 74.8456C273.502 73.5999 274.879 72.4854 276.19 71.3708C276.715 70.9119 277.239 70.453 277.829 69.994C279.796 68.2894 281.632 66.4537 283.402 64.5524C283.336 63.8313 283.205 63.1101 283.074 62.3234C281.173 64.618 279.009 66.7815 276.715 68.7484C276.19 69.2073 275.666 69.6662 275.141 70.0596C273.765 71.1741 272.322 72.3542 271.077 73.6655C266.487 78.517 264.455 84.8764 262.422 91.1047C262.16 91.957 261.898 92.8093 261.57 93.6616C262.029 94.1206 262.488 94.5139 262.947 94.9073C263.34 93.7927 263.668 92.7438 264.061 91.6292Z" fill="#F2D0A4"/>
<path d="M272.453 93.4648C272.847 92.8748 273.306 92.2847 273.765 91.6291C273.502 90.0557 273.371 88.4166 273.633 86.8432C274.092 83.6962 275.731 80.746 277.436 78.058C279.206 75.2388 281.173 72.4853 283.271 69.9284C283.336 69.0105 283.402 68.0927 283.402 67.1093C280.714 70.3218 278.223 73.6654 275.994 77.1401C274.158 80.0248 272.388 83.1062 271.929 86.5809C271.667 88.9411 271.929 91.2358 272.453 93.4648Z" fill="#F2D0A4"/>
<path d="M258.489 82.2539C260.915 78.9102 263.865 75.96 266.75 73.0753C268.847 70.9118 271.077 68.7483 273.043 66.3881C276.19 62.6511 278.682 58.7174 280.452 54.5871C280.124 53.9314 279.796 53.3414 279.403 52.6858C277.698 57.0128 275.076 61.3399 271.732 65.2735C269.765 67.5682 267.602 69.7973 265.504 71.8952C262.619 74.8455 259.603 77.8613 257.112 81.2705C255.866 82.975 254.817 84.7452 254.031 86.4498C254.49 86.8432 254.883 87.3021 255.342 87.6955C256.129 85.8597 257.178 84.024 258.489 82.2539Z" fill="#F2D0A4"/>
<path d="M248.065 65.4047C248.851 65.0114 249.704 64.618 250.49 64.1591C255.014 61.93 259.669 59.6354 263.537 56.2917C267.274 53.0792 270.355 48.8833 272.519 44.0318C272.125 43.6384 271.667 43.2451 271.208 42.8517C269.11 47.7032 266.159 51.8336 262.422 55.0461C258.685 58.2586 254.096 60.4876 249.704 62.7167C248.917 63.1101 248.065 63.5035 247.278 63.9624C243.41 65.9292 239.476 68.1583 236.198 71.1085C236.657 71.4364 237.05 71.8297 237.509 72.1575C240.656 69.404 244.393 67.306 248.065 65.4047Z" fill="#F2D0A4"/>
<path d="M245.901 78.9758C248.786 76.2878 252.129 73.9932 255.342 71.8297C258.685 69.535 262.16 67.1748 265.176 64.3557C269.962 59.8975 273.502 54.3248 276.911 48.9488C276.584 48.4899 276.19 48.0309 275.797 47.572C272.388 53.0136 268.782 58.7174 264.061 63.1756C261.111 65.9292 257.702 68.2894 254.424 70.5184C251.146 72.7475 247.737 75.0422 244.786 77.8613C244.721 77.9269 244.655 77.9924 244.59 78.058C244.983 78.3202 245.442 78.7136 245.901 78.9758C245.835 79.0414 245.835 79.0414 245.901 78.9758Z" fill="#F2D0A4"/>
<path d="M260.581 283.033C259.394 283.307 258.206 284.586 257.476 285.225C256.106 286.413 254.644 287.326 253 288.148C253.548 288.97 254.827 289.427 255.74 289.609C256.745 289.792 257.658 289.609 258.663 289.427C259.12 289.335 259.577 289.153 260.033 288.97C261.403 288.148 263.778 284.768 262.043 283.398C261.586 283.033 261.038 282.942 260.581 283.033Z" fill="#7CA661"/>
<path d="M141.658 3.92763C140.654 3.01423 140.197 1.3701 139.74 0C139.009 0.730722 138.096 1.18743 137 1.27877C137.457 3.28826 138.644 5.11506 140.471 6.02846C140.562 5.38908 141.11 4.38434 141.658 3.92763Z" fill="#AEDC90"/>
<path d="M147.129 159.466L144.754 157C144.754 157 144.389 162.937 139 165.129L141.192 166.773C141.192 166.773 145.759 164.947 147.129 159.466Z" fill="#AEDC90"/>
<path d="M7.93522 226C6.38244 226.913 4.92099 227.735 3.36821 228.649C2.45481 229.197 1.54141 229.654 0.902025 230.476C0.171303 231.298 -0.559422 232.759 0.628001 233.49C1.81542 234.221 4.00759 233.033 5.01234 232.394C6.01708 231.754 7.02182 231.024 7.6612 229.928C8.93996 227.918 7.75254 226.091 7.93522 226Z" fill="#7CA661"/>
<path d="M15.1511 83.8553C15.6078 86.1388 17.252 87.9656 19.2614 89.153C21.1796 90.2491 23.2804 90.4318 25.4726 90.3404C25.5639 90.3404 25.6552 90.3404 25.7466 90.3404C25.7466 90.2491 25.7466 90.1578 25.7466 90.0664C25.5639 87.1435 24.5592 84.4033 22.9151 81.9371C21.3623 79.6536 19.2614 77.8268 17.1606 76C15.6078 78.2835 14.6031 81.2977 15.1511 83.8553Z" fill="#AEDC90"/>
<path d="M15.1511 83.8553C15.6078 86.1388 17.252 87.9656 19.2614 89.153C21.1796 90.2491 23.2804 90.4318 25.4726 90.3404C25.5639 90.3404 25.6552 90.3404 25.7466 90.3404C16.2472 85.0427 17.1606 76 17.1606 76C15.6078 78.2835 14.6031 81.2977 15.1511 83.8553Z" fill="#7CA661"/>
<path d="M17.5258 80.567C17.9825 82.7592 19.2612 84.9513 20.7227 86.5955C22.0015 88.0569 23.5542 89.427 25.3811 90.3404C25.4724 90.3404 25.5638 90.3404 25.6551 90.3404C25.6551 90.2491 25.6551 90.1577 25.6551 90.0664C23.9196 89.0617 22.2755 87.9656 20.9967 86.3214C20.266 85.408 19.6266 84.4946 19.0786 83.4899C18.5305 82.4852 18.2565 81.4804 17.8912 80.4757C17.7998 80.293 17.5258 80.3843 17.5258 80.567Z" fill="#39700B"/>
<path d="M311.595 50.8553C311.139 53.1388 309.495 54.9656 307.485 56.153C305.567 57.2491 303.466 57.4318 301.274 57.3404C301.183 57.3404 301.091 57.3404 301 57.3404C301 57.2491 301 57.1578 301 57.0664C301.183 54.1435 302.187 51.4033 303.832 48.9371C305.384 46.6536 307.485 44.8268 309.586 43C311.139 45.2835 312.143 48.2977 311.595 50.8553Z" fill="#AEDC90"/>
<path d="M311.595 50.8553C311.139 53.1388 309.495 54.9656 307.485 56.153C305.567 57.2491 303.466 57.4318 301.274 57.3404C301.183 57.3404 301.091 57.3404 301 57.3404C310.499 52.0427 309.586 43 309.586 43C311.139 45.2835 312.143 48.2977 311.595 50.8553Z" fill="#7CA661"/>
<path d="M309.221 47.567C308.764 49.7592 307.485 51.9513 306.024 53.5955C304.745 55.0569 303.192 56.427 301.366 57.3404C301.274 57.3404 301.183 57.3404 301.091 57.3404C301.091 57.2491 301.091 57.1577 301.091 57.0664C302.827 56.0617 304.471 54.9656 305.75 53.3214C306.481 52.408 307.12 51.4946 307.668 50.4899C308.216 49.4852 308.49 48.4804 308.855 47.4757C308.947 47.293 309.221 47.3843 309.221 47.567Z" fill="#39700B"/>
<path d="M72.9125 291.65C75.3825 288.485 79.9365 287.945 83.1012 290.415C85.8799 292.576 86.6518 296.358 85.1081 299.369L98.5386 304L109.19 261.316C107.724 261.316 106.18 260.852 104.868 259.849C101.858 257.456 101.317 253.134 103.633 250.046C105.717 247.345 109.499 246.65 112.432 248.194L118.067 225.578L100.237 214L89.0446 222.182C89.7393 224.42 89.4305 226.967 87.8868 228.897C85.494 231.985 81.0172 232.602 77.8525 230.286L48.2899 251.822C48.9074 252.053 49.5249 252.362 50.0652 252.748C52.5352 254.678 52.9983 258.305 51.0686 260.852C49.1389 263.322 45.5112 263.786 42.964 261.856C41.4974 260.698 40.7256 259 40.7256 257.302L31 264.403L54.3105 288.64L71.3688 294.506C71.7547 293.58 72.2178 292.576 72.9125 291.65Z" fill="#EBB64A"/>
<path d="M100.391 214.077L89.199 222.259C89.8937 224.497 89.5849 227.045 88.0412 228.974C85.6484 232.062 81.1716 232.679 78.0069 230.364L48.4443 251.899C49.0618 252.13 49.6793 252.439 50.2196 252.825C52.6896 254.755 53.1527 258.382 51.223 260.93C49.2934 263.4 45.6656 263.863 43.1184 261.933C41.6518 260.775 40.88 259.077 40.88 257.379L31.1544 264.48L54.4649 288.717L118.221 225.578L100.391 214.077Z" fill="#EEC94D"/>
<path d="M76.4632 253.751C74.8423 255.835 71.9092 256.144 69.8251 254.6C67.7411 252.98 67.4323 250.046 68.976 247.962C70.597 245.878 73.5301 245.57 75.6141 247.113C77.6982 248.734 78.0841 251.745 76.4632 253.751Z" fill="#EBB64A"/>
<path d="M107.415 228.974C106.412 230.287 104.482 230.518 103.17 229.515C101.858 228.511 101.626 226.582 102.63 225.269C103.633 223.957 105.563 223.726 106.875 224.729C108.187 225.732 108.419 227.662 107.415 228.974Z" fill="#EBB64A"/>
<path d="M63.5729 274.823C61.7976 277.062 58.5558 277.448 56.3174 275.749C54.0789 273.974 53.693 270.732 55.3911 268.494C57.1664 266.255 60.4083 265.87 62.6467 267.568C64.9623 269.343 65.3482 272.585 63.5729 274.823Z" fill="#EBB64A"/>
<path d="M96.3774 280.844C94.9108 282.774 92.1321 283.082 90.2024 281.616C88.2727 280.149 87.964 277.37 89.4305 275.441C90.8971 273.511 93.6758 273.202 95.6055 274.669C97.5352 276.136 97.8439 278.914 96.3774 280.844Z" fill="#CC9431"/>
<path d="M217.761 249.391C217.761 249.391 193.184 269.829 187.751 269.829C182.318 269.829 178.524 261.291 172.573 268.449C166.537 275.606 179.817 280.522 179.817 280.522C179.817 280.522 176.626 290.008 183.353 293.285C190.079 296.562 190.769 287.938 192.494 280.436C194.132 272.933 226.557 259.825 226.557 259.825L217.761 249.391Z" fill="#F2D0A4"/>
<path d="M297.185 231.453C308.827 210.929 289.768 186.007 266.916 191.871C266.571 191.957 266.312 192.043 265.967 192.13C248.375 197.304 211.725 247.062 212.759 251.46C214.398 258.532 221.814 250.598 218.968 256.634C216.123 262.671 213.018 266.896 228.541 263.706C244.149 260.515 289.078 244.82 296.753 232.143C296.926 231.885 297.098 231.626 297.185 231.453Z" fill="#C89059"/>
<path d="M253.722 215.5C270.106 200.236 282.783 196.786 289.423 196.269C283.387 191.785 275.453 189.715 266.916 191.871C266.571 191.957 266.312 192.043 265.967 192.13C248.375 197.304 211.725 247.062 212.759 251.46C214.398 258.531 221.814 250.598 218.968 256.634C216.123 262.671 213.018 266.896 228.541 263.706C230.869 263.188 233.887 262.412 237.337 261.464C235.957 251.719 235.871 232.143 253.722 215.5Z" fill="#BA7F4A"/>
<path d="M262.259 220.329C261.397 220.846 260.189 220.588 259.672 219.725C259.154 218.863 259.413 217.656 260.275 217.138C261.138 216.621 262.345 216.879 262.863 217.742C263.38 218.604 263.121 219.811 262.259 220.329Z" fill="#BA7F4A"/>
<path d="M254.584 230.246C253.549 230.85 252.256 230.591 251.566 229.556C250.962 228.521 251.221 227.228 252.256 226.538C253.29 225.934 254.584 226.193 255.274 227.228C255.964 228.263 255.619 229.556 254.584 230.246Z" fill="#BA7F4A"/>
<path d="M248.892 241.543C247.857 242.147 246.564 241.888 245.874 240.853C245.27 239.818 245.529 238.525 246.564 237.835C247.599 237.231 248.892 237.49 249.582 238.525C250.272 239.559 249.841 240.853 248.892 241.543Z" fill="#BA7F4A"/>
<path d="M258.723 237.921C257.947 238.438 256.912 238.18 256.481 237.404C255.964 236.627 256.222 235.593 256.999 235.161C257.775 234.644 258.809 234.903 259.241 235.679C259.758 236.455 259.499 237.404 258.723 237.921Z" fill="#BA7F4A"/>
<path d="M272.694 215.068C271.917 215.586 270.883 215.327 270.451 214.551C269.934 213.775 270.193 212.74 270.969 212.309C271.745 211.791 272.78 212.05 273.211 212.826C273.728 213.602 273.47 214.637 272.694 215.068Z" fill="#BA7F4A"/>
<path d="M198.9 176.8C212.1 176.8 222.8 166.1 222.8 152.9C222.8 139.7 212.1 129 198.9 129C185.7 129 175 139.7 175 152.9C175 166.1 185.7 176.8 198.9 176.8Z" fill="#EBB64A"/>
<path d="M198.9 174.468C210.812 174.468 220.468 164.812 220.468 152.9C220.468 140.988 210.812 131.332 198.9 131.332C186.988 131.332 177.332 140.988 177.332 152.9C177.332 164.812 186.988 174.468 198.9 174.468Z" fill="white"/>
<path d="M179.663 152.252H194.237C195.338 152.252 195.921 150.892 195.143 150.115L184.845 139.752C184.327 139.234 183.42 139.298 182.967 139.816C180.441 142.861 178.821 146.682 178.433 150.827C178.368 151.605 178.951 152.252 179.663 152.252Z" fill="#EEC94D"/>
<path d="M194.301 153.483H179.663C178.886 153.483 178.303 154.131 178.433 154.908C178.821 159.053 180.505 162.875 182.967 165.919C183.42 166.502 184.327 166.566 184.845 165.983L195.143 155.685C195.985 154.843 195.402 153.483 194.301 153.483Z" fill="#EEC94D"/>
<path d="M196.827 132.433C192.682 132.821 188.861 134.505 185.817 136.967C185.234 137.42 185.169 138.327 185.752 138.845L196.05 149.143C196.827 149.921 198.188 149.402 198.188 148.237V133.663C198.252 132.951 197.605 132.368 196.827 132.433Z" fill="#EEC94D"/>
<path d="M201.685 149.208L211.983 138.91C212.502 138.392 212.437 137.485 211.919 137.031C208.874 134.505 205.053 132.886 200.908 132.497C200.131 132.433 199.483 133.016 199.483 133.728V148.301C199.483 149.402 200.843 149.985 201.685 149.208Z" fill="#EEC94D"/>
<path d="M203.434 152.252H218.007C218.784 152.252 219.367 151.605 219.238 150.827C218.849 146.682 217.165 142.861 214.704 139.817C214.25 139.234 213.344 139.169 212.825 139.752L202.527 150.05C201.75 150.892 202.333 152.252 203.434 152.252Z" fill="#EEC94D"/>
<path d="M218.072 153.483H203.499C202.398 153.483 201.815 154.843 202.592 155.62L212.89 165.919C213.408 166.437 214.315 166.372 214.769 165.854C217.295 162.81 218.914 158.988 219.302 154.843C219.367 154.131 218.784 153.483 218.072 153.483Z" fill="#EEC94D"/>
<path d="M196.115 156.527L185.817 166.825C185.298 167.344 185.363 168.25 185.881 168.704C188.925 171.23 192.747 172.849 196.892 173.238C197.669 173.302 198.317 172.719 198.317 172.007V157.434C198.252 156.333 196.892 155.75 196.115 156.527Z" fill="#EEC94D"/>
<path d="M201.685 156.527C200.908 155.75 199.548 156.268 199.548 157.434V172.007C199.548 172.784 200.195 173.367 200.973 173.238C205.118 172.849 208.939 171.165 211.983 168.704C212.566 168.25 212.631 167.344 212.048 166.826L201.685 156.527Z" fill="#EEC94D"/>
<path d="M75.1229 158.239C75.1229 158.239 78.2006 159.383 79.9594 157.238C81.7181 155.093 84.3562 149.016 90.292 147.014C91.8309 146.514 93.1499 146.085 94.3224 145.727C96.8872 144.941 98.9391 143.01 99.8185 140.508C100.771 137.934 102.823 134.645 107.293 132.643C115.427 129.069 115.281 126.066 116.233 123.492C117.186 120.918 123.561 128.783 122.169 139.15C120.777 149.516 110.591 156.451 110.591 156.451C110.591 156.451 106.267 161.885 96.7407 164.53C87.2875 167.176 82.9639 161.671 81.2784 160.813C79.6663 159.955 76.6617 162.457 75.1961 161.17C73.8771 159.955 75.1229 158.239 75.1229 158.239Z" fill="#D4E86D"/>
<path d="M122.169 139.221C123.561 128.854 117.186 120.918 116.233 123.563C115.647 125.208 115.501 126.995 113.375 128.997C114.548 130.928 115.72 134.002 115.574 138.721C115.281 148.158 106.34 146.943 103.483 150.088C100.625 153.234 101.137 160.741 91.3912 161.456C85.602 161.885 82.2311 159.097 80.4723 156.594C80.2525 156.88 80.1059 157.095 79.9594 157.309C78.2006 159.454 75.1229 158.31 75.1229 158.31C75.1229 158.31 73.8771 159.955 75.2694 161.242C76.6617 162.529 79.6663 160.026 81.3517 160.884C82.9639 161.742 87.2874 167.247 96.8139 164.602C106.267 161.957 110.664 156.523 110.664 156.523C110.664 156.523 120.703 149.588 122.169 139.221Z" fill="#B5CD5A"/>
<path d="M210.055 101C207.315 101 207.315 105.293 210.055 105.293C212.795 105.202 212.795 101 210.055 101Z" fill="#FFF1CE"/>
<path d="M160.016 250.011H159.925C159.377 250.103 158.92 250.742 159.012 251.29C159.012 251.838 159.377 252.478 159.925 252.569H160.016C160.839 252.752 161.661 252.204 161.661 251.29C161.661 250.377 160.839 249.92 160.016 250.011Z" fill="#FFF1CE"/>
<path d="M134.85 87C132.383 87 132.383 90.8363 134.85 90.8363C137.316 90.8363 137.316 87 134.85 87Z" fill="#FFF1CE"/>
<path d="M68.3641 184.675C68.3641 184.675 71.5152 185.533 73.0541 183.245C74.593 180.957 76.7181 174.665 82.434 172.163C83.8996 171.519 85.2187 170.948 86.3179 170.519C88.8094 169.446 90.7147 167.373 91.3743 164.87C92.0338 162.225 93.7925 158.793 98.0428 156.434C105.884 152.144 105.371 149.213 106.104 146.568C106.836 143.922 113.871 151.215 113.432 161.653C112.992 172.091 103.466 179.884 103.466 179.884C103.466 179.884 99.655 185.676 90.4216 189.107C81.1882 192.539 76.425 187.463 74.7395 186.748C73.0541 186.033 70.2694 188.75 68.7305 187.606C67.3382 186.462 68.3641 184.675 68.3641 184.675Z" fill="#D4E86D"/>
<path d="M113.505 161.653C113.945 151.215 106.837 143.851 106.177 146.568C105.737 148.284 105.737 150.071 103.832 152.287C105.224 154.075 106.617 157.077 106.91 161.796C107.423 171.234 98.4825 170.805 95.9177 174.165C93.3529 177.525 94.5254 184.961 84.9256 186.534C79.1364 187.463 75.6189 184.961 73.6404 182.601C73.4938 182.887 73.3472 183.173 73.2007 183.388C71.6618 185.676 68.5107 184.818 68.5107 184.818C68.5107 184.818 67.4848 186.605 68.9504 187.749C70.4893 188.893 73.274 186.176 74.9594 186.891C76.6449 187.606 81.4814 192.682 90.6415 189.25C99.8749 185.819 103.685 180.028 103.685 180.028C103.685 180.028 113.065 172.092 113.505 161.653Z" fill="#B5CD5A"/>
</svg>
