<svg width="155" height="47" viewBox="0 0 155 47" fill="none" xmlns="http://www.w3.org/2000/svg">
<path d="M21.2 36.9999L14.12 26.9599C17.68 26.1599 20.56 22.4399 20.56 18.5599C20.56 13.9999 17.68 9.43991 11.28 9.43991H0V36.9999H6.28V27.3199H7.56L13.88 36.9999H21.2ZM10.44 14.9199C13 14.9199 14.24 16.8799 14.24 18.7199C14.24 20.5599 13.04 22.3599 10.28 22.3599H6.28V14.9199H10.44Z" fill="white"/>
<path d="M42.8475 27.2799C42.8475 21.5999 38.3675 17.8399 33.0075 17.8399C27.6475 17.8399 22.9675 21.6399 22.9675 27.7199C22.9675 33.3999 27.1275 37.4799 33.0475 37.4799C36.1675 37.4799 39.3675 36.2399 41.2075 34.2399L38.1675 30.3999C37.0075 31.5199 35.2075 32.3199 33.4475 32.3199C31.2075 32.3199 29.6475 31.1999 29.0875 29.3999H42.7675C42.8075 28.4799 42.8475 27.7999 42.8475 27.2799ZM29.0475 25.9199C29.6475 23.6799 31.3675 22.8399 33.1275 22.8399C35.2475 22.8399 36.8875 24.0799 36.9675 25.9199H29.0475Z" fill="white"/>
<path d="M55.8247 37.4799C59.4247 37.4799 62.1847 35.7199 63.9847 33.0799L59.3847 30.1999C58.6647 31.3199 57.1447 31.9999 55.8647 31.9999C53.1447 31.9999 51.5447 29.9599 51.5447 27.5999C51.5447 25.2799 53.1447 23.3199 55.8647 23.3199C57.1447 23.3199 58.6647 23.9999 59.3847 25.1199L63.9847 22.2399C62.1847 19.5999 59.4247 17.8399 55.8247 17.8399C50.3847 17.8399 45.5047 21.6799 45.5047 27.5999C45.5047 33.5199 50.3847 37.4799 55.8247 37.4799Z" fill="white"/>
<path d="M73.4822 36.9999V18.3199H67.5622V36.9999H73.4822Z" fill="white"/>
<path d="M90.1406 17.8399C88.2206 17.8399 85.7406 18.5999 84.3806 20.3199V18.3199H78.4606V46.1999H84.3806V34.9199C85.7406 36.6799 88.2206 37.4799 90.1406 37.4799C94.8206 37.4799 99.2206 33.6799 99.2206 27.6399C99.2206 21.6399 94.8206 17.8399 90.1406 17.8399ZM88.9006 31.9999C86.6606 31.9999 84.5806 30.0799 84.5806 27.6399C84.5806 25.2399 86.6206 23.3199 88.9006 23.3199C91.2206 23.3199 93.2206 25.2799 93.2206 27.6399C93.2206 30.0399 91.2206 31.9999 88.9006 31.9999Z" fill="white"/>
<path d="M121.949 27.2799C121.949 21.5999 117.469 17.8399 112.109 17.8399C106.749 17.8399 102.069 21.6399 102.069 27.7199C102.069 33.3999 106.229 37.4799 112.149 37.4799C115.269 37.4799 118.469 36.2399 120.309 34.2399L117.269 30.3999C116.109 31.5199 114.309 32.3199 112.549 32.3199C110.309 32.3199 108.749 31.1999 108.189 29.3999H121.869C121.909 28.4799 121.949 27.7999 121.949 27.2799ZM108.149 25.9199C108.749 23.6799 110.469 22.8399 112.229 22.8399C114.349 22.8399 115.989 24.0799 116.069 25.9199H108.149Z" fill="white"/>
<path d="M131.646 36.9999V8.15991H125.726V36.9999H131.646Z" fill="white"/>
<path d="M144.625 27.9999L140.745 18.3199H134.185L141.545 34.7599L136.945 46.1999H143.265L154.785 18.3199H148.425L144.625 27.9999Z" fill="white"/>
<path d="M63.3 15.1983C60.7688 14.7736 58.84 12.5722 58.84 9.92021C58.84 6.96433 61.2362 4.56812 64.1921 4.56812C64.5593 4.56812 64.918 4.60511 65.2644 4.67557" stroke="white" stroke-width="2" stroke-linecap="round"/>
<path d="M77.7527 15.1983C80.284 14.7736 82.2127 12.5722 82.2127 9.92021C82.2127 6.96433 79.8165 4.56812 76.8606 4.56812C76.4934 4.56812 76.1347 4.60511 75.7883 4.67557" stroke="white" stroke-width="2" stroke-linecap="round"/>
<path d="M65.2527 7.69012C65.1426 7.26246 65.0841 6.81411 65.0841 6.35209C65.0841 3.39621 67.4803 1 70.4362 1C73.3921 1 75.7883 3.39621 75.7883 6.35209C75.7883 6.81411 75.7298 7.26246 75.6197 7.69012" stroke="white" stroke-width="2" stroke-linecap="round"/>
<path d="M70.4011 10.6719V13.4748" stroke="white" stroke-width="2" stroke-linecap="round"/>
<path d="M65.4444 10.907C65.2203 11.4075 65.6311 13.3156 66.1166 13.6283" stroke="white" stroke-width="2" stroke-linecap="round"/>
<path d="M75.7255 10.907C75.9496 11.4075 75.5388 13.3156 75.0533 13.6283" stroke="white" stroke-width="2" stroke-linecap="round"/>
</svg>

