<svg width="300" height="362" viewBox="0 0 300 362" fill="none" xmlns="http://www.w3.org/2000/svg">
<path d="M42 86.3105C42 86.5845 42 86.8586 42 87.1326C42.1827 103.848 81.0936 112.982 91.2324 102.934C94.2466 99.9202 95.4341 95.4445 94.886 91.2429C92.7852 75.715 80.3629 73.7969 67.8493 73.7056C58.3499 73.7056 42.548 73.8882 42 86.3105Z" fill="#F0E1D9"/>
<path d="M239.756 268.418C239.756 268.418 238.204 274.264 234.915 281.937C230.44 292.35 222.767 306.142 211.258 312.993C176.366 333.727 115.351 326.876 90.5977 312.993C65.8445 299.109 59.542 268.418 59.542 268.418H239.756Z" fill="#EEF9F9"/>
<path d="M239.757 268.418C239.757 268.418 238.204 274.264 234.915 281.937C230.257 290.431 223.772 299.2 215.277 304.224C179.472 325.506 116.812 318.473 91.4199 304.224C75.1613 295.09 66.6667 278.831 62.6477 268.418H239.757Z" fill="white"/>
<path opacity="0.1" d="M88.6797 296.186C88.6797 296.186 95.9869 300.296 99.2752 301.027L100.189 314.91C100.189 314.91 92.8813 312.444 89.5931 310.069L88.6797 296.186Z" fill="#ABE0E3"/>
<path opacity="0.1" d="M103.294 302.123L104.116 316.098C104.116 316.098 124.12 322.857 135.72 322.492V307.055C135.72 307.147 117.726 306.142 103.294 302.123Z" fill="#ABE0E3"/>
<path d="M241.674 258.554C241.674 261.933 241.035 265.221 239.665 268.327C230.896 289.792 193.904 305.868 149.603 305.868C105.303 305.868 68.3106 289.792 59.542 268.327C58.2632 265.13 57.5325 261.933 57.5325 258.554C57.5325 232.43 98.7269 211.239 149.603 211.239C200.48 211.239 241.674 232.43 241.674 258.554Z" fill="#ABE0E3"/>
<path d="M235.098 258.462C235.098 261.385 234.459 264.217 233.271 266.957C225.142 285.682 190.798 299.657 149.695 299.657C108.592 299.657 74.2478 285.59 66.1186 266.957C64.9311 264.217 64.2917 261.385 64.2917 258.462C64.2917 235.719 102.563 217.268 149.695 217.268C196.826 217.268 235.098 235.719 235.098 258.462Z" fill="#97D5D8"/>
<path d="M233.271 267.048C225.142 285.773 190.798 299.748 149.695 299.748C108.591 299.748 74.2474 285.682 66.1182 267.048C74.2474 248.323 108.591 234.348 149.695 234.348C190.798 234.348 225.142 248.323 233.271 267.048Z" fill="#E4FEFF"/>
<path d="M208.792 307.603L241.674 331.078L251.631 321.03L221.854 293.72C221.854 293.72 209.888 296.095 208.792 307.603Z" fill="white"/>
<path d="M252.544 316.098C252.544 316.098 297.118 347.976 286.431 359.211C275.745 370.445 237.108 332.448 237.108 332.448C237.108 332.448 238.843 318.473 252.544 316.098Z" fill="white"/>
<path d="M245.237 322.492L285.883 358.023C285.883 358.023 288.715 351.812 280.677 343.043C272.639 334.183 252.453 317.651 252.453 317.651C252.453 317.651 245.511 320.939 245.237 322.492Z" fill="#ABE0E3"/>
<path opacity="0.2" d="M214.82 299.748L239.665 320.574C239.665 320.574 241.309 317.742 244.597 316.189L222.036 296.277C222.128 296.186 215.551 297.464 214.82 299.748Z" fill="#ABE0E3"/>
<path d="M34.1293 181.023C32.9419 181.115 31.6631 182.302 30.7497 182.85C29.2883 183.855 27.6441 184.677 26 185.225C26.4567 186.138 27.6441 186.686 28.5575 186.96C29.4709 187.234 30.4757 187.234 31.4804 187.143C31.9371 187.052 32.4852 186.96 32.8505 186.778C34.312 186.138 37.0522 183.033 35.4994 181.48C35.134 181.115 34.586 180.932 34.1293 181.023Z" fill="#7CA661"/>
<path d="M234.028 56.3476C232.841 57.1696 232.11 59.0878 231.562 60.0925C230.558 61.9193 229.37 63.6548 228 65.2076C228.913 65.8469 230.558 65.8469 231.654 65.5729C232.75 65.2989 233.846 64.7509 234.759 64.1115C235.216 63.7461 235.673 63.4721 236.038 63.0154C237.134 61.554 238.321 56.8043 235.764 56.0735C235.125 55.8909 234.485 56.0735 234.028 56.3476Z" fill="#AEDC90"/>
<path d="M273.321 146.235C269.759 145.139 266.471 143.038 264.187 140.115C263.548 139.384 263 138.471 263 137.558C264.279 137.009 265.558 136.096 266.562 135C268.846 137.558 272.591 139.384 275.97 138.745C275.605 141.485 274.874 144.043 273.321 146.235Z" fill="#AEDC90"/>
<path d="M165.658 137.928C164.654 137.014 164.197 135.37 163.74 134C163.009 134.731 162.096 135.187 161 135.279C161.457 137.288 162.644 139.115 164.471 140.028C164.562 139.389 165.11 138.384 165.658 137.928Z" fill="#AEDC90"/>
<path d="M85.2085 75.1079C86.1219 74.1031 86.3959 72.3677 86.6699 70.9976C87.492 71.6369 88.4967 72.0023 89.5015 72.0023C89.2275 74.0118 88.3141 76.0213 86.5786 77.1174C86.4873 76.3866 85.8479 75.4732 85.2085 75.1079Z" fill="#AEDC90"/>
<path d="M128.504 215.989L125.946 211.148C125.946 211.148 122.749 220.008 113.798 220.83L116.447 224.301C116.447 224.393 124.028 223.662 128.504 215.989Z" fill="#AEDC90"/>
<path d="M138.129 58.4662L135.754 56C135.754 56 135.389 61.9371 130 64.1293L132.192 65.7734C132.192 65.7734 136.759 63.9466 138.129 58.4662Z" fill="#AEDC90"/>
<path d="M137.729 240.103L139.465 236.267C139.465 236.267 132.523 238.459 127.773 233.344L126.86 236.541C126.951 236.541 130.97 240.834 137.729 240.103Z" fill="#AEDC90"/>
<path d="M203.87 27.7592L205.605 23.9229C205.605 23.9229 198.663 26.1151 193.913 21L193 24.1969C193 24.1969 197.019 28.4899 203.87 27.7592Z" fill="#AEDC90"/>
<path d="M274.38 224.778L271 222.312C271 222.312 278.125 220.851 279.769 214L282.144 216.375C282.052 216.466 280.682 222.129 274.38 224.778Z" fill="#7CA661"/>
<path d="M141.84 195.803C140.47 193.52 139.282 193.337 136.725 193.245L128.139 192.697C123.754 192.423 119.187 191.875 114.803 192.058C114.62 190.049 114.164 188.039 112.428 186.76C110.419 185.208 107.404 185.39 105.852 187.491C104.573 189.227 104.664 191.693 105.76 193.52C105.76 193.611 105.852 193.794 106.034 193.976C104.847 195.255 104.207 196.99 104.756 199C105.395 201.101 107.404 202.288 109.505 201.283C111.058 200.553 112.428 199.639 113.25 198.269C118 199.183 122.932 199.274 127.682 199.639L135.629 200.187C138.369 200.37 139.922 200.644 141.748 198.361C142.205 197.538 142.205 196.442 141.84 195.803Z" fill="white"/>
<path d="M190.524 182.376C202.398 180.64 216.19 178.905 224.776 187.217C231.262 193.519 232.358 203.841 229.983 212.61C228.704 217.359 226.603 221.835 223.224 225.397C206.691 243.026 178.741 227.772 163.03 217.359C153.805 211.239 144.214 205.211 133.345 203.019C131.335 202.653 128.961 202.105 128.138 200.279C127.134 198.086 129.6 197.173 131.061 197.447C119.278 184.751 140.378 185.481 147.137 185.481C161.569 185.573 176.092 184.477 190.524 182.376Z" fill="#F5B76E"/>
<path d="M175.453 193.154C172.896 193.702 170.247 194.342 168.237 195.894C166.136 197.447 164.766 200.279 165.588 202.745C166.045 204.206 167.232 205.394 168.329 206.49C172.987 211.057 177.737 215.624 183.217 219.095C188.697 222.657 195.091 225.032 201.668 224.849C203.495 224.758 205.321 224.484 207.057 223.936C210.893 222.657 213.999 220.008 216.83 217.177C218.748 215.258 220.666 213.158 221.854 210.783C226.238 201.923 220.484 191.236 211.167 188.952C200.572 186.212 185.866 190.962 175.453 193.154Z" fill="#EDAD61"/>
<path d="M201.211 209.139C204.956 208.317 209.157 209.687 209.157 214.436C209.157 216.446 207.513 218.273 205.595 219.003C203.129 219.917 200.389 219.369 198.105 218.181C196.552 217.359 195 215.989 195.182 214.254C195.274 213.432 195.822 212.701 196.278 212.062C197.375 210.6 199.293 209.595 201.211 209.139Z" fill="#FAC17E"/>
<path d="M214.82 203.293C214.82 202.562 214.638 201.831 214.181 201.283C213.998 201.1 213.815 201.009 213.633 200.826C213.267 200.552 212.902 200.461 212.445 200.37C211.532 200.187 210.619 200.278 209.797 200.735C208.974 200.918 208.244 201.557 207.878 202.288C207.513 203.019 207.422 203.841 207.696 204.663C207.97 205.576 208.609 206.215 209.523 206.581C210.345 206.946 211.349 206.855 212.263 206.581C212.811 206.398 213.085 206.215 213.542 205.85C214.09 205.393 214.546 204.663 214.638 203.932C214.729 203.658 214.82 203.475 214.82 203.293Z" fill="#FAC17E"/>
<path d="M216.099 209.321C216.099 209.412 216.191 209.412 216.191 209.504C216.099 209.321 215.917 209.23 215.825 209.047C215.643 208.864 215.46 208.773 215.186 208.773C214.272 208.408 213.176 208.773 212.628 209.686C212.08 210.691 212.537 212.061 213.724 212.427C214.181 212.609 214.546 212.609 215.003 212.518C216.465 212.427 217.104 210.326 216.099 209.321Z" fill="#FAC17E"/>
<path d="M110.144 188.313C110.236 187.856 109.962 187.399 109.414 187.399C109.231 187.399 109.14 187.308 108.957 187.308C108.683 187.308 108.5 187.399 108.226 187.399C107.77 187.582 107.404 187.856 107.13 188.221C107.039 188.313 106.947 188.495 106.947 188.678C106.673 189.317 106.765 190.048 107.313 190.413C107.952 190.87 108.774 190.687 109.322 190.139C109.596 189.865 109.87 189.591 109.962 189.226C110.236 188.952 110.236 188.678 110.144 188.313Z" fill="#F5F5F5"/>
<path d="M113.159 189.592C113.159 189.318 112.976 189.044 112.793 188.861C112.063 188.222 111.058 189.044 111.606 189.866C111.697 190.231 111.971 190.596 112.428 190.505C112.885 190.596 113.25 190.14 113.159 189.592Z" fill="#F5F5F5"/>
<path d="M135.994 159.781C107.861 173.025 98.5444 140.142 98.5444 140.142C99.5492 139.96 100.554 139.777 101.65 139.594C114.803 137.037 127.499 132.104 138.917 125.071C140.013 124.432 141.109 123.701 142.205 122.97C142.205 122.879 160.656 148.089 135.994 159.781Z" fill="#AF4040"/>
<path d="M145.402 145.075C144.854 148.82 142.662 152.108 139.739 154.574C136.816 156.949 133.345 158.502 129.6 159.324C125.946 160.146 122.11 160.237 118.548 159.233C113.981 157.954 110.053 154.94 107.13 151.286C104.39 147.906 103.111 143.796 101.65 139.686C103.111 139.412 104.573 139.138 105.943 138.772C116.812 136.215 127.225 132.013 136.816 126.441C137.547 125.985 138.186 125.619 138.917 125.163C140.652 127.629 142.022 130.369 143.21 133.109C144.854 136.763 146.041 140.964 145.402 145.075Z" fill="#DA5858"/>
<path d="M132.706 154.118C115.077 162.338 107.678 144.801 105.943 138.59C116.812 136.032 127.225 131.831 136.816 126.259C141.566 132.105 146.407 147.724 132.706 154.118Z" fill="#EE6D6D"/>
<path d="M128.961 139.777C131.884 137.311 133.802 133.84 136.451 131.099C136.999 130.46 137.912 129.912 138.643 130.277C139.008 130.46 139.191 130.734 139.374 131.099C142.023 135.392 140.47 141.238 136.908 144.801C133.345 148.271 128.23 149.824 123.298 150.281C121.745 150.464 120.284 150.555 118.731 150.281C116.356 149.916 114.164 148.82 112.063 147.541C110.967 146.901 109.871 146.079 109.323 144.892C107.496 140.234 115.26 143.339 117.178 143.43C121.38 143.522 125.673 142.517 128.961 139.777Z" fill="#CD4848"/>
<path d="M117.361 145.258C117.269 144.892 117.178 144.618 116.904 144.344C116.63 144.07 116.173 143.979 115.808 144.161C115.351 144.344 114.986 144.801 114.803 145.258C114.62 145.623 114.529 145.988 114.438 146.354C114.255 147.084 114.803 147.906 115.625 148.089C116.447 148.18 117.087 147.724 117.361 146.902C117.452 146.628 117.452 146.262 117.452 145.988C117.452 145.714 117.452 145.532 117.361 145.258Z" fill="#FAD383"/>
<path d="M121.471 145.166C121.288 144.709 120.831 144.344 120.375 144.435C119.827 144.527 119.553 144.801 119.37 145.349C119.279 145.714 119.279 146.079 119.279 146.445C119.37 147.084 119.918 147.632 120.557 147.541C121.197 147.449 121.745 146.901 121.653 146.262C121.653 145.897 121.562 145.531 121.471 145.166Z" fill="#FAD383"/>
<path d="M126.221 144.527C125.947 143.613 124.485 143.796 124.394 144.709C124.302 145.349 124.302 145.988 124.576 146.628C124.942 147.45 126.038 147.358 126.312 146.445C126.403 145.806 126.312 145.075 126.221 144.527Z" fill="#FAD383"/>
<path d="M130.148 142.334C129.509 142.243 128.961 142.882 129.143 143.522C129.235 143.796 129.417 144.07 129.6 144.344C129.6 144.344 129.6 144.344 129.6 144.435V144.527C129.691 144.709 129.783 144.892 129.874 145.075C130.422 145.988 131.975 145.44 131.792 144.344C131.792 143.522 131.061 142.517 130.148 142.334Z" fill="#FAD383"/>
<path d="M135.72 140.508C135.446 140.325 135.172 140.234 134.898 140.142C134.715 140.051 134.441 139.777 134.075 139.686C133.71 139.594 133.345 139.594 133.071 139.868C132.797 140.142 132.705 140.508 132.797 140.873C133.071 141.421 133.436 141.695 133.893 141.969C134.258 142.152 134.715 142.426 135.08 142.426C135.537 142.426 136.085 142.243 136.176 141.787C136.359 141.239 136.176 140.782 135.72 140.508Z" fill="#FAD383"/>
<path d="M137.912 136.306C137.273 136.124 136.633 135.941 135.994 136.124C135.446 136.306 135.172 137.037 135.537 137.494C136.085 138.133 136.725 138.316 137.547 138.498C138.095 138.681 138.734 138.133 138.825 137.585C138.825 136.946 138.46 136.489 137.912 136.306Z" fill="#FAD383"/>
<path d="M146.681 150.863C146.59 150.041 145.128 149.767 145.037 150.772C144.854 153.33 144.945 155.887 144.397 158.353C143.758 161.185 142.297 163.286 140.561 165.478C140.196 166.026 140.744 166.665 141.383 166.3C146.224 163.286 147.503 156.07 146.681 150.863Z" fill="white"/>
<path d="M146.133 134.936C145.95 134.205 145.676 133.566 145.311 132.927C144.945 132.287 143.941 131.556 143.301 132.378C142.845 132.927 143.027 133.566 143.301 134.205C143.484 134.753 143.667 135.301 143.849 135.849C144.032 136.489 144.854 136.763 145.402 136.58C146.042 136.306 146.316 135.575 146.133 134.936Z" fill="white"/>
<path d="M133.71 105.707C154.81 111.096 156.728 87.2562 156.728 87.2562C155.997 87.2562 155.267 87.2562 154.536 87.2562C145.128 87.2562 135.811 85.6121 127.043 82.2325C126.22 81.8672 125.398 81.5931 124.485 81.2278C124.576 81.3191 115.26 101.049 133.71 105.707Z" fill="#F9AF1A"/>
<path d="M125.307 96.9384C126.221 99.4046 128.139 101.414 130.422 102.693C132.706 103.972 135.355 104.52 138.003 104.611C140.652 104.702 143.301 104.246 145.585 103.058C148.508 101.597 150.791 98.9479 152.344 96.1164C153.805 93.4675 154.079 90.3619 154.536 87.3477C153.531 87.3477 152.435 87.3477 151.43 87.2563C143.667 86.9823 135.903 85.5209 128.595 82.872C128.047 82.6893 127.499 82.5067 126.951 82.324C126.038 84.2421 125.49 86.3429 125.033 88.3524C124.576 91.184 124.302 94.1982 125.307 96.9384Z" fill="#F9B937"/>
<path d="M135.263 101.505C148.416 104.793 151.248 91.7318 151.522 87.2562C143.758 86.9821 135.994 85.5207 128.687 82.8718C126.22 87.5302 124.942 98.8564 135.263 101.505Z" fill="#F9C45A"/>
<path d="M135.902 91.0926C133.528 89.8138 131.792 87.713 129.6 86.1602C129.143 85.7948 128.504 85.5208 127.956 85.8862C127.773 86.0688 127.59 86.2515 127.499 86.5255C126.312 89.8138 128.139 93.6501 131.061 95.5682C133.984 97.4864 137.638 97.8517 141.2 97.5777C142.296 97.4864 143.301 97.3037 144.306 96.9383C145.859 96.3903 147.229 95.2942 148.507 94.1981C149.147 93.5587 149.878 92.9194 149.969 92.006C150.608 88.6264 145.676 91.7319 144.397 92.0973C141.566 92.6453 138.551 92.554 135.902 91.0926Z" fill="#F9A600"/>
<path d="M144.58 93.3761C144.58 93.1021 144.671 92.9194 144.763 92.7367C144.945 92.4627 145.219 92.3714 145.493 92.4627C145.859 92.5541 146.133 92.7367 146.315 93.0108C146.498 93.1934 146.589 93.4675 146.681 93.7415C146.863 94.1982 146.589 94.8376 146.133 95.0202C145.585 95.2029 145.037 94.9289 144.854 94.4722C144.763 94.2895 144.671 94.0155 144.671 93.8328C144.58 93.6501 144.58 93.5588 144.58 93.3761Z" fill="white"/>
<path d="M141.748 93.8327C141.839 93.5587 142.022 93.1934 142.387 93.1934C142.753 93.1934 143.027 93.376 143.209 93.6501C143.301 93.9241 143.392 94.1068 143.392 94.3808C143.483 94.8375 143.118 95.2942 142.661 95.2942C142.205 95.2942 141.748 95.0202 141.748 94.5635C141.748 94.2894 141.657 94.0154 141.748 93.8327Z" fill="white"/>
<path d="M138.46 94.0152C138.46 93.3758 139.556 93.2845 139.739 93.8325C139.83 94.1979 139.922 94.7459 139.83 95.1113C139.739 95.7507 138.917 95.842 138.643 95.2026C138.369 94.9286 138.369 94.3806 138.46 94.0152Z" fill="white"/>
<path d="M135.446 93.0107C135.902 92.828 136.359 93.1934 136.268 93.6501C136.268 93.8327 136.176 94.1068 136.085 94.2895C136.085 94.2895 136.085 94.2895 136.085 94.3808V94.4721C136.085 94.6548 135.994 94.7462 135.994 94.8375C135.72 95.5682 134.624 95.3855 134.532 94.6548C134.441 94.0154 134.806 93.1934 135.446 93.0107Z" fill="white"/>
<path d="M131.336 92.554C131.518 92.3713 131.701 92.2799 131.884 92.1886C131.975 92.0973 132.158 91.9146 132.34 91.8232C132.523 91.7319 132.797 91.6406 133.071 91.8232C133.254 91.9146 133.436 92.1886 133.345 92.4626C133.254 92.828 133.071 93.102 132.797 93.376C132.614 93.5587 132.34 93.8327 132.066 93.8327C131.701 93.9241 131.336 93.8327 131.153 93.5587C130.97 93.102 131.062 92.7366 131.336 92.554Z" fill="white"/>
<path d="M129.326 89.905C129.783 89.7223 130.148 89.4483 130.605 89.5396C130.97 89.5396 131.244 90.0877 131.061 90.453C130.787 90.9097 130.331 91.1838 129.874 91.3664C129.509 91.5491 129.052 91.2751 128.869 90.9097C128.687 90.5444 128.869 90.179 129.326 89.905Z" fill="white"/>
<path d="M123.572 92.8279C123.572 92.1885 124.485 91.9145 124.668 92.5539C125.124 94.2893 125.398 96.0248 126.129 97.6689C126.951 99.4957 128.23 100.774 129.691 102.053C130.057 102.327 129.691 102.875 129.235 102.784C125.581 101.323 123.754 96.4815 123.572 92.8279Z" fill="white"/>
<path d="M123.48 90.0876C123.571 89.5395 123.571 89.0828 123.754 88.5348C123.937 88.0781 124.485 87.4387 125.033 87.8954C125.398 88.2608 125.398 88.7175 125.307 89.1742C125.216 89.5395 125.216 89.9962 125.124 90.3616C125.124 90.8183 124.576 91.0923 124.12 91.0923C123.663 91.001 123.389 90.5443 123.48 90.0876Z" fill="white"/>
<path d="M245.063 146.065C242.232 153.007 234.833 159.31 227.709 156.935C223.964 155.656 221.315 152.368 218.575 149.536C215.104 146.065 210.994 143.142 206.427 141.042C200.124 138.119 193.091 136.657 187.062 133.095C181.034 129.624 175.919 122.956 177.198 116.106C177.563 114.279 178.111 112.543 178.933 110.991C180.851 107.246 183.957 104.231 187.702 101.857C199.85 94.3666 219.032 94.0926 228.714 100.852C235.838 105.784 241.684 112.635 244.881 120.673C246.342 124.509 247.256 128.619 247.347 132.638C247.621 137.297 246.89 141.864 245.063 146.065Z" fill="#F5F5F5"/>
<path d="M247.438 132.73C247.347 136.475 246.525 140.219 245.155 143.69C242.323 150.541 235.108 156.752 228.074 154.377C224.329 153.098 221.772 149.902 219.032 147.07C215.561 143.599 211.542 140.767 207.066 138.667C200.855 135.744 193.913 134.374 187.976 130.903C182.039 127.432 177.015 120.947 178.294 114.187C178.477 113.091 178.842 111.995 179.207 110.991C181.125 107.246 184.231 104.231 187.976 101.857C200.124 94.3666 219.306 94.0926 228.988 100.852C236.112 105.784 241.958 112.635 245.155 120.673C246.525 124.6 247.347 128.619 247.438 132.73Z" fill="white"/>
<path d="M226.887 119.211C226.613 120.307 226.065 121.403 225.243 122.317C222.959 124.783 219.032 124.509 215.652 123.87C210.172 122.865 197.201 119.668 194.827 113.822C194.461 113 194.461 112.178 194.644 111.356C194.827 110.534 195.101 109.803 195.466 109.072C200.033 100.121 217.114 101.034 223.233 106.972C224.969 108.616 226.156 110.808 226.796 113.091C227.435 115.101 227.435 117.202 226.887 119.211Z" fill="#FA9732"/>
<path d="M226.887 113.091C226.156 115.375 224.329 117.293 222.137 118.389C218.849 120.033 214.921 119.942 211.268 119.394C208.893 119.029 206.609 118.48 204.326 117.75C201.951 117.019 199.485 116.014 197.749 114.096C196.653 112.909 195.831 110.991 195.648 109.072C200.215 100.121 217.296 101.034 223.416 106.972C225.06 108.616 226.247 110.808 226.887 113.091Z" fill="#FA9F44"/>
<path opacity="0.1" d="M199.942 107.702C199.119 108.524 198.571 109.529 198.663 110.625C198.754 112.269 200.672 113 202.225 113.365C204.417 113.731 206.701 113.822 208.802 113.274C210.902 112.635 212.912 111.265 213.917 109.346C216.017 105.419 209.806 104.14 207.157 104.505C205.331 104.688 201.768 105.784 199.942 107.702Z" fill="white"/>
<path d="M231.271 157.152C231.18 156.604 230.997 156.239 230.632 155.873C230.175 155.417 229.718 155.234 229.079 155.143C228.531 155.051 227.983 155.417 227.618 155.873C227.344 156.239 227.252 156.604 227.252 157.061C227.252 157.152 227.161 157.335 227.161 157.426C227.161 157.7 227.161 157.974 227.252 158.248C227.344 158.705 227.8 159.161 228.166 159.344C228.622 159.618 229.079 159.618 229.627 159.527C230.723 159.344 231.454 158.157 231.271 157.152Z" fill="#F5F5F5"/>
<path d="M235.199 138.21C235.107 138.119 235.107 138.119 235.016 138.027C234.468 137.479 233.463 137.388 232.915 138.027C232.367 138.667 232.367 139.489 232.915 140.128C233.007 140.219 233.007 140.219 233.098 140.311C233.646 140.859 234.651 140.859 235.199 140.311C235.747 139.763 235.838 138.758 235.199 138.21Z" fill="#F5F5F5"/>
<path d="M237.482 154.594C235.747 154.594 235.747 157.243 237.482 157.243C239.218 157.243 239.218 154.594 237.482 154.594Z" fill="#F5F5F5"/>
<path d="M206.701 134.373C206.701 133.917 206.518 133.551 206.244 133.186C205.97 132.912 205.422 132.638 205.057 132.729C204.052 132.729 203.413 133.46 203.321 134.465C203.321 134.556 203.321 134.647 203.321 134.647C203.23 135.561 204.143 136.383 205.057 136.383C205.879 136.383 206.884 135.652 206.792 134.647C206.701 134.556 206.701 134.465 206.701 134.373Z" fill="#F5F5F5"/>
<path d="M198.663 131.451C198.663 131.177 198.48 130.994 198.298 130.811C197.841 130.446 197.293 130.446 196.836 130.811C196.653 130.994 196.471 131.177 196.471 131.451C196.379 132.181 196.745 132.912 197.567 132.912C197.841 132.912 198.206 132.821 198.389 132.547C198.663 132.273 198.663 131.907 198.663 131.451Z" fill="#F5F5F5"/>
<path d="M186.24 108.981C186.24 108.799 186.149 108.707 186.058 108.525C186.058 108.251 185.966 107.977 185.784 107.702C185.418 107.154 184.688 107.063 184.048 107.337C183.317 107.702 182.861 108.525 183.043 109.438C183.226 109.986 183.592 110.351 184.14 110.534C184.596 110.717 185.053 110.534 185.418 110.351C186.058 110.169 186.332 109.438 186.24 108.981Z" fill="#F5F5F5"/>
<path d="M235.929 109.712C235.564 109.346 235.016 109.255 234.468 109.346C234.377 109.346 234.285 109.346 234.285 109.346C233.646 109.438 233.189 110.168 233.189 110.717C233.189 111.356 233.646 111.995 234.285 112.087C234.377 112.087 234.468 112.087 234.468 112.087C235.381 112.269 236.386 111.63 236.386 110.625C236.295 110.443 236.203 109.986 235.929 109.712Z" fill="#F5F5F5"/>
<path d="M238.122 113.183C237.208 113.183 237.208 114.553 238.122 114.553C239.035 114.553 239.035 113.183 238.122 113.183Z" fill="#F5F5F5"/>
<path d="M247.922 262.98C246.004 266.725 242.167 269.374 238.057 270.378C234.129 271.383 230.293 270.744 226.457 269.556C226.274 269.465 226.091 269.465 226 269.374C226.091 269.191 226.091 269.008 226.183 268.917C227.918 263.893 231.024 259.326 235.043 255.855C238.97 252.567 243.629 250.284 248.196 248C249.931 252.841 250.205 258.687 247.922 262.98Z" fill="#AEDC90"/>
<path d="M247.922 262.98C246.004 266.725 242.167 269.374 238.057 270.378C234.129 271.383 230.293 270.744 226.457 269.556C226.274 269.465 226.091 269.465 226 269.374C245.455 264.533 248.196 248 248.196 248C249.931 252.841 250.205 258.687 247.922 262.98Z" fill="#7CA661"/>
<path d="M245.273 255.947C243.446 259.692 239.975 262.889 236.595 265.172C233.581 267.182 230.11 268.826 226.457 269.557C226.274 269.465 226.091 269.465 226 269.374C226.091 269.191 226.091 269.009 226.183 268.917C229.836 268.004 233.216 266.725 236.321 264.533C238.057 263.345 239.701 261.884 241.162 260.331C242.533 258.87 243.537 257.226 244.725 255.582C244.907 255.308 245.364 255.582 245.273 255.947Z" fill="#39700B"/>
<path d="M97.3223 14.4318C98.2357 18.5421 101.159 22.1043 104.903 24.2052C108.466 26.2147 112.302 26.58 116.321 26.3973C116.504 26.3973 116.686 26.3973 116.778 26.3973C116.778 26.2147 116.778 26.032 116.778 25.8493C116.412 20.5516 114.586 15.3452 111.663 10.9608C108.74 6.75918 104.812 3.28825 100.976 0C98.053 4.20165 96.2262 9.77341 97.3223 14.4318Z" fill="#AEDC90"/>
<path d="M97.3223 14.4318C98.2357 18.5421 101.159 22.1043 104.903 24.2052C108.466 26.2147 112.302 26.58 116.321 26.3973C116.504 26.3973 116.686 26.3973 116.778 26.3973C99.2404 16.6239 100.885 0 100.885 0C98.053 4.20165 96.2262 9.77341 97.3223 14.4318Z" fill="#7CA661"/>
<path d="M101.707 8.40303C102.529 12.5133 104.995 16.5323 107.644 19.6379C110.018 22.3781 112.941 24.8443 116.23 26.4884C116.412 26.4884 116.595 26.4884 116.686 26.4884C116.686 26.3057 116.686 26.123 116.686 25.9404C113.398 24.1136 110.475 22.0127 108.009 19.0898C106.639 17.4457 105.451 15.7103 104.447 13.7921C103.533 12.0566 102.894 10.1385 102.255 8.31169C102.163 7.85499 101.615 8.03767 101.707 8.40303Z" fill="#39700B"/>
<path d="M200.845 167.944C200.389 170.228 198.745 172.055 196.735 173.242C194.817 174.338 192.716 174.521 190.524 174.43C190.433 174.43 190.341 174.43 190.25 174.43C190.25 174.338 190.25 174.247 190.25 174.156C190.433 171.233 191.437 168.492 193.082 166.026C194.634 163.743 196.735 161.916 198.836 160.089C200.389 162.373 201.393 165.387 200.845 167.944Z" fill="#AEDC90"/>
<path d="M200.845 167.944C200.389 170.228 198.745 172.055 196.735 173.242C194.817 174.338 192.716 174.521 190.524 174.43C190.433 174.43 190.341 174.43 190.25 174.43C199.749 169.132 198.836 160.089 198.836 160.089C200.389 162.373 201.393 165.387 200.845 167.944Z" fill="#7CA661"/>
<path d="M198.471 164.656C198.014 166.848 196.735 169.041 195.274 170.685C193.995 172.146 192.442 173.516 190.616 174.43C190.524 174.43 190.433 174.43 190.342 174.43C190.342 174.338 190.342 174.247 190.342 174.156C192.077 173.151 193.721 172.055 195 170.411C195.731 169.497 196.37 168.584 196.918 167.579C197.466 166.574 197.74 165.57 198.105 164.565C198.197 164.382 198.471 164.474 198.471 164.656Z" fill="#39700B"/>
<path d="M44.9395 141.332C42.93 138.866 41.2859 135.943 39.8244 133.02C37.1756 127.996 34.618 123.064 31.9692 118.04C25.8494 106.349 19.6382 94.4744 15.3452 81.8695C14.0665 78.0332 12.057 74.9276 11.4176 71C26.032 91.9169 37.1756 116.213 44.9395 141.332Z" fill="#7CA661"/>
<path d="M47.1316 145.899C42.7472 138.592 38.0889 131.559 33.0652 124.708C30.7817 121.603 28.4068 118.406 25.4839 115.848C22.3784 113.108 18.7248 111.098 15.4365 108.724C9.59072 104.431 4.74969 98.8589 0 93.2871C6.30248 93.3784 12.0569 95.8446 17.0806 99.6809C22.1043 103.609 26.1233 108.541 29.8683 113.565C31.9691 116.396 33.9786 119.228 35.6227 122.333C36.4448 124.16 46.8576 141.332 47.1316 145.899Z" fill="#AEDC90"/>
<path d="M38.5457 132.472C38.5457 132.472 40.9205 132.929 41.7426 131.833C41.7426 131.833 51.1506 148.639 50.0545 152.841C48.9585 156.951 46.4009 154.851 46.4923 152.293C46.5836 149.735 41.5599 136.856 38.5457 132.472Z" fill="white"/>
<path d="M150.645 39.8887C151.833 40.8935 153.111 41.8069 154.39 42.8116C157.404 45.0038 160.419 47.196 163.524 49.3881C165.716 50.9409 168 52.585 170.923 52.9504C174.211 53.3158 177.682 52.6764 180.788 53.4071C181.427 51.4889 179.052 50.5755 177.499 49.9362C175.581 49.2054 173.48 48.7487 171.745 47.6527C169.096 46.0085 167.726 43.177 166.082 40.5281C164.712 38.3359 163.159 36.3265 161.423 34.4997C160.145 33.1295 158.957 31.4854 157.222 30.6634C155.212 29.6586 153.294 30.572 151.193 32.3075C149.732 33.4949 148.636 35.139 148.636 36.6918C148.636 37.9706 149.64 38.9753 150.645 39.8887Z" fill="#EE6D6D"/>
<path d="M150.645 39.8886C151.833 40.8934 153.111 41.8068 154.39 42.8115C157.404 45.0037 160.419 47.1958 163.524 49.388C165.716 50.9408 168 52.5849 170.923 52.9503C174.211 53.3156 177.682 52.6763 180.788 53.407C180.605 53.3156 177.865 51.4888 174.211 51.4888C170.466 51.4888 169.37 52.0369 163.89 47.4699C158.409 42.9028 147.814 37.6051 151.193 32.3074C149.732 33.4948 148.636 35.1389 148.636 36.6917C148.636 37.9705 149.64 38.9752 150.645 39.8886Z" fill="#DA5858"/>
<path d="M151.011 30.5724C150.554 30.4811 149.915 30.3897 149.549 30.7551C149.275 30.9378 149.184 31.3031 149.184 31.5772C149.184 31.8512 149.275 32.1252 149.367 32.3992C149.641 32.8559 149.915 33.3126 150.28 33.7693C150.372 33.8607 150.372 33.8607 150.463 33.952C150.554 33.952 150.737 33.8607 150.828 33.8607C151.468 33.4953 153.02 32.4906 153.02 31.6685C152.929 30.8464 151.559 30.6638 151.011 30.5724Z" fill="#AEDC90"/>
<path d="M145.348 28.0145C147.722 28.4712 149.641 30.2067 151.011 31.7595C151.285 32.0335 150.737 32.4902 150.463 32.2162C149.641 31.3941 148.818 30.5721 147.814 29.9327C146.9 29.3846 145.896 28.9279 145.074 28.3799C144.891 28.2886 145.074 27.9232 145.348 28.0145Z" fill="#AEDC90"/>
<path d="M168.274 50.2101C167.361 49.3881 166.173 48.9314 165.077 48.2006C163.798 47.3786 162.702 46.3738 161.606 45.4604C161.15 45.0951 160.51 45.6431 160.967 46.0998C161.88 47.1959 163.068 48.018 164.255 48.84C165.351 49.5707 166.63 50.4842 168 50.7582C168.183 50.7582 168.548 50.3928 168.274 50.2101Z" fill="white"/>
<path d="M171.106 51.0323C170.74 51.0323 170.283 50.941 169.918 51.0323C169.644 51.0323 169.553 51.3977 169.735 51.5803C170.192 51.8544 170.649 52.037 171.197 51.9457C171.38 51.9457 171.562 51.8544 171.562 51.6717C171.745 51.215 171.38 51.0323 171.106 51.0323Z" fill="white"/>
<path d="M109.318 107.867C108.039 110.333 105.847 112.525 102.467 114.078C78.8102 125.039 73.3298 86.128 81.5504 75.7152C82.0071 75.1671 82.4638 74.7104 83.0118 74.2537C92.9679 66.9465 116.716 93.3439 109.318 107.867Z" fill="#F5F5F5"/>
<path d="M109.318 107.867C107.948 109.602 106.121 111.155 103.563 112.342C81.185 122.755 75.0652 88.2285 81.5504 75.8062C82.0071 75.2582 82.4638 74.8015 83.0118 74.3448C92.9679 66.9462 116.716 93.3435 109.318 107.867Z" fill="white"/>
<path d="M105.116 102.569C104.385 107.41 98.2654 110.698 93.6984 109.602C90.7755 108.872 88.218 106.771 87.0306 104.031C86.6652 103.209 86.4825 102.295 86.3912 101.473C86.0258 96.1754 90.9582 93.0698 95.7992 93.0698C98.5395 93.0698 101.371 94.4399 103.289 96.6321C104.659 98.2762 105.481 100.377 105.116 102.569Z" fill="#FA9732"/>
<path d="M103.655 100.285C102.924 105.126 96.804 108.415 92.1457 107.319C90.1362 106.862 88.3094 105.675 86.9393 104.122C86.5739 103.3 86.3912 102.386 86.2999 101.564C85.9345 96.2665 90.8669 93.1609 95.7079 93.1609C98.4481 93.1609 101.28 94.531 103.198 96.7232C103.655 97.7279 103.837 99.0067 103.655 100.285Z" fill="#FA9F44"/>
<path opacity="0.1" d="M93.8808 96.8146C93.5155 95.0791 91.4147 94.8964 90.2272 95.8098C88.4004 97.3626 86.7563 101.656 89.4052 103.208C90.8666 104.03 92.9674 102.934 93.6068 101.564C94.3375 100.194 94.1549 98.3674 93.8808 96.8146Z" fill="white"/>
<path d="M80.0938 199.822C82.3773 210.965 89.0451 220.556 95.5303 229.873C98.0878 233.526 100.828 238.093 104.573 240.742C105.669 239.372 100.737 232.522 99.8232 230.969C97.8138 227.407 95.7129 223.936 93.5208 220.465C89.2278 213.523 84.7521 206.672 80.0938 199.822Z" fill="#7CA661"/>
<path d="M95.1651 223.387C93.3383 216.719 92.3335 209.778 89.502 203.384C97.6312 214.436 103.568 226.676 106.674 240.651C104.482 239.555 102.838 238.824 101.376 236.814C98.2706 232.978 96.4438 228.137 95.1651 223.387Z" fill="#AEDC90"/>
<path d="M82.9255 220.556C85.4831 225.123 88.5886 229.325 92.4249 232.887C94.8911 235.17 103.02 242.021 106.583 240.742C103.934 236.906 98.3621 232.796 94.8911 229.781C91.0548 226.584 87.0358 223.479 82.9255 220.556Z" fill="#AEDC90"/>
<path d="M120.101 244.67C120.283 252.89 108.683 257.549 102.198 255.356C99.3665 254.443 97.5397 252.251 97.9964 248.415C98.4531 244.67 100.189 241.016 103.02 238.641C105.943 236.266 109.962 235.17 113.616 236.358C117.178 237.545 120.009 240.925 120.101 244.67Z" fill="#EA7273"/>
<path d="M120.101 244.67C120.283 252.891 108.683 257.549 102.198 255.357C102.381 255.265 102.655 255.174 102.929 254.991C106.034 253.895 109.049 253.621 111.88 251.703C115.168 249.42 117.543 245.309 116.447 241.473C115.899 239.555 114.62 238.002 113.524 236.358C117.178 237.545 120.009 240.925 120.101 244.67Z" fill="#EA6061"/>
<path d="M100.463 250.059C100.645 250.333 100.828 250.607 101.102 250.79C101.467 251.064 102.016 251.155 102.564 251.064C103.934 250.881 105.03 249.876 105.486 248.598C105.943 247.319 105.76 245.857 105.121 244.761C104.208 243.117 102.107 242.295 100.828 244.031C99.5493 245.583 99.458 248.324 100.463 250.059Z" fill="#EA8889"/>
<path d="M107.587 240.651C107.313 240.194 106.765 240.011 106.217 240.011C105.852 240.011 105.304 240.103 105.029 240.377C104.664 240.651 104.39 241.199 104.573 241.747C104.664 242.386 105.03 242.843 105.669 243.026C106.217 243.208 106.856 243.117 107.313 242.66C107.861 242.204 107.952 241.29 107.587 240.651Z" fill="#EA8889"/>
<path d="M106.948 243.574C106.948 243.574 106.856 243.574 106.765 243.574H106.674C106.582 243.574 106.491 243.574 106.4 243.574C106.4 243.574 106.308 243.574 106.308 243.665C106.034 243.756 105.943 244.03 105.852 244.304C105.852 244.487 105.852 244.67 105.852 244.852V244.944C105.943 245.127 106.126 245.309 106.308 245.401C106.4 245.492 106.582 245.492 106.674 245.492C107.222 245.675 107.77 245.218 107.861 244.578C107.952 244.122 107.496 243.574 106.948 243.574Z" fill="#EA8889"/>
<path d="M112.611 252.799C112.793 253.621 114.255 253.53 114.985 253.713C115.99 253.987 116.63 254.991 116.63 255.996C116.63 256.91 116.173 257.823 116.63 258.554C117.086 259.193 118.091 259.193 118.822 259.102C118.091 259.102 117.36 258.462 117.178 257.732C116.995 257.001 117.36 256.179 117.452 255.448C117.634 254.352 117.36 253.073 116.63 252.251C115.808 251.429 112.793 250.516 112.519 252.342C112.611 252.617 112.611 252.708 112.611 252.799Z" fill="#EA6061"/>
<path d="M117.909 246.04C117.635 246.497 117.635 246.954 117.452 247.41C117.269 248.05 116.904 248.689 116.539 249.329C115.808 250.425 114.895 251.155 113.798 251.977C113.524 252.16 113.707 252.617 114.072 252.434C115.351 251.886 116.356 250.79 117.087 249.694C117.726 248.78 118.639 247.136 118.274 246.04C118.183 245.858 118 245.949 117.909 246.04Z" fill="white"/>
<path d="M118 242.295C117.909 242.204 117.817 242.204 117.726 242.204H117.635C117.543 242.204 117.543 242.204 117.543 242.295C117.361 242.66 117.635 242.934 117.817 243.3C118 243.756 118 244.213 118 244.761C118 245.126 118.548 245.126 118.548 244.761C118.548 243.848 118.365 243.117 118 242.295Z" fill="white"/>
<path d="M257.507 19C255.498 19 255.498 22.1056 257.507 22.1056C259.517 22.1056 259.517 19 257.507 19Z" fill="#FFF1CE"/>
<path d="M179.016 87.0115H178.925C178.377 87.1028 177.92 87.7422 178.012 88.2902C178.012 88.8383 178.377 89.4777 178.925 89.569H179.016C179.839 89.7517 180.661 89.2036 180.661 88.2902C180.661 87.3768 179.839 86.9201 179.016 87.0115Z" fill="#FFF1CE"/>
<path d="M68.0552 166C65.3149 166 65.3149 170.293 68.0552 170.293C70.7954 170.293 70.7954 166 68.0552 166Z" fill="#FFF1CE"/>
<path d="M17.7544 198.005C17.1151 197.365 16.293 197 15.3796 197C14.4662 197 13.5528 197.365 13.0047 198.005C12.4567 198.644 12 199.558 12 200.38C12 201.293 12.3654 202.206 13.0047 202.754C13.6441 203.394 14.4662 203.759 15.3796 203.759C16.293 203.759 17.2064 203.394 17.7544 202.754C18.3938 202.206 18.7592 201.202 18.7592 200.38C18.6678 199.558 18.3938 198.644 17.7544 198.005Z" fill="#FFF1CE"/>
<path d="M63.4694 217.542C62.0992 217.542 60.7291 218.729 60.8205 220.19C60.9118 221.652 62.0079 222.839 63.4694 222.839C64.8395 222.839 66.2096 221.652 66.1182 220.19C66.1182 218.729 65.0221 217.542 63.4694 217.542Z" fill="#FFF1CE"/>
<path d="M239.025 177.626C238.66 177.261 238.021 176.895 237.473 176.987C237.199 176.987 236.925 176.987 236.651 177.078C236.285 177.169 235.92 177.443 235.646 177.717C234.824 178.448 234.824 180.001 235.646 180.64C235.92 180.914 236.285 181.188 236.651 181.28C236.925 181.371 237.199 181.371 237.473 181.371C238.021 181.462 238.66 181.097 239.025 180.732C239.391 180.366 239.665 179.727 239.665 179.179C239.665 178.631 239.482 177.991 239.025 177.626Z" fill="#FFF1CE"/>
<path d="M295.055 183C292.315 183 292.315 187.293 295.055 187.293C297.795 187.202 297.795 183 295.055 183Z" fill="#FFF1CE"/>
<path d="M297.261 103C294.246 103 294.246 107.658 297.261 107.658C300.275 107.658 300.275 103 297.261 103Z" fill="#FFF1CE"/>
<path d="M60.1813 43.5955C57.1671 43.5955 57.1671 48.2538 60.1813 48.2538C63.1956 48.2538 63.1956 43.5955 60.1813 43.5955Z" fill="#FFF1CE"/>
<path d="M288.974 61.3167C289.248 59.6726 290.618 55.7449 292.171 55.1056C291.714 59.4899 290.435 65.9751 289.796 70.3594C290.892 66.6144 292.08 62.9608 293.358 59.3986C294.363 56.7497 295.368 54.0095 297.469 52C296.647 58.4852 294.82 64.9703 292.171 70.9074C294.363 67.7105 296.829 64.7876 299.478 61.9561C299.935 62.1388 292.08 76.3879 289.157 75.8398C285.046 75.2004 288.517 63.6916 288.974 61.3167Z" fill="#AEDC90"/>
<path d="M293.084 82.873C292.353 86.2526 288.974 88.4447 286.051 90.3629C277.648 95.8433 264.038 96.3 256 102.42C256.639 99.2229 258.923 96.4827 261.48 94.4732C264.038 92.4637 267.052 90.9109 269.701 88.9928C273.263 86.2526 276.46 82.9643 278.561 78.9453C281.484 73.4649 287.878 72.0948 291.257 74.9264C293.084 76.2965 293.998 78.9453 293.084 82.873Z" fill="#EDAD61"/>
<path d="M293.084 82.8731C292.353 86.2527 288.974 88.4448 286.051 90.363C277.648 95.8434 264.038 96.3001 256 102.42C256 102.42 260.932 96.0261 271.711 92.4638C281.667 89.1756 293.45 80.8636 291.257 75.0178C293.084 76.2966 293.998 78.9455 293.084 82.8731Z" fill="#F5B76E"/>
<path d="M271.345 87.3485C270.98 87.1659 270.615 87.7139 270.98 87.8966C271.893 88.3533 272.533 89.084 272.715 90.1801C272.807 90.6368 273.446 90.4541 273.355 89.9974C273.263 88.81 272.441 87.8966 271.345 87.3485Z" fill="#D9831B"/>
<path d="M273.081 84.974C272.715 84.7913 272.35 85.3394 272.715 85.5221C273.811 85.9788 274.725 86.8008 275.181 87.9882C275.364 88.3536 275.912 88.0796 275.73 87.6229C275.273 86.4355 274.359 85.5221 273.081 84.974Z" fill="#D9831B"/>
<path d="M278.47 84.4258C277.921 83.5124 277.008 82.9643 276.003 82.6903C275.547 82.599 275.455 83.2383 275.821 83.3297C276.643 83.5124 277.373 84.0604 277.83 84.7911C278.104 85.1565 278.744 84.7911 278.47 84.4258Z" fill="#D9831B"/>
<path d="M280.479 81.2292C280.023 80.4072 279.201 79.8591 278.196 79.8591C277.739 79.8591 277.739 80.4985 278.196 80.4985C278.927 80.4985 279.566 80.9552 279.931 81.5946C280.114 81.96 280.753 81.5946 280.479 81.2292Z" fill="#D9831B"/>
<path d="M268.605 89.8149C268.331 89.4496 267.783 89.8149 268.057 90.1803C268.422 90.637 268.605 91.185 268.605 91.8244C268.605 92.2811 269.244 92.2811 269.244 91.8244C269.244 91.0937 269.062 90.4543 268.605 89.8149Z" fill="#D9831B"/>
</svg>
