<svg width="332" height="314" viewBox="0 0 332 314" fill="none" xmlns="http://www.w3.org/2000/svg">
<path d="M82.4 229.457H73.4V270.557H82.4V229.457Z" fill="#D2953D"/>
<path d="M79.5 229.457H73.4V270.557H79.5V229.457Z" fill="#EDC75E"/>
<path d="M90.1 233.957H81.1V275.057H90.1V233.957Z" fill="#D2953D"/>
<path d="M87.2 233.957H81.1V275.057H87.2V233.957Z" fill="#EDC75E"/>
<path d="M102.43 230.486L93.5536 229L86.768 269.537L95.6447 271.023L102.43 230.486Z" fill="#D2953D"/>
<path d="M99.5444 230.047L93.528 229.04L86.7423 269.577L92.7588 270.584L99.5444 230.047Z" fill="#EDC75E"/>
<path d="M105.856 235.173L96.8577 235.369L97.7498 276.46L106.748 276.265L105.856 235.173Z" fill="#D2953D"/>
<path d="M102.955 235.204L96.8567 235.337L97.7487 276.428L103.847 276.296L102.955 235.204Z" fill="#EDC75E"/>
<path d="M114.455 231.173L105.457 231.368L106.35 272.46L115.348 272.265L114.455 231.173Z" fill="#D2953D"/>
<path d="M111.555 231.204L105.456 231.336L106.349 272.428L112.448 272.296L111.555 231.204Z" fill="#EDC75E"/>
<path d="M123.61 238.135L114.659 237.201L110.392 278.079L119.344 279.013L123.61 238.135Z" fill="#D2953D"/>
<path d="M120.709 237.887L114.642 237.253L110.376 278.131L116.443 278.765L120.709 237.887Z" fill="#EDC75E"/>
<path d="M115.6 258.156C115.6 261.356 107.2 263.956 96.9 263.956C86.6 263.956 78.2 261.356 78.2 258.156H71L75.2 313.357H118.7L122.9 258.156H115.6Z" fill="#DB5955"/>
<path d="M217.9 298.856C218.6 295.656 218.9 292.356 218.9 288.956C218.9 262.856 201.9 244.856 175.8 244.856C149.7 244.856 118.2 262.856 118.2 288.956C118.2 292.356 107.6 295.656 108.3 298.856H217.9Z" fill="#935A40"/>
<path d="M235.6 282.056C236.9 281.556 237.8 280.257 237.8 278.757C237.8 276.757 236.2 275.156 234.2 275.156C232.2 275.156 230.6 276.757 230.6 278.757C230.6 278.857 230.6 278.956 230.7 279.056H198.9V284.956H230.7C230.7 285.056 230.6 285.156 230.6 285.257C230.6 287.257 232.2 288.857 234.2 288.857C236.2 288.857 237.8 287.257 237.8 285.257C237.8 283.857 236.9 282.656 235.6 282.056Z" fill="white"/>
<path d="M222.1 282.056C222.1 290.256 207.1 296.956 198.9 296.956C190.7 296.956 184 290.256 184 282.056C184 273.856 190.7 267.156 198.9 267.156C207.1 267.156 222.1 273.856 222.1 282.056Z" fill="#BC7253"/>
<path d="M138.3 275.257C138.3 275.257 127.9 280.457 130 287.057C131.4 291.457 163.4 289.357 164.8 285.057C166.2 280.857 138.6 279.857 138.6 279.857L138.3 275.257Z" fill="#BC7253"/>
<path d="M123.8 302.857C127.556 302.857 130.6 299.812 130.6 296.057C130.6 292.301 127.556 289.257 123.8 289.257C120.044 289.257 117 292.301 117 296.057C117 299.812 120.044 302.857 123.8 302.857Z" fill="#DB5955"/>
<path d="M122.2 298.157C124.464 298.157 126.3 296.321 126.3 294.057C126.3 291.792 124.464 289.957 122.2 289.957C119.936 289.957 118.1 291.792 118.1 294.057C118.1 296.321 119.936 298.157 122.2 298.157Z" fill="#DD7260"/>
<path d="M139 296.957C139 300.157 136.4 302.857 133.1 302.857C129.8 302.857 127.2 300.257 127.2 296.957C127.2 293.757 129.8 291.057 133.1 291.057C136.4 291.057 139 293.757 139 296.957Z" fill="#D2953D"/>
<path d="M131.8 299.257C133.678 299.257 135.2 297.734 135.2 295.857C135.2 293.979 133.678 292.457 131.8 292.457C129.922 292.457 128.4 293.979 128.4 295.857C128.4 297.734 129.922 299.257 131.8 299.257Z" fill="#EDC75E"/>
<path d="M145.8 302.857C149.556 302.857 152.6 299.812 152.6 296.057C152.6 292.301 149.556 289.257 145.8 289.257C142.044 289.257 139 292.301 139 296.057C139 299.812 142.044 302.857 145.8 302.857Z" fill="#DB5955"/>
<path d="M144.2 298.157C146.464 298.157 148.3 296.321 148.3 294.057C148.3 291.792 146.464 289.957 144.2 289.957C141.936 289.957 140.1 291.792 140.1 294.057C140.1 296.321 141.936 298.157 144.2 298.157Z" fill="#DD7260"/>
<path d="M155.1 302.857C158.358 302.857 161 300.215 161 296.957C161 293.698 158.358 291.057 155.1 291.057C151.841 291.057 149.2 293.698 149.2 296.957C149.2 300.215 151.841 302.857 155.1 302.857Z" fill="#D2953D"/>
<path d="M153.8 299.257C155.678 299.257 157.2 297.734 157.2 295.857C157.2 293.979 155.678 292.457 153.8 292.457C151.922 292.457 150.4 293.979 150.4 295.857C150.4 297.734 151.922 299.257 153.8 299.257Z" fill="#EDC75E"/>
<path d="M167.8 302.857C171.556 302.857 174.6 299.812 174.6 296.057C174.6 292.301 171.556 289.257 167.8 289.257C164.044 289.257 161 292.301 161 296.057C161 299.812 164.044 302.857 167.8 302.857Z" fill="#DB5955"/>
<path d="M166.1 298.157C168.364 298.157 170.2 296.321 170.2 294.057C170.2 291.792 168.364 289.957 166.1 289.957C163.836 289.957 162 291.792 162 294.057C162 296.321 163.836 298.157 166.1 298.157Z" fill="#DD7260"/>
<path d="M177.1 302.857C180.358 302.857 183 300.215 183 296.957C183 293.698 180.358 291.057 177.1 291.057C173.841 291.057 171.2 293.698 171.2 296.957C171.2 300.215 173.841 302.857 177.1 302.857Z" fill="#D2953D"/>
<path d="M175.7 299.257C177.578 299.257 179.1 297.734 179.1 295.857C179.1 293.979 177.578 292.457 175.7 292.457C173.822 292.457 172.3 293.979 172.3 295.857C172.3 297.734 173.822 299.257 175.7 299.257Z" fill="#EDC75E"/>
<path d="M189.8 302.857C193.556 302.857 196.6 299.812 196.6 296.057C196.6 292.301 193.556 289.257 189.8 289.257C186.044 289.257 183 292.301 183 296.057C183 299.812 186.044 302.857 189.8 302.857Z" fill="#DB5955"/>
<path d="M188.1 298.157C190.364 298.157 192.2 296.321 192.2 294.057C192.2 291.792 190.364 289.957 188.1 289.957C185.836 289.957 184 291.792 184 294.057C184 296.321 185.836 298.157 188.1 298.157Z" fill="#DD7260"/>
<path d="M204.9 296.957C204.9 300.157 202.3 302.857 199 302.857C195.8 302.857 193.1 300.257 193.1 296.957C193.1 293.757 195.7 291.057 199 291.057C202.3 291.157 204.9 293.757 204.9 296.957Z" fill="#D2953D"/>
<path d="M197.7 299.257C199.578 299.257 201.1 297.734 201.1 295.857C201.1 293.979 199.578 292.457 197.7 292.457C195.822 292.457 194.3 293.979 194.3 295.857C194.3 297.734 195.822 299.257 197.7 299.257Z" fill="#EDC75E"/>
<path d="M211.7 302.857C215.456 302.857 218.5 299.812 218.5 296.057C218.5 292.301 215.456 289.257 211.7 289.257C207.944 289.257 204.9 292.301 204.9 296.057C204.9 299.812 207.944 302.857 211.7 302.857Z" fill="#DB5955"/>
<path d="M210.1 298.157C212.364 298.157 214.2 296.321 214.2 294.057C214.2 291.792 212.364 289.957 210.1 289.957C207.836 289.957 206 291.792 206 294.057C206 296.321 207.836 298.157 210.1 298.157Z" fill="#DD7260"/>
<path d="M221 302.857C224.258 302.857 226.9 300.215 226.9 296.957C226.9 293.698 224.258 291.057 221 291.057C217.742 291.057 215.1 293.698 215.1 296.957C215.1 300.215 217.742 302.857 221 302.857Z" fill="#D2953D"/>
<path d="M219.7 299.257C221.578 299.257 223.1 297.734 223.1 295.857C223.1 293.979 221.578 292.457 219.7 292.457C217.822 292.457 216.3 293.979 216.3 295.857C216.3 297.734 217.822 299.257 219.7 299.257Z" fill="#EDC75E"/>
<path d="M225 313.657H108.1C100 313.657 93.4 307.057 93.4 298.957H239.7C239.7 307.057 233.1 313.657 225 313.657Z" fill="white"/>
<path d="M82.6416 178.615C73.7848 176.791 67.0082 174.076 58.97 169.133C51.6372 164.58 50.8056 156.168 57.289 150.47C57.3262 150.377 57.4562 150.321 57.4562 150.321C58.2922 149.579 59.3508 149.357 60.4091 149.673C72.4406 152.984 83.8587 157.558 94.849 163.468C95.833 163.97 96.4082 164.954 96.5377 165.976C96.5005 166.068 96.5561 166.198 96.5561 166.198C97.5362 174.778 91.0899 180.383 82.6416 178.615Z" fill="#EADFD1"/>
<path d="M96.7418 166.273C96.779 166.18 96.7233 166.05 96.7233 166.05C96.631 164.936 96.0186 164.044 95.0347 163.542C84.0443 157.632 72.6262 153.059 60.5948 149.747C60.3163 149.636 59.9078 149.58 59.5549 149.654C59.5177 149.747 59.5177 149.747 59.4805 149.84C59.2385 151.251 59.1449 152.829 59.2741 154.389C59.3108 155.373 59.8303 156.228 60.5914 156.748C72.0264 164.776 79.917 167.936 93.2676 169.837C94.1774 169.986 95.0503 169.689 95.7563 169.002C96.0907 168.705 96.4623 168.315 96.7967 168.019C96.8341 167.387 96.7415 166.811 96.7418 166.273Z" fill="#D1C3B4"/>
<path d="M66.4099 143.566C62.8824 142.153 58.8889 144.324 58.3486 148.093C58.1065 149.505 58.0129 151.083 58.1421 152.643C58.1788 153.627 58.6984 154.482 59.4595 155.002C70.8945 163.029 78.785 166.19 92.1356 168.09C93.0454 168.239 93.9183 167.943 94.6243 167.256C96.6307 165.474 98.0801 163.469 99.0653 161.279C100.051 159.088 98.9368 158.103 96.7653 155.725L66.4099 143.566Z" fill="#DB5955"/>
<path d="M96.7654 155.725C96.7654 155.725 91.9205 151.953 81.8018 148.439C78.0142 147.137 66.5028 143.604 66.5028 143.604C61.4341 142.004 59.3718 144.194 58.4974 147.722C58.2738 149.356 58.7 151.251 60.0365 152.217C72.1765 161.712 80.5509 162.588 95.257 164.601C95.9812 164.675 97.467 164.193 97.9873 163.432C98.3776 162.727 98.7679 162.021 99.1582 161.316C100.051 159.088 98.8443 157.528 96.7654 155.725Z" fill="#E18668"/>
<path d="M62.2625 156.879L61.1873 153.109C62.5821 148.82 68.3216 145.517 70.1418 144.738C69.2692 144.496 68.4337 144.161 67.8395 144.031C60.4098 148.057 59.8323 151.919 59.7951 152.012L60.3134 155.559C60.8888 156.005 61.5943 156.396 62.2625 156.879Z" fill="#F7E4D8"/>
<path d="M96.7653 155.725C96.7653 155.725 96.6725 155.688 96.524 155.521C91.2663 160.848 90.8378 163.8 90.7634 163.986L91.6342 167.997C91.8199 168.072 91.9499 168.016 92.1356 168.09C92.5441 168.146 92.9898 168.109 93.3426 168.035L92.5274 164.154C93.3085 161.666 95.6867 158.956 97.8418 156.803C97.4892 156.338 97.1923 156.004 96.7653 155.725Z" fill="#F7E4D8"/>
<path d="M76.3347 164.239L75.538 160.58C77.0628 156.236 83.2303 151.058 84.9951 149.61C84.1596 149.276 83.3242 148.941 82.4515 148.699C73.9432 155.956 73.2914 160.004 73.2542 160.097L73.6983 163.291C74.5338 163.625 75.4621 163.997 76.3347 164.239Z" fill="#F7E4D8"/>
<path d="M67.6289 157.197C69.0606 153.354 75.2279 148.714 78.1069 147.174C77.1414 146.895 76.0831 146.579 75.062 146.17C65.7931 151.83 65.4013 155.766 65.2341 155.915L65.6226 158.979C66.5693 159.573 67.4605 160.038 68.3144 160.596L67.6289 157.197Z" fill="#F7E4D8"/>
<path d="M84.1532 162.739C85.3805 159.137 89.7092 155.053 92.31 152.863C91.6045 152.473 90.899 152.083 90.0636 151.748C82.3725 158.578 81.8879 162.478 81.8135 162.663L82.5546 166.192C83.3345 166.396 84.2071 166.638 85.1169 166.787L84.1532 162.739Z" fill="#F7E4D8"/>
<path d="M57.7042 175.521C48.8474 173.697 42.0709 170.982 34.0326 166.039C26.6998 161.486 25.8682 153.073 32.3517 147.376C32.3888 147.283 32.5188 147.227 32.5188 147.227C33.3548 146.485 34.4134 146.263 35.4717 146.579C47.5032 149.89 58.9213 154.463 69.9116 160.374C70.8956 160.876 71.4708 161.86 71.6003 162.881C71.5631 162.974 71.6187 163.104 71.6187 163.104C72.5988 171.684 66.1525 177.289 57.7042 175.521Z" fill="#EADFD1"/>
<path d="M71.8044 163.179C71.8416 163.086 71.7859 162.956 71.7859 162.956C71.6936 161.842 71.0813 160.95 70.0973 160.448C59.107 154.538 47.6889 149.964 35.6574 146.653C35.3789 146.542 34.9704 146.486 34.6175 146.56C34.5804 146.653 34.5803 146.653 34.5432 146.746C34.3011 148.157 34.2075 149.735 34.3367 151.295C34.3734 152.279 34.893 153.134 35.6541 153.654C47.0891 161.681 54.9796 164.842 68.3302 166.742C69.24 166.891 70.113 166.595 70.8189 165.908C71.1533 165.611 71.5249 165.221 71.8593 164.924C71.8039 164.256 71.8042 163.717 71.8044 163.179Z" fill="#D1C3B4"/>
<path d="M41.4725 140.472C37.945 139.059 33.9515 141.23 33.4112 144.999C33.1691 146.41 33.0755 147.989 33.2048 149.549C33.2414 150.533 33.761 151.387 34.5221 151.908C45.9571 159.935 53.8476 163.096 67.1982 164.996C68.1081 165.145 68.981 164.848 69.6869 164.162C71.6933 162.38 73.1427 160.375 74.1279 158.184C75.1131 155.994 73.9994 155.009 71.8279 152.631L41.4725 140.472Z" fill="#DB5955"/>
<path d="M71.828 152.631C71.828 152.631 66.9832 148.859 56.8644 145.345C53.0769 144.043 41.5654 140.509 41.5654 140.509C36.4967 138.91 34.4344 141.1 33.56 144.628C33.3364 146.262 33.7626 148.156 35.0991 149.123C47.2391 158.617 55.6135 159.494 70.3196 161.507C71.0438 161.581 72.5296 161.099 73.0499 160.338C73.4402 159.633 73.8305 158.927 74.2208 158.222C75.1132 155.994 73.9069 154.433 71.828 152.631Z" fill="#E18668"/>
<path d="M37.3252 153.784L36.2499 150.014C37.6447 145.725 43.3842 142.423 45.2044 141.644C44.3318 141.402 43.4963 141.067 42.9021 140.937C35.4724 144.963 34.8949 148.825 34.8577 148.918L35.376 152.465C35.9514 152.911 36.6569 153.301 37.3252 153.784Z" fill="#F7E4D8"/>
<path d="M71.8279 152.631C71.8279 152.631 71.7351 152.594 71.5866 152.427C66.3289 157.754 65.9004 160.706 65.826 160.892L66.6969 164.903C66.8825 164.977 67.0126 164.922 67.1982 164.996C67.6067 165.052 68.0524 165.015 68.4053 164.941L67.59 161.06C68.3711 158.572 70.7493 155.862 72.9044 153.709C72.5518 153.244 72.2549 152.91 71.8279 152.631Z" fill="#F7E4D8"/>
<path d="M51.3974 161.145L50.6006 157.486C52.1254 153.142 58.2929 147.964 60.0577 146.516C59.2223 146.181 58.3868 145.847 57.5141 145.605C49.0058 152.862 48.354 156.909 48.3168 157.002L48.7609 160.196C49.5964 160.531 50.4319 160.866 51.3974 161.145Z" fill="#F7E4D8"/>
<path d="M42.6916 154.103C44.1232 150.26 50.2905 145.62 53.1695 144.08C52.2041 143.801 51.1458 143.485 50.1246 143.076C40.8557 148.735 40.4639 152.672 40.2967 152.82L40.6852 155.884C41.632 156.479 42.5231 156.944 43.377 157.501L42.6916 154.103Z" fill="#F7E4D8"/>
<path d="M59.2159 159.644C60.4432 156.042 64.7718 151.959 67.3726 149.769C66.6671 149.379 65.9617 148.989 65.1262 148.654C57.4352 155.484 56.9505 159.383 56.8761 159.569L57.6172 163.098C58.3971 163.302 59.2697 163.544 60.1796 163.693L59.2159 159.644Z" fill="#F7E4D8"/>
<path d="M102.427 159.609L93.6148 181.61C92.7224 183.838 98.1984 188.186 105.81 191.235C113.422 194.284 120.349 195.011 121.278 192.69L130.091 170.69L102.427 159.609Z" fill="#332C5E"/>
<path d="M97.2149 186.607C98.3102 187.369 99.4982 188.168 100.946 188.855L111.246 163.142L107.254 161.543L97.2149 186.607Z" fill="#474C52"/>
<path d="M113.954 170.905C121.182 173.8 128.075 173.571 129.348 170.392C130.621 167.214 125.793 162.29 118.564 159.394C111.335 156.498 104.443 156.728 103.17 159.907C101.897 163.085 106.725 168.009 113.954 170.905Z" fill="#F2F8FB"/>
<path d="M115.552 166.913C118.424 168.063 121.067 168.206 121.457 167.232C121.848 166.258 119.836 164.536 116.965 163.386C114.094 162.236 111.451 162.093 111.06 163.067C110.67 164.041 112.681 165.763 115.552 166.913Z" fill="#DD7260"/>
<path d="M118.044 160.694C125.47 163.668 129.163 168.164 128.42 170.021C127.713 171.784 121.901 172.58 114.474 169.605C107.048 166.631 103.355 162.135 104.098 160.279C104.842 158.422 110.617 157.719 118.044 160.694ZM118.713 159.023C111.101 155.974 103.803 156.174 102.427 159.609C101.051 163.044 106.193 168.227 113.805 171.276C121.417 174.325 128.715 174.125 130.091 170.69C131.466 167.255 126.418 162.109 118.713 159.023Z" fill="#332C5E"/>
<path d="M121.518 195.587C113.717 198.926 103.656 192.849 103.656 192.849C103.656 192.849 106.205 181.374 114.006 178.036C121.807 174.697 131.868 180.774 131.868 180.774C131.868 180.774 129.319 192.249 121.518 195.587Z" fill="#579485"/>
<path d="M83.3192 159.711L74.5068 181.712C73.6144 183.94 79.0903 188.288 86.7024 191.337C94.3144 194.386 101.241 195.114 102.17 192.793L110.983 170.792L83.3192 159.711Z" fill="#332C5E"/>
<path d="M110.333 170.532C109.068 173.688 102.179 173.945 94.9383 171.044C87.6975 168.144 82.8904 163.202 84.1546 160.046C85.4188 156.89 92.3083 156.633 99.549 159.533C106.79 162.434 111.597 167.375 110.333 170.532Z" fill="#F2F8FB"/>
<path d="M102.442 167.371C102.07 168.299 99.415 168.205 96.5372 167.053C93.6595 165.9 91.6734 164.135 92.0452 163.207C92.4542 162.186 95.0725 162.372 97.9502 163.525C100.735 164.641 102.814 166.443 102.442 167.371Z" fill="#DD7260"/>
<path d="M98.8984 160.889C106.325 163.863 110.018 168.359 109.274 170.216C108.531 172.072 102.755 172.775 95.3289 169.8C87.9025 166.826 84.2092 162.33 84.9529 160.474C85.6966 158.617 91.472 157.914 98.8984 160.889ZM99.5677 159.218C91.9557 156.169 84.6578 156.37 83.282 159.804C81.9062 163.239 87.0475 168.422 94.6595 171.471C102.272 174.52 109.57 174.32 110.945 170.885C112.321 167.45 107.273 162.304 99.5677 159.218Z" fill="#332C5E"/>
<path d="M106.416 205.589L30.6671 175.248C22.5908 172.013 18.6399 162.782 21.8749 154.706L127.051 196.834C123.686 204.966 114.493 208.824 106.416 205.589Z" fill="white"/>
<path d="M287.718 153.825C287.718 153.825 288.422 146.876 284.328 145.881C280.33 144.954 274.646 144.144 276.443 142.66C278.241 141.175 277.023 139.526 277.023 139.526L280.689 141.015C280.689 141.015 274.851 135.761 275.487 134.979C276.123 134.197 277.077 134.289 277.077 134.289C277.077 134.289 276.302 132.227 276.343 131.461C276.385 130.696 279.801 132.226 279.801 132.226L279.759 130.969L282.236 134.513L283.163 133.935C283.163 133.935 287.078 137.911 286.872 142.753C286.872 142.753 289.484 138.517 283.674 131.909C283.674 131.909 281.183 127.777 282.206 126.76L283.714 127.096L283.229 123.721C283.229 123.721 284.46 124.44 285.65 126.432C286.84 128.423 288.292 128.43 288.292 128.43C288.292 128.43 283.463 121.067 283.615 118.933L285.385 119.309C285.385 119.309 284.112 116.825 284.637 115.388L286.519 116.925C286.519 116.925 286.795 114.517 287.569 114.049L289.215 115.71C289.215 115.71 289.726 111.155 290.569 110.085C290.569 110.085 292.644 112.77 292.271 114.098L293.889 113.065L294.443 115.839L296.946 113.476C296.946 113.476 297.307 117.126 296.339 118.47L298.413 117.107C298.413 117.107 297.309 126.232 293.617 128.627C293.617 128.627 295.747 129.616 298.857 123.272C298.857 123.272 300.89 122.17 300.116 125.168C299.426 128.151 301.196 126.503 301.196 126.503C301.196 126.503 300.713 133.246 296.482 136.491C292.251 139.736 292.321 143.181 292.321 143.181C292.321 143.181 295.28 139.983 296.842 138.116C298.405 136.25 299.704 133.332 299.704 133.332L300.824 134.408L303.341 131.116C303.341 131.116 304.392 130.769 303.991 132.945C303.991 132.945 306.923 133.124 306.384 133.974C305.845 134.824 303.563 136.475 303.563 136.475L305.472 137.67C305.472 137.67 303.51 141.712 299.734 142.603L302.957 143.492L301.989 144.836C301.989 144.836 303.691 146.825 302.336 147.391C300.897 147.972 295.046 145.672 293.097 147.772C291.216 149.776 288.341 154.478 288.341 154.478L287.718 153.825Z" fill="#497C74"/>
<path d="M282.024 166.592C282.024 166.592 277.486 163.48 275.191 166.06C272.979 168.627 270.214 172.467 269.729 170.609C269.328 168.738 267.585 169.032 267.585 169.032L270.047 166.93C270.047 166.93 263.865 169.239 263.56 168.447C263.256 167.656 263.657 166.998 263.657 166.998C263.657 166.998 261.831 166.8 261.264 166.474C260.697 166.149 263.186 164.21 263.186 164.21L262.259 163.777L265.855 163.338L265.785 162.422C265.785 162.422 270.335 161.063 273.821 163.003C273.821 163.003 271.607 159.498 264.471 161.21C264.471 161.21 260.419 161.473 260.045 160.272L260.902 159.284L258.178 158.311C258.178 158.311 259.187 157.718 261.123 157.56C263.059 157.401 263.654 156.373 263.654 156.373C263.654 156.373 256.269 157.115 254.747 156.192L255.742 155.012C255.742 155.012 253.35 154.995 252.52 154.123L254.359 153.39C254.359 153.39 252.63 152.249 252.602 151.579L254.469 151.011C254.469 151.011 251.218 148.946 250.789 147.922C250.789 147.922 253.527 147.46 254.413 148.153L254.316 146.568L256.639 147.187L255.753 144.469C255.753 144.469 258.672 145.578 259.295 146.738L259.031 144.674C259.031 144.674 265.381 148.914 265.824 152.549C265.824 152.549 267.331 151.367 263.817 146.733C263.817 146.733 263.761 144.887 265.74 146.492C267.635 148.111 267.136 146.172 267.136 146.172C267.136 146.172 271.978 149.064 272.795 153.395C273.612 157.726 276.213 158.973 276.213 158.973C276.213 158.973 274.953 155.56 274.137 153.759C273.403 151.943 271.688 149.872 271.688 149.872L272.891 149.416L271.341 146.305C271.341 146.305 271.451 145.443 273.001 146.53C273.001 146.53 274.272 144.46 274.729 145.142C275.186 145.824 275.491 148.133 275.491 148.133L277.122 147.183C277.122 147.183 279.419 150.168 278.576 153.261L280.54 151.243L281.176 152.485C281.176 152.485 283.306 151.956 283.265 153.228C283.224 154.5 279.2 157.963 279.989 160.106C280.778 162.249 282.604 165.482 282.604 165.482L282.024 166.592Z" fill="#497C74"/>
<path d="M287.654 170.616C287.654 170.616 291.996 167.016 290.156 164.207C288.315 161.398 285.382 157.677 287.277 157.778C289.172 157.88 289.393 156.156 289.393 156.156L290.749 159.131C290.749 159.131 290.249 152.638 291.093 152.58C291.936 152.522 292.448 153.026 292.448 153.026C292.448 153.026 293.181 151.3 293.623 150.888C294.066 150.476 295.228 153.315 295.228 153.315L295.947 152.519L295.354 156.076L296.239 156.264C296.239 156.264 296.254 160.899 293.392 163.66C293.392 163.66 297.388 162.563 297.774 155.246C297.774 155.246 298.644 151.304 299.93 151.34L300.622 152.403L302.281 150.099C302.281 150.099 302.558 151.233 302.102 153.081C301.646 154.929 302.476 155.8 302.476 155.8C302.476 155.8 303.816 148.575 305.157 147.421L305.973 148.716C305.973 148.716 306.623 146.499 307.798 145.878L308.048 147.86C308.048 147.86 309.61 146.5 310.329 146.715L310.399 148.643C310.399 148.643 313.303 146.129 314.478 146.014C314.478 146.014 314.175 148.764 313.179 149.438L314.77 149.76L313.484 151.748L316.375 151.681C316.375 151.681 314.481 154.109 313.167 154.415L315.186 154.749C315.186 154.749 309.268 159.628 305.658 158.973C305.658 158.973 306.392 160.788 311.923 158.673C311.923 158.673 313.791 159.116 311.633 160.493C309.476 161.869 311.537 161.943 311.537 161.943C311.537 161.943 307.32 165.775 302.88 165.261C298.454 164.828 296.518 167.01 296.518 167.01C296.518 167.01 300.142 166.735 302.147 166.481C304.153 166.226 306.628 165.218 306.628 165.218L306.753 166.461L310.155 165.886C310.155 165.886 310.985 166.252 309.464 167.352C309.464 167.352 311.138 169.178 310.308 169.318C309.492 169.54 307.224 169.249 307.224 169.249L307.708 171.106C307.708 171.106 304.182 172.461 301.429 170.818L302.854 173.191L301.541 173.498C301.541 173.498 301.486 175.699 300.213 175.24C299.038 174.848 296.782 170.086 294.417 170.232C292.052 170.379 288.539 171.31 288.539 171.31L287.654 170.616Z" fill="#497C74"/>
<path d="M310.746 154.74C310.179 154.92 309.543 155.196 308.893 155.39C308.008 155.709 307.026 155.959 306.127 156.195C307.925 154.205 309.722 152.215 311.423 150.157C309.833 151.859 308.16 153.575 306.473 155.209C306.653 154.757 306.749 154.319 306.915 153.785C307.15 152.649 307.302 151.528 307.288 150.434C307.136 151.556 306.984 152.677 306.569 153.759C306.238 154.827 305.74 155.923 305.007 156.637L304.731 157.021C304.648 157.035 304.662 157.117 304.579 157.131C302.809 158.78 301.039 160.428 299.255 161.994C299.311 161.816 299.366 161.638 299.421 161.46C299.642 160.748 299.78 160.05 299.835 159.366C300.029 157.985 300.125 156.535 300.222 155.085C300.042 156.549 299.849 157.931 299.573 159.327C299.435 160.024 299.213 160.736 298.979 161.366C298.73 161.914 298.495 162.544 298.135 162.942C297.914 163.148 297.693 163.354 297.389 163.575C295.522 165.155 293.545 166.585 291.553 167.934C291.733 167.482 291.816 166.962 291.996 166.51C292.244 165.456 292.424 164.498 292.589 163.458C292.838 161.392 293.086 159.326 293.169 157.289C293.003 159.34 292.672 161.42 292.327 163.418C292.161 164.458 291.898 165.43 291.636 166.402C291.415 167.114 291.194 167.826 290.876 168.47C290.489 168.704 290.115 169.02 289.728 169.254C288.331 170.08 287.018 170.892 285.621 171.719L283.367 173.027C283.754 171.781 284.155 170.617 284.542 169.371C286.31 163.676 287.802 157.858 289.129 152.069C289.267 151.371 289.419 150.755 289.64 150.043C291.7 148.093 293.677 146.156 295.724 144.124C296.747 143.108 297.756 142.01 298.779 140.994C299.789 139.896 300.715 138.811 301.53 137.577C300.701 138.729 299.609 139.842 298.586 140.858C297.562 141.874 296.456 142.904 295.433 143.92C293.58 145.582 291.727 147.245 289.875 148.907C290.234 146.991 290.524 145.171 290.8 143.27C290.965 141.724 291.131 140.178 291.296 138.632C292.776 137.286 294.062 135.804 295.251 134.254C296.509 132.608 297.656 130.812 298.347 128.84C297.559 130.744 296.315 132.472 294.96 134.05C293.812 135.34 292.651 136.548 291.31 137.702C291.379 136.595 291.447 135.487 291.516 134.379C291.654 132.163 291.695 129.879 291.75 127.678L291.888 127.486C292.593 126.102 293.215 124.732 293.92 123.348C294.224 122.622 294.542 121.978 294.846 121.252C295.15 120.526 295.371 119.814 295.592 119.102C295.371 119.814 295.067 120.54 294.666 121.198C294.348 121.842 293.961 122.582 293.56 123.24C292.966 124.268 292.371 125.296 291.777 126.324C291.777 126.324 291.777 126.324 291.763 126.242C291.721 125.996 291.763 125.736 291.721 125.49C291.734 122.537 291.567 119.529 291.318 116.536C291.374 119.393 291.347 122.265 291.32 125.136C291.043 124.508 290.78 123.963 290.421 123.349C289.715 122.203 288.843 121.086 287.902 120.064C288.76 121.1 289.48 122.327 290.103 123.487C290.379 124.115 290.656 124.743 290.836 125.302C291.03 125.944 291.141 126.6 291.072 127.202L291.127 128.542C291.031 130.498 290.921 132.371 290.825 134.327C290.714 135.189 290.687 136.037 290.577 136.899C290.438 136.585 290.314 136.353 290.175 136.039C289.788 135.261 289.234 134.511 288.778 133.83C287.768 132.398 286.689 131.063 285.54 129.823C286.619 131.159 287.629 132.59 288.473 134.05C288.944 134.813 289.318 135.509 289.705 136.287C290.01 137.079 290.314 137.871 290.273 138.637L290.328 139.47C290.204 140.756 289.983 141.974 289.859 143.26C289.555 144.998 289.252 146.736 288.948 148.473C288.671 147.846 288.311 147.232 287.951 146.618C287.343 145.54 286.568 144.491 285.89 143.509C284.437 141.478 282.832 139.557 281.227 137.635C282.749 139.571 284.285 141.588 285.572 143.647C286.264 144.711 286.872 145.788 287.481 146.866C287.979 147.794 288.408 148.817 288.672 149.869C288.533 150.567 288.326 151.361 288.105 152.073C286.834 157.179 285.37 162.148 283.822 167.132C283.338 166.792 282.937 166.438 282.521 166.002C281.719 165.295 280.931 164.669 280.142 164.043C279.519 161.872 278.799 159.633 278.093 157.475C277.733 156.355 277.277 155.168 276.917 154.048C276.474 152.942 276.017 151.755 275.422 150.759C275.948 151.851 276.391 152.956 276.765 154.158C277.125 155.278 277.498 156.479 277.775 157.613C278.357 159.539 278.869 161.56 279.367 163.5C278.385 162.738 277.32 161.991 276.269 161.325C274.913 160.374 273.571 159.504 272.147 158.649C271.717 157.119 271.108 155.535 270.361 154.144C269.586 152.588 268.659 151.143 267.497 149.821C268.576 151.157 269.434 152.698 270.126 154.268C270.68 155.524 271.081 156.889 271.483 158.255C270.902 157.847 270.251 157.535 269.67 157.128C267.872 156.082 265.991 155.051 264.041 154.116L264.027 154.034C263.252 152.984 262.491 152.016 261.716 150.967C261.287 150.449 260.872 150.013 260.443 149.495C260.028 149.06 259.599 148.542 259.101 148.12C259.599 148.542 259.945 149.074 260.374 149.591C260.72 150.123 261.149 150.641 261.495 151.173C262.048 151.923 262.533 152.768 263.003 153.532C262.92 153.546 262.906 153.464 262.823 153.478C260.499 152.353 258.093 151.242 255.713 150.295C257.775 151.38 259.919 152.451 261.98 153.536C261.468 153.539 261.039 153.527 260.527 153.529C259.352 153.643 258.273 153.825 257.125 154.104C258.287 153.907 259.38 153.807 260.486 153.789C261.592 153.77 262.727 153.916 263.667 154.432L264.027 154.54C265.811 155.503 267.61 156.548 269.408 157.594C269.795 157.865 270.182 158.137 270.556 158.327C270.293 158.287 270.127 158.315 269.878 158.357C269.118 158.402 268.44 158.432 267.693 158.558C266.282 158.796 264.789 159.049 263.406 159.451C264.816 159.213 266.227 158.974 267.665 158.9C268.426 158.856 269.104 158.826 269.795 158.877C270.487 158.929 271.261 158.967 271.746 159.307L272.022 159.429C273.267 160.23 274.512 161.032 275.688 161.929C276.573 162.623 277.459 163.316 278.344 164.01C277.819 163.93 277.238 164.028 276.643 164.044C275.633 164.131 274.541 164.231 273.545 164.399C271.471 164.75 269.396 165.1 267.349 165.615C269.41 165.182 271.498 164.914 273.587 164.645C274.596 164.559 275.689 164.459 276.712 164.454C277.57 164.478 278.427 164.502 279.229 164.704C280.032 165.411 280.917 166.105 281.637 166.827C282.176 167.494 282.716 168.162 283.186 168.926C283.117 169.022 283.145 169.186 283.076 169.282C282.108 172.144 281.127 174.924 280.049 177.635C278.971 180.347 277.727 183.087 276.469 185.745L278.143 186.559C279.387 183.819 280.534 181.011 281.598 178.217C281.888 177.409 282.179 176.601 282.4 175.889C284.999 174.101 287.696 172.38 290.392 170.659C290.697 170.439 291.001 170.219 291.222 170.013C293.435 169.977 295.731 169.926 297.944 169.889C299.133 169.857 300.405 169.811 301.581 169.696C302.757 169.582 304.029 169.536 305.26 169.243C304.015 169.454 302.826 169.486 301.65 169.6C300.461 169.633 299.188 169.679 297.985 169.629C296.021 169.624 293.96 169.551 291.996 169.545C294.126 168.005 296.076 166.41 297.997 164.652C298.219 164.446 298.44 164.24 298.661 164.034C300.279 164.014 301.87 163.829 303.446 163.563C305.189 163.268 306.904 162.81 308.397 162.052C306.807 162.742 305.078 163.118 303.405 163.317C302.063 163.459 300.625 163.534 299.256 163.512C301.261 161.74 303.155 159.817 304.966 157.909C305.035 157.813 305.187 157.703 305.257 157.607L305.34 157.593C306.543 157.137 307.746 156.681 308.949 156.224C309.502 155.962 310.138 155.686 310.691 155.424C311.245 155.162 311.881 154.886 312.42 154.542C311.95 154.284 311.383 154.464 310.746 154.74Z" fill="#579485"/>
<path d="M244.279 163.442C244.058 163.142 243.781 163.02 243.491 162.816C242.744 162.437 242.342 161.577 242.37 160.729C242.356 160.647 242.425 160.551 242.397 160.387C242.493 156.914 240.528 153.873 238.094 153.609C237.831 153.57 237.486 153.544 237.237 153.586C236.739 153.67 236.116 153.522 235.701 153.086C234.055 151.425 231.98 150.764 230.224 151.482C228.468 152.2 227.5 154.05 227.473 156.416C227.487 157.004 227.155 157.566 226.699 157.896C226.478 158.102 226.257 158.308 226.035 158.514C224.487 160.462 225.166 163.974 227.711 166.41C227.808 166.478 227.905 166.546 227.919 166.628C228.527 167.2 228.846 168.074 228.555 168.882C228.431 169.156 228.403 169.498 228.376 169.84C228.418 171.603 230.202 173.073 232.18 173.16C233.038 173.184 233.771 172.976 234.393 172.618C235.015 172.259 235.79 172.297 236.385 172.787C237.671 173.834 239.248 174.074 239.248 174.074C239.248 174.074 240.16 172.908 240.367 171.102C240.492 170.322 240.989 169.732 241.736 169.606C242.483 169.48 243.188 169.108 243.769 168.503C245.304 166.979 245.441 164.764 244.279 163.442Z" fill="#95BD59"/>
<path d="M237.752 167.749C236.798 165.634 236.825 165.798 236.59 165.416L237.696 162.868C237.875 162.416 237.239 162.186 237.059 162.638L236.203 164.638C235.151 162.455 234.542 161.377 233.338 159.304C233.975 161.557 234.266 162.773 234.999 165.095C233.45 164.513 232.745 163.873 232.496 164.421C232.247 164.969 233.188 164.979 235.235 165.982C235.401 166.46 235.373 166.296 236.079 168.454L234.336 167.736C233.88 167.56 233.645 168.19 234.101 168.366L236.397 169.327C237.809 173.136 238.141 174.092 240.051 177.311L241.005 176.897C240.715 176.187 241.115 175.529 237.988 168.637C238.693 166.747 239.356 166.129 238.803 165.885C238.706 165.817 238.319 166.557 237.752 167.749Z" fill="#B2C762"/>
<path d="M211.862 167.571C211.447 167.641 211.129 167.779 210.811 167.917C210.036 168.385 208.902 168.24 208.21 167.682C208.114 167.614 208.017 167.546 207.92 167.478C204.738 165.317 200.631 165.252 198.778 167.421C198.57 167.709 198.363 167.997 198.239 168.271C197.99 168.819 197.464 169.245 196.884 169.343C194.325 169.86 192.362 171.372 191.947 173.466C191.519 175.477 192.723 177.551 194.936 179.032C195.517 179.44 195.78 179.986 195.808 180.655C195.78 180.997 195.919 181.311 195.974 181.639C196.846 184.275 200.678 185.735 204.453 184.844C204.536 184.83 204.702 184.802 204.785 184.788C205.684 184.552 206.749 184.794 207.303 185.543C207.524 185.843 207.814 186.047 208.105 186.251C209.806 187.228 212.24 186.48 213.554 184.656C214.107 183.888 214.397 183.08 214.355 182.328C214.383 181.48 214.95 180.794 215.765 180.572C217.549 180.017 218.766 178.631 218.766 178.631C218.766 178.631 218.157 177.047 216.663 175.782C215.971 175.224 215.75 174.419 216.04 173.611C216.344 172.885 216.441 171.941 216.205 171.053C215.817 168.757 213.853 167.234 211.862 167.571Z" fill="#95BD59"/>
<path d="M211.961 176.239C209.43 175.908 209.596 175.88 208.987 175.814C207.451 173.797 207.285 172.813 206.663 173.171C206.124 173.515 206.995 174.127 207.95 175.737C204.464 175.314 202.915 175.238 201.2 175.191C202.736 175.69 204.271 176.19 207.674 177.132C206.236 178.219 205.171 178.483 205.517 179.015C205.863 179.547 206.402 178.696 208.656 177.388C209.195 177.55 209.015 177.496 211.505 178.087C210.302 179.049 209.306 179.218 209.652 179.749C209.998 180.281 210.62 179.417 212.556 178.247C219.914 179.87 219.416 179.449 222.362 179.71L222.597 178.574C221.975 178.426 221.159 177.636 212.915 176.331C211.504 174.546 211.338 173.562 210.798 173.906C210.37 174.4 211.227 174.93 211.961 176.239Z" fill="#B2C762"/>
<path d="M228.541 166.776C232.567 171.408 231.601 178.823 226.305 183.344C221.009 187.865 213.403 187.801 209.377 183.169C205.351 178.537 206.317 171.122 211.612 166.601C216.908 162.08 224.515 162.144 228.541 166.776Z" fill="#EADFD1"/>
<path d="M224.783 181.652C228.406 178.545 229.816 174.285 227.933 172.137C226.05 169.989 221.588 170.766 217.965 173.872C214.343 176.979 212.933 181.238 214.816 183.387C216.698 185.535 221.161 184.758 224.783 181.652Z" fill="#D1C3B4"/>
<path d="M229.817 180.896C232.363 183.838 231.797 186.042 230.096 187.595C228.298 189.079 226.044 189.375 223.498 186.433C220.953 183.49 218.987 178.425 220.785 176.941C222.389 175.321 227.175 177.885 229.817 180.896Z" fill="#E7E2D5"/>
<path d="M289.837 163.839C289.216 169.762 283.201 174.067 276.424 173.357C269.647 172.647 264.639 167.253 265.343 161.316C265.963 155.393 271.978 151.088 278.755 151.798C285.533 152.508 290.541 157.901 289.837 163.839Z" fill="#EADFD1"/>
<path d="M285.661 166.905C285.358 169.655 281.32 171.518 276.714 171.031C272.025 170.559 268.512 167.948 268.801 165.117C269.105 162.367 273.143 160.504 277.748 160.991C282.451 161.545 285.965 164.156 285.661 166.905Z" fill="#D1C3B4"/>
<path d="M280.56 174.092C280.174 177.867 278.141 178.97 275.886 178.76C273.632 178.551 271.93 177.068 272.317 173.292C272.703 169.517 275.149 164.803 277.404 165.012C279.658 165.221 280.946 170.316 280.56 174.092Z" fill="#E7E2D5"/>
<path d="M300.377 165.6C301.718 164.951 302.437 163.649 302.284 162.241C302.27 162.159 302.243 161.996 302.229 161.914C302.021 159.166 300.858 156.833 298.673 155.516C294.384 152.867 287.746 155.507 283.972 161.457C280.53 166.845 280.56 173.08 283.811 176.157C284.419 176.728 285.346 176.656 285.927 176.052C290.559 171.643 295.315 167.973 300.377 165.6Z" fill="#DB5955"/>
<path d="M289.963 168.118C292.133 164.8 295.383 162.817 298.301 162.914C298.813 162.912 299.2 162.678 299.477 162.294C299.753 161.91 299.67 161.418 299.421 160.954C298.978 160.355 298.452 159.769 297.788 159.375C294.552 157.392 289.684 159.395 286.85 163.838C284.762 167.142 284.362 170.835 285.635 173.318C285.884 173.782 286.452 174.108 287.032 174.01C287.613 173.912 288.056 173.5 288.125 172.898C288.373 171.338 288.954 169.722 289.963 168.118Z" fill="#BC1B2C"/>
<path d="M296.766 160.897C296.724 161.157 296.448 161.541 296.24 161.829C296.171 161.925 296.088 161.939 296.005 161.953C295.922 161.967 295.908 161.885 295.811 161.817C295.756 161.49 295.673 160.998 295.714 160.738C295.825 160.382 296.115 160.08 296.378 160.12C296.724 160.145 296.876 160.541 296.766 160.897Z" fill="#E7C644"/>
<path d="M293.709 161.498C293.834 161.73 293.848 162.318 293.834 162.742C293.848 162.824 293.779 162.92 293.696 162.934C293.613 162.948 293.53 162.962 293.433 162.894C293.129 162.608 292.714 162.172 292.589 161.94C292.437 161.545 292.52 161.025 292.838 160.887C293.087 160.844 293.474 161.116 293.709 161.498Z" fill="#E7C644"/>
<path d="M291.082 163.123C291.289 163.341 291.469 163.9 291.538 164.31C291.552 164.392 291.566 164.474 291.497 164.57C291.428 164.666 291.345 164.68 291.248 164.612C290.875 164.423 290.321 164.179 290.114 163.961C289.796 163.593 289.795 163.087 290.017 162.881C290.321 162.661 290.764 162.755 291.082 163.123Z" fill="#E7C644"/>
<path d="M288.856 165.101C289.049 165.237 289.478 165.755 289.713 166.137C289.727 166.219 289.741 166.301 289.672 166.397C289.603 166.493 289.52 166.507 289.437 166.521C288.994 166.427 288.386 166.361 288.178 166.143C287.791 165.871 287.639 165.475 287.846 165.187C287.957 164.831 288.468 164.829 288.856 165.101Z" fill="#E7C644"/>
<path d="M287.294 167.979C287.473 168.033 287.875 168.387 288.082 168.605C288.179 168.673 288.193 168.755 288.124 168.851C288.137 168.933 288.054 168.947 287.972 168.961C287.64 169.017 287.128 169.019 286.934 168.883C286.575 168.775 286.339 168.393 286.478 168.201C286.602 167.927 286.92 167.789 287.294 167.979Z" fill="#E7C644"/>
<path d="M286.492 170.813C286.672 170.867 286.949 170.989 287.142 171.125C287.142 171.125 287.239 171.193 287.17 171.289C287.184 171.371 287.101 171.385 287.101 171.385C286.852 171.427 286.534 171.565 286.354 171.511C286.091 171.471 285.884 171.253 285.939 171.075C285.994 170.897 286.229 170.773 286.492 170.813Z" fill="#E7C644"/>
<path d="M252.702 162.272C251.166 159.749 248.289 158.38 244.997 158.093C244.734 158.053 244.388 158.027 244.126 157.987C242.715 157.719 241.373 158.368 240.82 159.642C238.471 164.93 233.922 170.842 227.659 177.213C226.857 178.023 226.899 179.281 227.715 180.07C231.575 183.719 238.988 183.646 245.404 179.695C252.664 175.18 255.87 167.386 252.702 162.272Z" fill="#DB5955"/>
<path d="M237.685 172.905C241.778 170.358 244.114 166.506 244.044 163.06C244.03 162.472 244.362 161.91 244.832 161.662C245.302 161.414 245.98 161.384 246.464 161.724C247.225 162.185 247.847 162.839 248.318 163.603C250.753 167.408 248.32 173.215 242.914 176.574C238.89 179.025 234.436 179.441 231.365 177.936C230.715 177.624 230.439 176.996 230.494 176.312C230.632 175.614 231.143 175.106 231.821 175.076C233.743 174.835 235.749 174.075 237.685 172.905Z" fill="#BC1B2C"/>
<path d="M246.465 164.759C246.216 164.801 245.676 165.145 245.289 165.379C245.206 165.393 245.151 165.571 245.165 165.653C245.179 165.735 245.276 165.803 245.372 165.871C245.815 165.965 246.341 166.045 246.673 165.989C247.17 165.905 247.447 165.521 247.391 165.193C247.419 164.851 246.963 164.675 246.465 164.759Z" fill="#E7C644"/>
<path d="M245.733 168.509C245.456 168.387 244.682 168.349 244.17 168.351C244.087 168.365 243.921 168.393 243.949 168.557C243.976 168.721 243.907 168.817 244.004 168.885C244.322 169.253 244.834 169.757 245.194 169.865C245.747 170.108 246.231 169.942 246.425 169.572C246.535 169.216 246.286 168.752 245.733 168.509Z" fill="#E7C644"/>
<path d="M243.784 171.621C243.493 171.417 242.857 171.187 242.317 171.025C242.22 170.957 242.068 171.067 241.985 171.081C241.902 171.096 241.93 171.259 241.958 171.423C242.207 171.887 242.484 172.515 242.774 172.719C243.175 173.073 243.784 173.139 244.074 172.837C244.365 172.535 244.185 171.975 243.784 171.621Z" fill="#E7C644"/>
<path d="M241.322 174.229C241.101 173.929 240.52 173.522 240.133 173.25C240.036 173.182 239.953 173.196 239.787 173.224C239.718 173.32 239.649 173.416 239.663 173.498C239.746 173.99 239.87 174.728 240.092 175.028C240.424 175.477 240.977 175.721 241.281 175.501C241.668 175.267 241.654 174.679 241.322 174.229Z" fill="#E7C644"/>
<path d="M237.865 175.994C237.741 175.762 237.409 175.312 237.104 175.026C237.008 174.958 236.925 174.972 236.842 174.986C236.759 175 236.689 175.096 236.703 175.178C236.69 175.602 236.621 176.204 236.745 176.436C236.897 176.832 237.285 177.104 237.617 177.048C237.935 176.91 238.031 176.472 237.865 175.994Z" fill="#E7C644"/>
<path d="M234.449 176.993C234.422 176.829 234.187 176.447 234.062 176.215C234.048 176.133 233.965 176.147 233.882 176.161C233.799 176.175 233.799 176.175 233.73 176.271C233.689 176.531 233.592 176.969 233.62 177.133C233.675 177.461 233.883 177.679 234.132 177.637C234.367 177.513 234.491 177.239 234.449 176.993Z" fill="#E7C644"/>
<path d="M270.809 170.609C270.774 163.948 265.284 158.599 258.547 158.66C251.81 158.721 246.377 164.17 246.412 170.831C246.448 177.491 251.938 182.841 258.675 182.779C265.412 182.718 270.845 177.269 270.809 170.609Z" fill="#6EAC69"/>
<path d="M269.616 171.362C270.012 165.355 265.409 160.188 259.335 159.82C253.261 159.452 248.016 164.024 247.62 170.03C247.224 176.037 251.827 181.204 257.901 181.572C263.975 181.94 269.22 177.368 269.616 171.362Z" fill="#E7FFA8"/>
<path d="M263.63 169.869C264.087 172.575 262.221 175.167 259.482 175.63C256.744 176.092 254.13 174.257 253.672 171.552C253.215 168.847 255.082 166.254 257.82 165.792C260.558 165.329 263.173 167.164 263.63 169.869Z" fill="#B4D16F"/>
<path d="M258.472 173.692C258.417 173.364 258.569 172.748 258.666 172.31C258.652 172.228 258.804 172.118 258.887 172.104C258.97 172.09 259.067 172.158 259.163 172.226C259.399 172.608 259.745 173.14 259.8 173.468C259.883 173.96 259.62 174.426 259.288 174.482C258.874 174.552 258.569 174.266 258.472 173.692Z" fill="#E7FFA8"/>
<path d="M257.516 168.036C257.572 168.364 257.918 168.895 258.153 169.277C258.167 169.359 258.347 169.413 258.43 169.399C258.513 169.385 258.582 169.289 258.651 169.193C258.748 168.755 258.899 168.139 258.844 167.811C258.761 167.319 258.36 166.966 258.028 167.022C257.613 167.092 257.433 167.544 257.516 168.036Z" fill="#E7FFA8"/>
<path d="M260.657 172.986C260.367 172.782 260.021 172.25 259.786 171.868C259.772 171.786 259.758 171.704 259.827 171.608C259.896 171.512 259.979 171.498 260.062 171.484C260.505 171.578 261.127 171.726 261.418 171.93C261.805 172.202 261.971 172.679 261.764 172.967C261.556 173.255 261.045 173.258 260.657 172.986Z" fill="#E7FFA8"/>
<path d="M255.912 169.656C256.203 169.86 256.825 170.007 257.268 170.101C257.351 170.087 257.434 170.073 257.503 169.977C257.572 169.881 257.558 169.799 257.544 169.717C257.309 169.335 256.963 168.803 256.673 168.6C256.285 168.328 255.774 168.33 255.566 168.618C255.262 168.838 255.428 169.316 255.912 169.656Z" fill="#E7FFA8"/>
<path d="M261.68 170.958C261.348 171.014 260.726 170.866 260.283 170.772C260.2 170.786 260.09 170.636 260.076 170.554C260.062 170.472 260.131 170.376 260.2 170.28C260.587 170.046 261.127 169.702 261.458 169.646C261.956 169.562 262.427 169.82 262.482 170.148C262.537 170.476 262.178 170.874 261.68 170.958Z" fill="#E7FFA8"/>
<path d="M255.872 171.939C256.204 171.883 256.743 171.539 257.13 171.305C257.213 171.291 257.268 171.113 257.254 171.031C257.241 170.949 257.144 170.881 257.047 170.813C256.604 170.719 255.982 170.571 255.65 170.627C255.152 170.712 254.793 171.11 254.848 171.438C254.903 171.766 255.374 172.023 255.872 171.939Z" fill="#E7FFA8"/>
<path d="M260.891 168.814C260.684 169.102 260.145 169.447 259.757 169.681C259.674 169.695 259.591 169.709 259.495 169.641C259.398 169.573 259.384 169.491 259.37 169.409C259.467 168.971 259.619 168.355 259.826 168.067C260.103 167.683 260.587 167.517 260.877 167.721C261.154 167.843 261.237 168.334 260.891 168.814Z" fill="#E7FFA8"/>
<path d="M257.504 173.518C257.711 173.23 257.863 172.614 257.96 172.177C257.946 172.095 257.932 172.013 257.836 171.945C257.739 171.877 257.656 171.891 257.573 171.905C257.186 172.139 256.646 172.483 256.439 172.771C256.162 173.155 256.163 173.661 256.453 173.865C256.743 174.069 257.228 173.902 257.504 173.518Z" fill="#E7FFA8"/>
<path d="M236.703 224.171L279.189 216.992C281.429 216.613 283.559 215.579 285.26 214.026C297.386 202.955 303.882 186.341 301.235 169.165L200.166 186.243C203.394 203.322 214.987 216.878 229.995 223.365C232.112 224.272 234.463 224.549 236.703 224.171Z" fill="white"/>
<path d="M301.763 179.363C301.791 178.515 301.818 177.667 301.832 176.737L202.091 193.592C202.395 194.383 202.714 195.257 203.018 196.049L301.763 179.363Z" fill="#ABE0E3"/>
<path d="M297.315 197.485C299.002 193.827 300.231 189.994 300.936 186.08L206.007 202.121C208.055 205.654 210.463 208.789 213.174 211.704L297.315 197.485Z" fill="#ABE0E3"/>
<path d="M168.754 203.005C168.115 202.365 167.293 202 166.38 202C165.466 202 164.553 202.365 164.005 203.005C163.457 203.644 163 204.558 163 205.38C163 206.293 163.365 207.206 164.005 207.754C164.644 208.394 165.466 208.759 166.38 208.759C167.293 208.759 168.206 208.394 168.754 207.754C169.394 207.206 169.759 206.202 169.759 205.38C169.668 204.558 169.394 203.644 168.754 203.005Z" fill="#FFF1CE"/>
<path d="M177.754 139.005C177.115 138.365 176.293 138 175.38 138C174.466 138 173.553 138.365 173.005 139.005C172.457 139.644 172 140.558 172 141.38C172 142.293 172.365 143.206 173.005 143.754C173.644 144.394 174.466 144.759 175.38 144.759C176.293 144.759 177.206 144.394 177.754 143.754C178.394 143.206 178.759 142.202 178.759 141.38C178.668 140.558 178.394 139.644 177.754 139.005Z" fill="#FFF1CE"/>
<path d="M245.754 122.005C245.115 121.365 244.293 121 243.38 121C242.466 121 241.553 121.365 241.005 122.005C240.457 122.644 240 123.558 240 124.38C240 125.293 240.365 126.206 241.005 126.754C241.644 127.394 242.466 127.759 243.38 127.759C244.293 127.759 245.206 127.394 245.754 126.754C246.394 126.206 246.759 125.202 246.759 124.38C246.668 123.558 246.394 122.644 245.754 122.005Z" fill="#FFF1CE"/>
<path d="M44.7544 264.005C44.1151 263.365 43.293 263 42.3796 263C41.4662 263 40.5528 263.365 40.0047 264.005C39.4567 264.644 39 265.558 39 266.38C39 267.293 39.3654 268.206 40.0047 268.754C40.6441 269.394 41.4662 269.759 42.3796 269.759C43.293 269.759 44.2064 269.394 44.7544 268.754C45.3938 268.206 45.7592 267.202 45.7592 266.38C45.6678 265.558 45.3938 264.644 44.7544 264.005Z" fill="#FFF1CE"/>
<path d="M139.801 75.674C129.937 80.5431 118.834 82.9013 107.568 82.2177C101.13 81.827 96.1495 76.2561 96.5402 69.8181C96.9308 63.3802 102.502 58.3998 108.94 58.7904C123.291 59.624 137.1 52.8073 145.166 40.9078C148.771 35.5595 156.113 34.1659 161.461 37.771C166.809 41.3761 168.203 48.7176 164.598 54.0658C158.199 63.4695 149.665 70.805 139.801 75.674Z" fill="#EDC75E"/>
<path d="M140.554 77.1985C129.166 82.82 116.451 85.5278 103.441 84.7011C97.8973 84.315 93.6728 79.5976 93.925 74.0087C94.311 68.4651 99.0284 64.2406 104.617 64.4928C123.484 65.6625 141.777 56.6326 152.322 40.9444C155.387 36.3089 161.699 35.089 166.378 38.2434C171.014 41.3082 172.234 47.6202 169.079 52.2999C161.824 63.1303 151.852 71.6212 140.554 77.1985Z" fill="#E18668"/>
<path d="M140.554 77.1983C151.942 71.5768 161.824 63.1301 169.079 52.2997C169.935 51.0966 170.389 49.7573 170.709 48.3725C169.998 47.6086 169.241 46.9786 168.304 46.4372C162.775 43.1443 155.566 45.0305 152.273 50.5592C144.965 62.8651 131.598 70.5785 117.242 70.6393C110.758 70.6062 105.543 75.8567 105.51 82.3412C105.505 83.2357 105.546 83.9961 105.721 84.802C117.883 85.2666 129.793 82.51 140.554 77.1983Z" fill="#DB5955"/>
<path d="M146.441 89.1245C136.577 93.9935 125.474 96.3518 114.208 95.6681C107.77 95.2775 102.789 89.7065 103.18 83.2686C103.57 76.8306 109.141 71.8502 115.579 72.2408C129.931 73.0744 143.74 66.2578 151.806 54.3582C155.411 49.01 162.753 47.6164 168.101 51.2214C173.449 54.8265 174.843 62.168 171.238 67.5163C164.839 76.9199 156.304 84.2554 146.441 89.1245Z" fill="#EDC75E"/>
<path d="M134.464 61.2463L133.091 58.4665C132.105 58.9534 131.119 59.4403 130.132 59.9272L131.504 62.707C131.903 63.5141 132.84 63.8319 133.647 63.4335C134.544 62.9909 134.862 62.0533 134.464 61.2463Z" fill="#DB5955"/>
<path d="M111.396 68.2841C112.203 67.8857 112.521 66.9482 112.122 66.1412L111.37 64.6168C110.162 64.6553 108.999 64.7835 107.747 64.7324L109.119 67.5122C109.651 68.3646 110.589 68.6825 111.396 68.2841Z" fill="#DB5955"/>
<path d="M142.534 57.2626C143.341 56.8643 143.659 55.9267 143.26 55.1197L141.977 52.5193C141.123 53.2752 140.225 53.9414 139.283 54.518L140.301 56.5804C140.7 57.3874 141.727 57.661 142.534 57.2626Z" fill="#DB5955"/>
<path d="M123.434 66.6909C124.241 66.2925 124.559 65.355 124.161 64.5479L123.143 62.4855C122.068 62.7931 120.993 63.1006 119.918 63.4082L121.201 66.0086C121.69 66.7714 122.627 67.0892 123.434 66.6909Z" fill="#DB5955"/>
<path d="M151.12 48.6751C151.927 48.2768 152.244 47.3392 151.846 46.5322L150.474 43.7524C149.709 44.6877 148.944 45.6229 148.179 46.5582L148.931 48.0826C149.375 48.7557 150.313 49.0735 151.12 48.6751Z" fill="#DB5955"/>
<path d="M134.357 64.6446C133.012 65.3085 131.491 65.3902 130.151 64.9361C129.036 64.4832 127.736 65.0133 127.193 66.1733C126.605 67.4672 125.393 68.4002 123.959 68.8848C122.526 69.3694 121.006 69.2275 119.758 68.5055C118.687 67.9187 117.389 68.2251 116.624 69.1604C115.857 70.3192 114.467 71.1171 112.99 71.2885C111.514 71.4598 109.995 71.0943 108.881 70.1941C108.169 69.6538 108.085 68.5801 108.625 67.8673C109.165 67.1545 110.239 67.0705 110.952 67.6108C111.353 67.9707 111.978 68.108 112.604 68.0218C113.231 67.9355 113.725 67.5803 113.995 67.2239C115.751 64.9073 118.841 64.1628 121.338 65.6067C121.828 65.9222 122.409 65.9699 122.991 65.794C123.574 65.6181 123.978 65.3071 124.249 64.7271C125.559 62.1847 128.517 60.9475 131.24 61.9453C132.311 62.3086 133.656 61.6446 133.93 60.6174C134.794 57.8491 137.575 56.2533 140.39 56.7596C140.881 56.8516 141.508 56.7653 142.001 56.4101C142.495 56.0548 142.811 55.5645 142.858 54.9833C143.231 52.123 145.79 50.0789 148.608 50.138C149.189 50.1857 149.727 49.9201 150.176 49.4752C150.626 49.0303 150.807 48.4945 150.855 47.9134C150.86 47.019 151.579 46.2177 152.474 46.2222C153.368 46.2268 154.169 46.9464 154.165 47.8408C154.202 49.2721 153.569 50.7 152.535 51.7681C151.501 52.8361 150.067 53.3207 148.636 53.3581C147.384 53.307 146.395 54.2411 146.21 55.4477C146.024 56.8778 145.212 58.1706 143.956 59.0139C142.699 59.8572 141.311 60.2079 139.837 59.932C138.63 59.747 137.509 60.4121 137.1 61.6175C136.602 62.8672 135.612 64.0249 134.357 64.6446Z" fill="#EDC75E"/>
<path d="M255.415 256.988C258.128 255.327 261.245 254.089 264.337 253.032C269.67 251.079 274.9 249.205 280.234 247.252C292.639 242.752 305.238 238.186 318.304 235.619C322.277 234.865 325.623 233.29 329.601 233.182C306.916 244.865 281.347 252.656 255.415 256.988Z" fill="#7CA661"/>
<path d="M250.596 258.55C258.424 255.183 266.018 251.508 273.479 247.446C276.862 245.599 280.348 243.673 283.274 241.119C286.405 238.408 288.886 235.056 291.679 232.115C296.716 226.897 302.886 222.845 309.043 218.884C308.109 225.117 304.895 230.49 300.42 234.955C295.856 239.408 290.43 242.73 284.95 245.769C281.863 247.472 278.788 249.085 275.49 250.298C273.57 250.869 255.159 258.889 250.596 258.55Z" fill="#AEDC90"/>
<path d="M265.051 251.838C265.051 251.838 264.281 254.13 265.257 255.092C265.257 255.092 247.342 262.166 243.325 260.517C239.399 258.881 241.823 256.627 244.345 257.06C246.868 257.493 260.303 254.238 265.051 251.838Z" fill="white"/>
<path d="M216.055 239C213.315 239 213.315 243.293 216.055 243.293C218.795 243.202 218.795 239 216.055 239Z" fill="#FFF1CE"/>
<path d="M54.0552 201C51.3149 201 51.3149 205.293 54.0552 205.293C56.7954 205.202 56.7954 201 54.0552 201Z" fill="#FFF1CE"/>
<path d="M283.581 283.033C282.394 283.307 281.206 284.586 280.476 285.225C279.106 286.413 277.644 287.326 276 288.148C276.548 288.97 277.827 289.427 278.74 289.609C279.745 289.792 280.658 289.609 281.663 289.427C282.12 289.335 282.577 289.153 283.033 288.97C284.403 288.148 286.778 284.768 285.043 283.398C284.586 283.033 284.038 282.942 283.581 283.033Z" fill="#7CA661"/>
<path d="M150.016 227.011H149.925C149.377 227.103 148.92 227.742 149.012 228.29C149.012 228.838 149.377 229.478 149.925 229.569H150.016C150.839 229.752 151.661 229.204 151.661 228.29C151.661 227.377 150.839 226.92 150.016 227.011Z" fill="#FFF1CE"/>
<path d="M164.658 3.92763C163.654 3.01423 163.197 1.3701 162.74 0C162.009 0.730722 161.096 1.18743 160 1.27877C160.457 3.28826 161.644 5.11506 163.471 6.02846C163.562 5.38908 164.11 4.38434 164.658 3.92763Z" fill="#AEDC90"/>
<path d="M57.8496 116C55.3835 116 55.3835 119.836 57.8496 119.836C60.3158 119.836 60.3158 116 57.8496 116Z" fill="#FFF1CE"/>
<path d="M1.84964 132C-0.616547 132 -0.616547 135.836 1.84964 135.836C4.31583 135.836 4.31583 132 1.84964 132Z" fill="#FFF1CE"/>
<path d="M137.129 118.466L134.754 116C134.754 116 134.389 121.937 129 124.129L131.192 125.773C131.192 125.773 135.759 123.947 137.129 118.466Z" fill="#AEDC90"/>
<path d="M282.85 94C280.383 94 280.383 97.8363 282.85 97.8363C285.316 97.8363 285.316 94 282.85 94Z" fill="#FFF1CE"/>
<path d="M45.7544 78.0047C45.1151 77.3654 44.293 77 43.3796 77C42.4662 77 41.5528 77.3654 41.0047 78.0047C40.4567 78.6441 40 79.5575 40 80.3796C40 81.293 40.3654 82.2064 41.0047 82.7544C41.6441 83.3938 42.4662 83.7592 43.3796 83.7592C44.293 83.7592 45.2064 83.3938 45.7544 82.7544C46.3938 82.2064 46.7592 81.2016 46.7592 80.3796C46.6678 79.5575 46.3938 78.6441 45.7544 78.0047Z" fill="#FFF1CE"/>
<path d="M192 60C194.284 71.1435 200.951 80.7343 207.437 90.051C209.994 93.7046 212.734 98.2716 216.479 100.92C217.575 99.5503 212.643 92.6998 211.729 91.147C209.72 87.5848 207.619 84.1138 205.427 80.6429C201.134 73.701 196.658 66.8505 192 60Z" fill="#7CA661"/>
<path d="M207.071 83.5655C205.245 76.8977 204.24 69.9558 201.408 63.562C209.537 74.6142 215.475 86.8538 218.58 100.829C216.388 99.7327 214.744 99.002 213.282 96.9925C210.177 93.1562 208.35 88.3152 207.071 83.5655Z" fill="#AEDC90"/>
<path d="M194.832 80.7341C197.389 85.3011 200.495 89.5028 204.331 93.0651C206.797 95.3486 214.927 102.199 218.489 100.92C215.84 97.084 210.268 92.9737 206.797 89.9595C202.961 86.7626 198.942 83.657 194.832 80.7341Z" fill="#AEDC90"/>
<path d="M232.007 104.848C232.19 113.069 220.589 117.727 214.104 115.535C211.273 114.621 209.446 112.429 209.903 108.593C210.359 104.848 212.095 101.194 214.926 98.8194C217.849 96.4446 221.868 95.3485 225.522 96.5359C229.084 97.7234 231.916 101.103 232.007 104.848Z" fill="#EA7273"/>
<path d="M232.007 104.848C232.19 113.069 220.589 117.727 214.104 115.535C214.287 115.444 214.561 115.352 214.835 115.17C217.941 114.073 220.955 113.799 223.786 111.881C227.075 109.598 229.449 105.487 228.353 101.651C227.805 99.733 226.527 98.1803 225.43 96.5361C229.084 97.7236 231.916 101.103 232.007 104.848Z" fill="#EA6061"/>
<path d="M212.369 110.237C212.552 110.511 212.734 110.785 213.008 110.968C213.374 111.242 213.922 111.333 214.47 111.242C215.84 111.059 216.936 110.055 217.393 108.776C217.849 107.497 217.667 106.036 217.027 104.94C216.114 103.295 214.013 102.473 212.734 104.209C211.456 105.762 211.364 108.502 212.369 110.237Z" fill="#EA8889"/>
<path d="M219.493 100.829C219.219 100.372 218.671 100.19 218.123 100.19C217.758 100.19 217.21 100.281 216.936 100.555C216.57 100.829 216.296 101.377 216.479 101.925C216.57 102.565 216.936 103.021 217.575 103.204C218.123 103.387 218.763 103.295 219.219 102.839C219.767 102.382 219.859 101.468 219.493 100.829Z" fill="#EA8889"/>
<path d="M218.854 103.752C218.854 103.752 218.763 103.752 218.671 103.752H218.58C218.489 103.752 218.397 103.752 218.306 103.752C218.306 103.752 218.215 103.752 218.215 103.843C217.94 103.935 217.849 104.209 217.758 104.483C217.758 104.665 217.758 104.848 217.758 105.031V105.122C217.849 105.305 218.032 105.487 218.215 105.579C218.306 105.67 218.489 105.67 218.58 105.67C219.128 105.853 219.676 105.396 219.767 104.757C219.859 104.3 219.402 103.752 218.854 103.752Z" fill="#EA8889"/>
<path d="M224.517 112.977C224.7 113.799 226.161 113.708 226.892 113.891C227.897 114.165 228.536 115.17 228.536 116.174C228.536 117.088 228.079 118.001 228.536 118.732C228.993 119.371 229.997 119.371 230.728 119.28C229.997 119.28 229.267 118.641 229.084 117.91C228.901 117.179 229.267 116.357 229.358 115.626C229.541 114.53 229.267 113.251 228.536 112.429C227.714 111.607 224.7 110.694 224.426 112.521C224.517 112.795 224.517 112.886 224.517 112.977Z" fill="#EA6061"/>
<path d="M229.815 106.219C229.541 106.675 229.541 107.132 229.358 107.589C229.176 108.228 228.81 108.867 228.445 109.507C227.714 110.603 226.801 111.334 225.705 112.156C225.431 112.338 225.613 112.795 225.979 112.612C227.257 112.064 228.262 110.968 228.993 109.872C229.632 108.959 230.546 107.315 230.18 106.219C230.089 106.036 229.906 106.127 229.815 106.219Z" fill="white"/>
<path d="M229.906 102.473C229.815 102.382 229.724 102.382 229.632 102.382H229.541C229.45 102.382 229.45 102.382 229.45 102.473C229.267 102.839 229.541 103.113 229.724 103.478C229.906 103.935 229.906 104.391 229.906 104.939C229.906 105.305 230.454 105.305 230.454 104.939C230.454 104.026 230.272 103.295 229.906 102.473Z" fill="white"/>
<path d="M30.9352 226C29.3824 226.913 27.921 227.735 26.3682 228.649C25.4548 229.197 24.5414 229.654 23.902 230.476C23.1713 231.298 22.4406 232.759 23.628 233.49C24.8154 234.221 27.0076 233.033 28.0123 232.394C29.0171 231.754 30.0218 231.024 30.6612 229.928C31.94 227.918 30.7525 226.091 30.9352 226Z" fill="#7CA661"/>
<path d="M73.1511 110.855C73.6078 113.139 75.252 114.966 77.2614 116.153C79.1796 117.249 81.2804 117.432 83.4726 117.34C83.5639 117.34 83.6552 117.34 83.7466 117.34C83.7466 117.249 83.7466 117.158 83.7466 117.066C83.5639 114.144 82.5592 111.403 80.9151 108.937C79.3623 106.654 77.2614 104.827 75.1606 103C73.6078 105.284 72.6031 108.298 73.1511 110.855Z" fill="#AEDC90"/>
<path d="M73.1511 110.855C73.6078 113.139 75.252 114.966 77.2614 116.153C79.1796 117.249 81.2804 117.432 83.4726 117.34C83.5639 117.34 83.6552 117.34 83.7466 117.34C74.2472 112.043 75.1606 103 75.1606 103C73.6078 105.284 72.6031 108.298 73.1511 110.855Z" fill="#7CA661"/>
<path d="M75.5258 107.567C75.9825 109.759 77.2613 111.951 78.7228 113.596C80.0015 115.057 81.5543 116.427 83.3811 117.341C83.4725 117.341 83.5638 117.341 83.6552 117.341C83.6552 117.249 83.6552 117.158 83.6552 117.067C81.9197 116.062 80.2756 114.966 78.9968 113.322C78.2661 112.408 77.6267 111.495 77.0786 110.49C76.5306 109.485 76.2566 108.481 75.8912 107.476C75.7999 107.293 75.5258 107.384 75.5258 107.567Z" fill="#39700B"/>
<path d="M253.595 58.8553C253.139 61.1388 251.495 62.9656 249.485 64.153C247.567 65.2491 245.466 65.4318 243.274 65.3404C243.183 65.3404 243.091 65.3404 243 65.3404C243 65.2491 243 65.1578 243 65.0664C243.183 62.1435 244.187 59.4033 245.832 56.9371C247.384 54.6536 249.485 52.8268 251.586 51C253.139 53.2835 254.143 56.2977 253.595 58.8553Z" fill="#AEDC90"/>
<path d="M253.595 58.8553C253.139 61.1388 251.495 62.9656 249.485 64.153C247.567 65.2491 245.466 65.4318 243.274 65.3404C243.183 65.3404 243.091 65.3404 243 65.3404C252.499 60.0427 251.586 51 251.586 51C253.139 53.2835 254.143 56.2977 253.595 58.8553Z" fill="#7CA661"/>
<path d="M251.221 55.5671C250.764 57.7593 249.485 59.9515 248.024 61.5956C246.745 63.057 245.192 64.4271 243.365 65.3405C243.274 65.3405 243.183 65.3405 243.091 65.3405C243.091 65.2492 243.091 65.1579 243.091 65.0665C244.827 64.0618 246.471 62.9657 247.75 61.3216C248.481 60.4082 249.12 59.4948 249.668 58.49C250.216 57.4853 250.49 56.4805 250.855 55.4758C250.947 55.2931 251.221 55.3845 251.221 55.5671Z" fill="#39700B"/>
</svg>
