<svg width="18" height="18" viewBox="0 0 18 18" fill="none" xmlns="http://www.w3.org/2000/svg">
<path d="M8.57687 1.32422H5.46104C2.89854 1.32422 1.29187 3.13839 1.29187 5.70672V12.6351C1.29187 15.2034 2.89104 17.0176 5.46104 17.0176H12.8144C15.3852 17.0176 16.9844 15.2034 16.9844 12.6351V9.27838" stroke="currentColor" stroke-width="1.5" stroke-linecap="round" stroke-linejoin="round"/>
<path fill-rule="evenodd" clip-rule="evenodd" d="M6.3564 8.10074L12.5839 1.87324C13.3597 1.09824 14.6172 1.09824 15.3931 1.87324L16.4072 2.88741C17.1831 3.66324 17.1831 4.92158 16.4072 5.69658L10.1497 11.9541C9.81057 12.2932 9.35057 12.4841 8.87057 12.4841H5.7489L5.82723 9.33408C5.8389 8.87074 6.02807 8.42908 6.3564 8.10074Z" stroke="currentColor" stroke-width="1.5" stroke-linecap="round" stroke-linejoin="round"/>
<path d="M11.6376 2.83545L15.4426 6.64045" stroke="currentColor" stroke-width="1.5" stroke-linecap="round" stroke-linejoin="round"/>
</svg>
