<svg width="24" height="24" viewBox="0 0 24 24" fill="none" xmlns="http://www.w3.org/2000/svg">
<path fill-rule="evenodd" clip-rule="evenodd" d="M6.98978 4.09863C7.55867 4.09863 8.01984 4.5598 8.01984 5.12869V7.64976C8.01984 8.21865 7.55867 8.67982 6.98978 8.67982C6.42089 8.67982 5.95972 8.21865 5.95972 7.64976V5.12869C5.95972 4.5598 6.42089 4.09863 6.98978 4.09863Z" fill="currentColor"/>
<path fill-rule="evenodd" clip-rule="evenodd" d="M12 2.09861C12.5689 2.09861 13.0301 2.55979 13.0301 3.12867V7.64975C13.0301 8.21863 12.5689 8.67981 12 8.67981C11.4311 8.67981 10.97 8.21863 10.97 7.64975V3.12867C10.97 2.55979 11.4311 2.09861 12 2.09861Z" fill="currentColor"/>
<path fill-rule="evenodd" clip-rule="evenodd" d="M17.0103 3.09861C17.5792 3.09861 18.0404 3.55979 18.0404 4.12867V7.64975C18.0404 8.21863 17.5792 8.67981 17.0103 8.67981C16.4414 8.67981 15.9802 8.21863 15.9802 7.64975V4.12867C15.9802 3.55979 16.4414 3.09861 17.0103 3.09861Z" fill="currentColor"/>
<path d="M2.56519 13.4188C2.56519 12.476 2.56519 12.0046 2.85808 11.7117C3.15097 11.4188 3.62238 11.4188 4.56519 11.4188H19.4348C20.3776 11.4188 20.849 11.4188 21.1419 11.7117C21.4348 12.0046 21.4348 12.476 21.4348 13.4188V13.9014C21.4348 17.6726 21.4348 19.5582 20.2632 20.7298C19.0917 21.9014 17.2061 21.9014 13.4348 21.9014H10.5652C6.79395 21.9014 4.90833 21.9014 3.73676 20.7298C2.56519 19.5582 2.56519 17.6726 2.56519 13.9014V13.4188Z" fill="currentColor"/>
</svg>
