<svg width="24" height="24" viewBox="0 0 24 24" fill="none" xmlns="http://www.w3.org/2000/svg">
<path d="M17.9591 20.0374C16.3671 21.6147 14.2532 22.4804 12 22.4804C9.74683 22.4804 7.63298 21.6147 6.04092 20.0374C4.45479 18.4632 3.5802 16.376 3.5802 14.1554C3.5802 12.8658 3.87074 11.6295 4.44294 10.4792C5.0003 9.35554 5.83043 8.3505 6.83843 7.57671C7.4813 7.08514 8.06438 6.51997 8.57576 5.89274C9.31694 4.9885 9.89803 3.9805 10.3012 2.89837C10.4666 2.452 10.5868 1.99015 10.66 1.51978C11.3745 2.17794 11.9733 2.97249 12.4744 3.90341C13.4646 5.75933 13.9212 7.41068 13.8322 8.81596C13.811 9.14693 13.865 9.47842 13.9903 9.78549C14.1156 10.0926 14.3089 10.3672 14.5556 10.5889C14.7694 10.782 15.0195 10.9307 15.2913 11.0264C15.563 11.1221 15.8511 11.1628 16.1388 11.1462C16.7228 11.1166 17.2594 10.8587 17.6508 10.4228C18.0451 9.9811 18.386 9.53046 18.6706 9.07093C19.0857 9.60162 19.4326 10.1797 19.7083 10.8023C20.1797 11.8637 20.4198 12.9933 20.4198 14.1554C20.4198 16.376 19.5452 18.4661 17.9591 20.0374Z" stroke="currentColor" stroke-width="1.5" stroke-linejoin="round"/>
<path d="M13.6455 18.3091C13.0066 18.9422 12.1582 19.2896 11.2539 19.2896C10.3496 19.2896 9.50119 18.9422 8.86223 18.3091C8.22565 17.6773 7.87463 16.8397 7.87463 15.9484C7.87463 15.4308 7.99124 14.9347 8.22089 14.473C8.44458 14.022 8.77775 13.6187 9.1823 13.3081C9.44031 13.1108 9.67433 12.884 9.87957 12.6323C10.177 12.2693 10.4103 11.8648 10.5721 11.4305C10.6385 11.2513 10.6867 11.066 10.7161 10.8772C11.0028 11.1413 11.2432 11.4602 11.4443 11.8339C11.8417 12.5787 12.0249 13.2415 11.9892 13.8055C11.9807 13.9383 12.0024 14.0713 12.0527 14.1946C12.103 14.3178 12.1805 14.4281 12.2795 14.517C12.3654 14.5945 12.4657 14.6542 12.5748 14.6926C12.6839 14.731 12.7995 14.7474 12.9149 14.7407C13.1493 14.7288 13.3647 14.6253 13.5218 14.4504C13.68 14.2731 13.8169 14.0922 13.9311 13.9078C14.0977 14.1208 14.2369 14.3528 14.3475 14.6027C14.5367 15.0287 14.6331 15.482 14.6331 15.9484C14.6331 16.8397 14.2821 17.6785 13.6455 18.3091Z" stroke="currentColor" stroke-width="1.5" stroke-linejoin="round"/>
</svg>
