<svg xmlns="http://www.w3.org/2000/svg" width="19" height="24" viewBox="0 0 19 24" fill="none">
  <path d="M11.3383 8.80374L4.21326 21.1446" stroke="currentColor" stroke-width="1.5" stroke-linecap="round" stroke-linejoin="round"/>
  <path d="M9.56646 18.8943C8.22448 19.2538 6.08112 18.181 6.08112 18.181C6.08112 18.181 7.42868 15.7832 8.9304 15.4959C10.2565 15.2423 12.2282 16.5339 12.2282 16.5339C12.2282 16.5339 10.9084 18.5347 9.56646 18.8943Z" stroke="currentColor" stroke-width="1.5" stroke-linecap="round" stroke-linejoin="round"/>
  <path d="M12.5679 13.6957C11.2259 14.0553 9.08259 12.9825 9.08259 12.9825C9.08259 12.9825 10.4301 10.5846 11.9319 10.2974C13.258 10.0437 15.2297 11.3354 15.2297 11.3354C15.2297 11.3354 13.9099 13.3361 12.5679 13.6957Z" stroke="currentColor" stroke-width="1.5" stroke-linecap="round" stroke-linejoin="round"/>
  <path d="M14.3072 6.84355C13.6125 8.04673 11.3384 8.80373 11.3384 8.80373C11.3384 8.80373 10.5957 6.15534 11.4545 4.89033C12.2128 3.77324 14.5203 3.29237 14.5203 3.29237C14.5203 3.29237 15.0018 5.64036 14.3072 6.84355Z" stroke="currentColor" stroke-width="1.5" stroke-linecap="round" stroke-linejoin="round"/>
  <path d="M3.39605 15.3318C3.75563 16.6737 5.75639 17.9936 5.75639 17.9936C5.75639 17.9936 7.15918 15.6276 6.65711 14.1835C6.21374 12.9082 4.10927 11.8464 4.10927 11.8464C4.10927 11.8464 3.03647 13.9898 3.39605 15.3318Z" stroke="currentColor" stroke-width="1.5" stroke-linecap="round" stroke-linejoin="round"/>
  <path d="M6.39751 10.1332C6.7571 11.4751 8.75785 12.7949 8.75785 12.7949C8.75785 12.7949 10.1606 10.429 9.65857 8.98485C9.2152 7.70955 7.11074 6.64783 7.11074 6.64783C7.11074 6.64783 6.03793 8.79119 6.39751 10.1332Z" stroke="currentColor" stroke-width="1.5" stroke-linecap="round" stroke-linejoin="round"/>
</svg>