<svg width="24" height="24" viewBox="0 0 24 24" fill="none" xmlns="http://www.w3.org/2000/svg">
<path d="M2.48499 8.73077H1.47607L2.08713 9.5336L9.38744 19.1249L10.2548 18.65L6.73937 9.05871L6.61918 8.73077H6.26991H2.48499ZM11.5307 20.5378L12 21.8156L12.4693 20.5378L16.5589 9.40316L16.8059 8.73077H16.0896H7.91043H7.19412L7.44108 9.40316L11.5307 20.5378ZM6.30506 7.88463H6.63384L6.76413 7.58277L9.15459 2.0443L9.45592 1.34616H8.69553H5.62542H5.34457L5.19844 1.58599L1.82365 7.12446L1.36046 7.88463H2.25063H6.30506ZM13.7452 18.6501L14.6126 19.125L21.9129 9.5336L22.5239 8.73077H21.515H17.7301H17.3808L17.2606 9.05871L13.7452 18.6501ZM7.5451 7.18649L7.24377 7.88463H8.00416H15.9958H16.7562L16.4549 7.18649L14.0644 1.64802L13.9341 1.34616H13.6054H10.3946H10.0659L9.93557 1.64802L7.5451 7.18649ZM17.2359 7.58277L17.3662 7.88463H17.6949H21.7494H22.6395L22.1763 7.12446L18.8016 1.58599L18.6554 1.34616H18.3746H15.3045H14.5441L14.8454 2.04429L17.2359 7.58277ZM18.9114 0.620115L18.9156 0.627725L18.9202 0.63518L23.4199 8.0198L23.4198 8.01983L23.4242 8.02672C23.4744 8.10612 23.5042 8.20442 23.4995 8.3409C23.4949 8.47381 23.4585 8.5658 23.4028 8.6386L23.4023 8.63935L12.153 23.4086L12.1529 23.4085L12.1471 23.4164C12.095 23.4878 12.0576 23.5 12 23.5C11.9424 23.5 11.905 23.4878 11.8529 23.4164L11.8529 23.4164L11.847 23.4086L0.597748 8.63936L0.597185 8.63863C0.541516 8.56582 0.505078 8.47381 0.500483 8.3409C0.495764 8.20442 0.525631 8.10612 0.575807 8.02672L0.575864 8.02675L0.580103 8.0198L5.07981 0.635197L5.08435 0.627741L5.08863 0.620131C5.15281 0.506015 5.19674 0.5 5.25044 0.5H18.7496C18.8033 0.5 18.8472 0.50602 18.9114 0.620115Z" fill="currentColor" stroke="currentColor"/>
</svg>
