<svg width="24" height="24" viewBox="0 0 24 24" fill="none" xmlns="http://www.w3.org/2000/svg">
<path d="M17.0986 6.98921C13.4542 3.49251 10.5416 3.25532 9.87584 3.25049L3.07856 19.7952C2.94848 20.1118 3.07904 20.3916 3.24488 20.5482C3.41072 20.7048 3.70472 20.8257 4.03208 20.6958L21.0334 13.9621C21.0186 13.3171 20.7337 10.4769 17.0986 6.98921Z" stroke="currentColor" stroke-width="1.5" stroke-linejoin="round"/>
<path d="M17.1785 15.0984C17.0736 14.7302 16.8494 14.3882 16.6296 14.055C16.4184 13.7347 16.2187 13.4323 16.1338 13.1265C16.0507 12.8286 16.0668 12.476 16.0838 12.103C16.1086 11.5598 16.134 10.9981 15.8503 10.5274C15.5789 10.0768 15.0706 9.82142 14.5793 9.5741C14.239 9.40278 13.8869 9.2257 13.645 8.99381C13.4033 8.7617 13.2187 8.42412 13.0402 8.09736C12.7824 7.62576 12.516 7.13804 12.0466 6.87783C11.5562 6.60587 10.9711 6.63028 10.4045 6.65377C10.0154 6.66989 9.64824 6.68532 9.33768 6.60587C9.01896 6.52436 8.7036 6.33277 8.37 6.13013" stroke="currentColor" stroke-width="1.5"/>
<path d="M11 9.5C11 9.77614 10.7761 10 10.5 10C10.2239 10 10 9.77614 10 9.5C10 9.22386 10.2239 9 10.5 9C10.7761 9 11 9.22386 11 9.5Z" stroke="currentColor" stroke-width="1.5"/>
<path d="M14.3321 14.3248C14.3321 14.6009 14.1082 14.8248 13.8321 14.8248C13.556 14.8248 13.3321 14.6009 13.3321 14.3248C13.3321 14.0486 13.556 13.8248 13.8321 13.8248C14.1082 13.8248 14.3321 14.0486 14.3321 14.3248Z" stroke="currentColor" stroke-width="1.5"/>
<path d="M11.2945 14.5983C11.2945 14.8745 11.0706 15.0983 10.7945 15.0983C10.5184 15.0983 10.2945 14.8745 10.2945 14.5983C10.2945 14.3222 10.5184 14.0983 10.7945 14.0983C11.0706 14.0983 11.2945 14.3222 11.2945 14.5983Z" stroke="currentColor" stroke-width="1.5"/>
<path d="M7.37 17.0854C7.37 17.3615 7.14614 17.5854 6.87 17.5854C6.59385 17.5854 6.37 17.3615 6.37 17.0854C6.37 16.8092 6.59385 16.5854 6.87 16.5854C7.14614 16.5854 7.37 16.8092 7.37 17.0854Z" stroke="currentColor" stroke-width="1.5"/>
<path d="M8.37 12.9752C8.37 13.2514 8.14614 13.4752 7.87 13.4752C7.59385 13.4752 7.37 13.2514 7.37 12.9752C7.37 12.6991 7.59385 12.4752 7.87 12.4752C8.14614 12.4752 8.37 12.6991 8.37 12.9752Z" stroke="currentColor" stroke-width="1.5"/>
</svg>
