<svg xmlns="http://www.w3.org/2000/svg" width="18" height="17" viewBox="0 0 18 17" fill="none">
  <path d="M7.33014 13.5929H1.02942" stroke="currentColor" stroke-width="1.5" stroke-linecap="round" stroke-linejoin="round"/>
  <path d="M10.1405 3.90037H16.4412" stroke="currentColor" stroke-width="1.5" stroke-linecap="round" stroke-linejoin="round"/>
  <path fill-rule="evenodd" clip-rule="evenodd" d="M5.72629 3.84625C5.72629 2.55059 4.66813 1.49999 3.36314 1.49999C2.05816 1.49999 1 2.55059 1 3.84625C1 5.1419 2.05816 6.1925 3.36314 6.1925C4.66813 6.1925 5.72629 5.1419 5.72629 3.84625Z" stroke="currentColor" stroke-width="1.5" stroke-linecap="round" stroke-linejoin="round"/>
  <path fill-rule="evenodd" clip-rule="evenodd" d="M17 13.5538C17 12.2581 15.9426 11.2075 14.6376 11.2075C13.3318 11.2075 12.2737 12.2581 12.2737 13.5538C12.2737 14.8494 13.3318 15.9 14.6376 15.9C15.9426 15.9 17 14.8494 17 13.5538Z" stroke="currentColor" stroke-width="1.5" stroke-linecap="round" stroke-linejoin="round"/>
</svg>