<svg xmlns="http://www.w3.org/2000/svg" width="20" height="24" viewBox="0 0 20 24" fill="none">
  <path d="M15.9591 20.0374C14.3671 21.6146 12.2532 22.4803 10 22.4803C7.74683 22.4803 5.63298 21.6146 4.04092 20.0374C2.45479 18.4631 1.5802 16.3759 1.5802 14.1554C1.5802 12.8657 1.87074 11.6294 2.44294 10.4791C3.0003 9.35548 3.83043 8.35044 4.83843 7.57665C5.4813 7.08508 6.06438 6.51991 6.57576 5.89268C7.31694 4.98844 7.89803 3.98044 8.30123 2.89831C8.46662 2.45194 8.5868 1.99009 8.65996 1.51971C9.37446 2.17788 9.97334 2.97243 10.4744 3.90335C11.4646 5.75927 11.9212 7.41062 11.8322 8.8159C11.811 9.14687 11.865 9.47835 11.9903 9.78543C12.1156 10.0925 12.3089 10.3672 12.5556 10.5888C12.7694 10.7819 13.0195 10.9307 13.2913 11.0264C13.563 11.122 13.8511 11.1628 14.1388 11.1462C14.7228 11.1165 15.2594 10.8586 15.6508 10.4228C16.0451 9.98104 16.386 9.5304 16.6706 9.07087C17.0857 9.60155 17.4326 10.1797 17.7083 10.8023C18.1797 11.8636 18.4198 12.9932 18.4198 14.1554C18.4198 16.3759 17.5452 18.4661 15.9591 20.0374Z" stroke="currentColor" stroke-width="1.5" stroke-linejoin="round"/>
  <path d="M11.6455 18.309C11.0066 18.942 10.1582 19.2895 9.25388 19.2895C8.34957 19.2895 7.50119 18.942 6.86223 18.309C6.22565 17.6772 5.87463 16.8395 5.87463 15.9483C5.87463 15.4307 5.99124 14.9345 6.22089 14.4729C6.44458 14.0219 6.77775 13.6185 7.1823 13.308C7.44031 13.1107 7.67433 12.8839 7.87957 12.6321C8.17704 12.2692 8.41025 11.8647 8.57208 11.4304C8.63846 11.2512 8.68669 11.0659 8.71605 10.8771C9.00281 11.1412 9.24317 11.4601 9.44426 11.8337C9.84167 12.5786 10.0249 13.2414 9.98922 13.8054C9.98069 13.9382 10.0024 14.0712 10.0527 14.1945C10.103 14.3177 10.1805 14.4279 10.2795 14.5169C10.3654 14.5944 10.4657 14.6541 10.5748 14.6925C10.6839 14.7309 10.7995 14.7473 10.9149 14.7406C11.1493 14.7287 11.3647 14.6252 11.5218 14.4503C11.68 14.273 11.8169 14.0921 11.9311 13.9077C12.0977 14.1207 12.2369 14.3527 12.3475 14.6026C12.5367 15.0285 12.6331 15.4819 12.6331 15.9483C12.6331 16.8395 12.2821 17.6784 11.6455 18.309Z" stroke="currentColor" stroke-width="1.5" stroke-linejoin="round"/>
</svg>