<svg width="28" height="28" viewBox="0 0 28 28" fill="none" xmlns="http://www.w3.org/2000/svg">
<path d="M7.06 2C6.076 2 5.242 2.738 5.14 3.725C4.992 5.133 4.75 7.682 4.75 9.25C4.75 10.73 5.428 12.052 6.487 12.922C6.835 13.208 7 13.522 7 13.786V14.448L6.999 14.495C6.958 15.094 6.5 21.782 6.5 23C6.5 23.394 6.5776 23.7841 6.72836 24.1481C6.87913 24.512 7.1001 24.8427 7.37868 25.1213C7.65726 25.3999 7.98797 25.6209 8.35195 25.7716C8.71593 25.9224 9.10603 26 9.5 26C9.89397 26 10.2841 25.9224 10.6481 25.7716C11.012 25.6209 11.3427 25.3999 11.6213 25.1213C11.8999 24.8427 12.1209 24.512 12.2716 24.1481C12.4224 23.7841 12.5 23.394 12.5 23C12.5 21.782 12.043 15.094 12.001 14.495L12 14.448V13.786C12 13.521 12.165 13.208 12.513 12.922C13.0566 12.4769 13.4944 11.9166 13.7948 11.2815C14.0952 10.6464 14.2507 9.95254 14.25 9.25C14.25 7.682 14.008 5.133 13.86 3.725C13.81 3.25091 13.5861 2.81216 13.2315 2.49356C12.8769 2.17496 12.4167 1.99911 11.94 2C11.483 2 11.062 2.158 10.73 2.423C10.3786 2.1489 9.94568 2.00002 9.5 2C9.05432 2.00002 8.62142 2.1489 8.27 2.423C7.92664 2.14827 7.49974 1.99904 7.06 2ZM9 4C9 3.8674 9.05268 3.74022 9.14645 3.64645C9.24021 3.55268 9.36739 3.5 9.5 3.5C9.63261 3.5 9.75979 3.55268 9.85355 3.64645C9.94732 3.74022 10 3.8674 10 4V9.25C10 9.44892 10.079 9.63968 10.2197 9.78033C10.3603 9.92099 10.5511 10 10.75 10C10.9489 10 11.1397 9.92099 11.2803 9.78033C11.421 9.63968 11.5 9.44892 11.5 9.25V3.94C11.5 3.82331 11.5464 3.71139 11.6289 3.62888C11.7114 3.54636 11.8233 3.5 11.94 3.5C12.165 3.5 12.347 3.667 12.369 3.881C12.517 5.301 12.75 7.773 12.75 9.25C12.7507 9.73086 12.6444 10.2059 12.4387 10.6405C12.2331 11.0752 11.9332 11.4586 11.561 11.763C11.023 12.205 10.5 12.903 10.5 13.786V14.448C10.5 14.498 10.501 14.544 10.505 14.598C10.549 15.243 11 21.849 11 23C11 23.3978 10.842 23.7794 10.5607 24.0607C10.2794 24.342 9.89782 24.5 9.5 24.5C9.10218 24.5 8.72064 24.342 8.43934 24.0607C8.15804 23.7794 8 23.3978 8 23C8 21.85 8.45 15.243 8.495 14.598C8.499 14.544 8.5 14.498 8.5 14.448V13.786C8.5 12.902 7.977 12.205 7.439 11.763C7.06675 11.4586 6.76692 11.0752 6.56127 10.6405C6.35561 10.2059 6.24929 9.73086 6.25 9.25C6.25 7.773 6.483 5.302 6.631 3.881C6.64242 3.77556 6.69267 3.67814 6.77197 3.60771C6.85127 3.53729 6.95395 3.49889 7.06 3.5C7.1767 3.5 7.28861 3.54636 7.37113 3.62888C7.45364 3.71139 7.5 3.82331 7.5 3.94V9.25C7.5 9.44892 7.57902 9.63968 7.71967 9.78033C7.86032 9.92099 8.05109 10 8.25 10C8.44891 10 8.63968 9.92099 8.78033 9.78033C8.92098 9.63968 9 9.44892 9 9.25V4ZM22.5 3.506V13.25C22.5 13.6 22.594 15.247 22.698 17.06L22.704 17.165C22.844 19.601 23 22.33 23 23C23 23.3978 22.842 23.7794 22.5607 24.0607C22.2794 24.342 21.8978 24.5 21.5 24.5C21.1022 24.5 20.7206 24.342 20.4393 24.0607C20.158 23.7794 20 23.3978 20 23C20 22.405 20.123 19.997 20.249 17.7C20.3228 16.3539 20.3988 15.0079 20.477 13.662L20.499 13.294L20.5 13.25C20.5 13.0511 20.421 12.8603 20.2803 12.7197C20.1397 12.579 19.9489 12.5 19.75 12.5H17.75C17.6837 12.5 17.6201 12.4737 17.5732 12.4268C17.5263 12.3799 17.5 12.3163 17.5 12.25V8.75C17.5 7.40091 18.0194 6.10359 18.9503 5.12719C19.8813 4.15079 21.1524 3.57025 22.5 3.506ZM18.955 14L18.923 14.556C18.876 15.373 18.813 16.476 18.751 17.618C18.627 19.885 18.5 22.352 18.5 23C18.5 23.394 18.5776 23.7841 18.7284 24.1481C18.8791 24.512 19.1001 24.8427 19.3787 25.1213C19.6573 25.3999 19.988 25.6209 20.3519 25.7716C20.7159 25.9224 21.106 26 21.5 26C21.894 26 22.2841 25.9224 22.6481 25.7716C23.012 25.6209 23.3427 25.3999 23.6213 25.1213C23.8999 24.8427 24.1209 24.512 24.2716 24.1481C24.4224 23.7841 24.5 23.394 24.5 23C24.5 22.279 24.342 19.526 24.206 17.145L24.202 17.079C24.093 15.18 24 13.55 24 13.25V2.75C24 2.55109 23.921 2.36033 23.7803 2.21967C23.6397 2.07902 23.4489 2 23.25 2H22.75C20.9598 2 19.2429 2.71116 17.977 3.97703C16.7112 5.2429 16 6.95979 16 8.75V12.25C16 13.216 16.784 14 17.75 14H18.955Z" fill="currentColor"/>
<path d="M21.0544 14.3399V14.2971" stroke="currentColor" stroke-width="2" stroke-linecap="round"/>
<path d="M10.3592 23.5588C10.0246 23.8265 9.4617 23.5322 9.118 23.4417C8.87855 23.3787 8.71283 23.1672 9.05555 23.0462C9.38792 22.9289 9.70188 22.9614 9.98448 22.773C10.255 22.5927 10.4289 22.3509 10.0313 22.2109C9.79027 22.1261 9.51825 22.1537 9.26632 22.1537C9.14921 22.1537 9.13058 22.0862 9.02433 22.0626C8.96602 22.0497 8.89216 22.0189 8.84999 21.9768C8.78754 21.9143 9.01636 21.8546 9.07637 21.8232C9.49514 21.6047 10.015 21.5882 10.38 21.2638C10.6831 20.9944 10.3469 21.0174 10.125 20.7954C9.96309 20.6335 9.80897 20.5612 9.58637 20.5612C9.40114 20.5612 9.21516 20.8377 9.1154 20.9724C8.95454 21.1895 9.25777 20.5378 9.28713 20.491C9.67176 19.878 10.3843 19.2417 10.3592 18.464C10.3541 18.306 10.306 17.9109 10.1718 17.8083C10.0701 17.7305 9.80138 18.2146 9.72428 18.3157C9.51808 18.5859 9.22878 18.8487 9.09458 19.1665C9.00618 19.3759 8.94883 19.6054 8.83958 19.804C8.39404 20.6141 9.32606 18.0154 9.45887 17.1005C9.50888 16.756 9.54892 16.4627 9.64622 16.1221C9.70021 15.9332 9.85379 16.1087 9.89081 16.247C10.0726 16.9262 9.87783 17.6171 9.55254 18.2116C9.28165 18.7067 8.77195 19.0104 8.51432 19.5256C8.4272 19.6999 8.38816 19.9487 8.34779 20.1371C8.33112 20.2149 8.22991 20.7098 8.30876 20.5404C8.5709 19.9773 8.77974 19.3709 9.01392 18.7945C9.09467 18.5957 9.13746 18.3481 9.17785 18.1361C9.23639 17.8288 9.24412 17.5159 9.30535 17.2098C9.35582 16.9575 9.40822 16.6695 9.42244 16.4136C9.42947 16.2871 9.51611 16.1716 9.51611 16.0415C9.51611 15.9592 9.50518 15.8677 9.51871 15.7865C9.52091 15.7733 9.57968 15.6308 9.52132 15.711C9.36366 15.9278 9.27331 16.2117 9.13621 16.4448C8.87281 16.8926 9.09412 16.4919 9.21428 16.2757C9.39108 15.9574 9.52799 15.6659 9.62019 15.3155C9.6896 15.0518 9.71112 14.7726 9.84397 14.5401C9.98994 14.2847 9.73596 14.5789 9.66703 14.6494C9.48492 14.8355 9.38306 15.0211 9.25851 15.2453C9.08136 15.5641 9.13688 14.8251 9.14142 14.7639C9.1601 14.5117 9.27587 14.2542 9.28193 13.9937C9.28711 13.771 9.28193 13.5477 9.28193 13.3249C9.28193 13.1497 9.13709 12.9425 9.09718 12.7629C9.05732 12.5835 9.04774 12.0301 9.04774 12.2139C9.04774 12.3218 9.04823 12.429 9.03734 12.5365C9.02696 12.639 9.0106 12.7407 9.00351 12.8436C9.001 12.8799 9.02667 12.9786 9.00091 12.9529C8.94525 12.8972 8.90723 12.6657 8.90723 12.5756C8.90723 12.2682 8.9943 11.8088 8.76672 11.5686C8.70005 11.4982 8.29177 11.0808 8.21509 11.1574C8.08616 11.2864 8.33519 12.0638 8.20208 11.5868C8.08512 11.1677 7.89261 10.8451 7.62442 10.5173C7.48753 10.35 7.37314 10.1482 7.36162 9.92927C7.34747 9.66042 7.14606 9.40206 7.12743 9.12263C7.08618 8.50389 6.98491 7.81346 7.17427 7.20753C7.34546 6.6597 7.31478 6.02772 7.31478 5.45895C7.31478 5.2452 7.32772 4.84178 7.41886 4.6367C7.45821 4.54816 7.45529 4.47606 7.45529 4.3791C7.45529 4.29009 7.33374 4.24043 7.33559 4.22558C7.35375 4.08031 9.24122 4.16833 9.39382 4.16833C9.70188 4.16833 9.70346 4.49754 9.70346 4.7616C9.70346 5.3489 9.66914 5.93747 9.65662 6.52579C9.65204 6.74119 9.5488 6.94485 9.51611 7.15548C9.4317 7.6995 9.32877 8.22839 9.32877 8.78176C9.32877 9.15427 9.39339 9.62718 9.32616 9.99692C9.29912 10.1457 9.11984 10.4258 9.33917 10.5017C9.60093 10.5923 9.73273 10.9171 9.98448 11.0429C10.1058 11.1036 10.2169 11.1713 10.3123 11.2667C10.3899 11.3443 10.4453 11.6326 10.4997 11.5373C10.6413 11.2894 10.8979 11.1416 11.1268 10.9831C11.4462 10.762 11.6008 10.2466 11.6238 9.85641C11.6364 9.64156 11.7174 9.44674 11.7174 9.22672C11.7174 9.04113 11.633 8.56698 11.7877 8.41227C11.8167 8.38328 11.8111 8.83992 11.8111 8.89886C11.8111 9.2816 11.5882 8.15735 11.5769 7.77477C11.5641 7.33758 11.6238 6.91092 11.6238 6.48676C11.6238 6.23531 11.3683 4.40251 11.6706 4.40251" stroke="currentColor" stroke-width="2" stroke-linecap="round"/>
<path d="M7.82996 7.54059C7.82996 9.29075 8.11965 11.0661 8.31914 12.8045C8.36655 13.2177 8.33141 13.6389 8.392 14.0509C8.39634 14.0805 8.71701 13.6819 8.76669 13.5825" stroke="white" stroke-width="2" stroke-linecap="round"/>
<path d="M8.95398 9.03936C9.07757 8.9707 9.04296 8.63376 9.04765 8.52936C9.06037 8.24638 9.07431 7.96364 9.09449 7.68109" stroke="currentColor" stroke-width="2" stroke-linecap="round"/>
<path d="M8.90721 7.21272C8.77468 7.44719 8.61944 7.66391 8.50649 7.91006C8.41402 8.11162 8.38789 8.32984 8.22027 8.07399C8.0929 7.87959 7.91949 7.55793 7.71027 7.4417C7.59081 7.37533 7.47485 7.64713 7.43965 7.71751C7.38606 7.82471 7.46177 7.72463 7.48129 7.6967C7.61361 7.50733 7.73014 7.30744 7.85598 7.11384C7.98362 6.91747 7.85684 7.06561 7.80394 7.18149C7.6905 7.42997 7.47897 7.87185 7.5021 8.14945C7.50775 8.21718 8.11563 7.94463 8.13961 7.93348C8.79294 7.62982 9.42952 7.35323 10.164 7.35323C10.6416 7.35323 11.1235 7.37389 11.6003 7.35062C11.6736 7.34705 12.4763 7.16399 12.511 7.28557C12.5628 7.46655 12.3263 7.70013 12.3263 7.89185C12.3263 8.10534 12.2373 8.29956 12.2326 8.50854C12.2284 8.70087 12.2326 8.89378 12.2326 9.08619C12.2326 9.39284 12.0676 9.59999 11.9152 9.83558C11.8106 9.99727 11.3865 10.0345 11.2126 10.0594C10.9512 10.0967 10.6329 10.0857 10.3696 10.0594C9.84204 10.0066 9.31225 10.0229 8.78231 10.0229C8.52429 10.0229 8.26737 10.0005 8.01731 10.0594C7.95219 10.0747 7.19486 10.1032 7.20287 10.1192C7.31508 10.3436 7.85754 10.6016 8.08496 10.7463C8.21465 10.8288 8.59437 11.0736 8.30353 10.7827C7.95595 10.4351 7.55011 10.2406 7.14822 9.99951C7.10761 9.97514 6.86714 9.89536 7.02853 9.95007C7.433 10.0872 7.83578 10.2242 8.24369 10.3508C8.6281 10.4701 9.01832 10.6076 9.30793 10.8972C9.49832 11.0876 9.69007 11.2543 9.70344 11.5217C9.70915 11.6359 9.83027 11.8903 9.71385 11.9901C9.5305 12.1472 8.23244 10.3398 7.78312 10.127C7.53558 10.0098 7.02068 10.0229 6.75271 10.0229C6.37108 10.0229 7.51598 10.0229 7.89762 10.0229C8.77624 10.0229 9.59145 9.82428 10.4528 9.69507" stroke="currentColor" stroke-width="2" stroke-linecap="round"/>
<path d="M8.86034 9.8356C8.1675 9.73662 7.53789 9.25427 6.89319 9.03937" stroke="currentColor" stroke-width="2" stroke-linecap="round"/>
<path d="M10.5465 12.0369C10.4258 12.1978 10.4678 12.3897 10.3956 12.5521C10.3775 12.5929 10.3395 12.7052 10.3019 12.7291C10.2423 12.767 9.67816 12.2019 9.58895 12.1306C9.30666 11.9048 9.02415 11.8511 8.73027 11.6622C8.61073 11.5854 8.3705 11.3812 8.22548 11.3812C8.0312 11.3812 8.03788 11.4889 8.14741 11.6258C8.19899 11.6903 8.22722 11.8934 8.24889 11.9693C8.2755 12.0624 8.29177 12.2278 8.35558 12.3075C8.44406 12.4181 8.41111 12.5784 8.5065 12.6874C8.57065 12.7607 8.60719 12.8999 8.62879 12.9971C8.66708 13.1694 8.58866 13.2277 8.57936 13.3952C8.56069 13.7312 8.73239 13.7621 8.89681 13.9676C9.02126 14.1232 8.79931 14.572 8.57936 14.462C8.22455 14.2846 8.43586 13.9951 8.34517 13.723" stroke="currentColor" stroke-width="2" stroke-linecap="round"/>
<path d="M8.34509 22.6221V22.6689" stroke="currentColor" stroke-width="2" stroke-linecap="round"/>
<path d="M8.53249 12.3179C8.33927 12.3179 7.84335 12.2706 7.71545 12.435C7.61618 12.5627 7.73627 12.7489 7.73627 12.88" stroke="currentColor" stroke-width="2" stroke-linecap="round"/>
<path d="M19.305 12.4116C19.2854 12.5682 18.6983 12.1772 18.6362 12.1358C18.4425 12.0066 18.2069 11.9286 18.2381 11.6674C18.3136 11.0361 18.6183 10.4322 18.7898 9.82257C18.9279 9.33126 18.9771 8.84963 18.9771 8.342C18.9771 7.7345 18.9394 7.12472 19.0604 6.53098C19.1271 6.20317 19.2845 5.9023 19.5001 5.64628C19.6782 5.43484 20.0929 4.98852 20.3926 4.96454C20.7944 4.9324 21.1533 4.5734 21.5635 4.54301C21.7323 4.53051 21.8914 4.49617 22.0683 4.49617C22.1583 4.49617 22.2618 4.51043 22.3494 4.49097C22.3892 4.48211 22.5577 4.38812 22.4066 4.48056C22.121 4.65531 21.8183 4.80691 21.5245 4.96714C20.6684 5.43411 19.677 5.93634 19.0057 6.67149C18.7531 6.94822 18.5103 7.24066 18.3006 7.55098C18.2119 7.68229 18.0634 7.84303 18.043 8.00634C18.0115 8.25831 17.8757 8.49979 17.8556 8.76093C17.8185 9.24392 17.6828 9.73137 17.6657 10.2103C17.6639 10.2593 17.6254 10.6379 17.6501 10.611C17.7949 10.453 17.8877 10.1885 17.9909 10.0047C18.1836 9.66179 18.3624 9.31142 18.5608 8.9717C18.8774 8.4294 19.2789 7.65393 19.8098 7.28037C20.0686 7.09825 20.4255 7.04013 20.6632 6.83802C20.8009 6.72099 21.1633 6.5994 21.3424 6.5596C21.5181 6.52054 21.6749 6.51016 21.8602 6.51016C22.0042 6.51016 22.1481 6.51016 22.2921 6.51016C22.5071 6.51016 22.2874 6.74809 22.2271 6.84322C21.9579 7.26738 21.5896 7.43623 21.2721 7.78256C20.9925 8.08756 20.8147 8.50231 20.632 8.86762C20.4815 9.16862 20.3121 9.47347 20.2521 9.80956C20.2017 10.0917 20.148 10.3864 20.148 10.6734C20.148 10.792 20.1574 10.8976 20.1116 11.0065C20.0853 11.0689 20.0852 11.2746 20.1038 11.2095C20.1815 10.9375 20.5183 10.65 20.6788 10.4184C20.9807 9.983 21.1322 9.44608 21.4699 9.03935C21.6037 8.8781 21.7552 8.7384 21.9018 8.5918C21.9045 8.58916 22.02 8.43354 21.9903 8.51894C21.8758 8.84816 21.6573 9.18621 21.4438 9.45828C21.1835 9.79013 20.7641 10.225 20.3718 10.3976C20.1511 10.4947 19.9777 10.5799 19.7915 10.7333C19.6003 10.8908 19.3048 11.3694 19.7837 11.2823C20.0477 11.2343 20.3315 11.0749 20.5748 10.9597C20.7043 10.8983 20.8394 10.8456 20.9469 10.7489C21.149 10.567 21.5352 10.5077 21.6832 10.7411C21.7562 10.8561 21.7873 10.8866 21.7873 11.0273C21.7873 11.1134 21.7697 11.1499 21.8446 11.069C22.006 10.8946 22.17 10.5871 22.2453 10.3612C22.3465 10.0576 21.9654 10.9371 21.8107 11.2173C21.6703 11.4715 21.5648 11.5976 21.3658 11.7767C21.3313 11.8078 20.8405 12.2235 21.0457 12.2919C21.0823 12.3041 21.2926 11.7957 21.3007 11.7793C21.4298 11.5181 21.5859 11.2816 21.7509 11.0429C21.9232 10.7937 21.9329 10.5567 22.0423 10.2909C22.1108 10.1247 22.0391 9.83558 22.3051 9.83558C22.4226 9.83558 22.6354 9.8456 22.3494 9.82517C21.984 9.79907 21.5184 9.7106 21.155 9.79135C20.9933 9.82729 20.8082 10.3412 20.7465 10.4757C20.6019 10.7905 20.5289 11.1491 20.6164 11.4905C20.6622 11.6691 20.6677 12.7039 20.7829 12.7369C20.985 12.7946 21.3585 12.4564 21.4803 12.5781C21.5256 12.6234 21.5925 12.7694 21.6 12.8331C21.6134 12.9476 21.8018 12.8245 21.8498 12.893C21.9572 13.0464 21.7461 13.5152 21.7041 13.6918C21.6798 13.7936 21.6468 13.8398 21.6468 13.9572C21.6468 14.5871 21.5305 15.2022 21.423 15.8203C21.279 16.6486 21.1769 17.5004 21.129 18.3391C21.1284 18.3497 21.0948 18.5978 21.0874 18.5941C20.9997 18.5503 21.0919 17.5576 21.0952 17.4596C21.1099 17.0132 21.1784 16.5714 21.1784 16.1247C21.1784 15.9556 21.1129 15.7457 21.1342 15.5965C21.1688 15.3546 21.4481 15.3623 21.6442 15.3623C21.8273 15.3623 22.2024 15.3671 22.339 15.4664C22.4347 15.5361 22.5367 15.468 22.5367 15.6277C22.5367 15.7806 22.5545 15.9498 22.5263 16.1013C22.4799 16.3508 22.4165 16.5946 22.3598 16.8403C22.1888 17.5812 22.1876 18.3503 22.0241 19.0859C21.9683 19.3369 21.4057 19.203 21.2019 19.203C21.095 19.203 21.1092 19.2681 21.0275 19.2862C20.9081 19.3128 20.0663 19.2125 20.083 19.2524C20.132 19.37 20.2401 19.4255 20.2781 19.5568C20.3224 19.7099 20.39 19.8569 20.4317 20.0096C20.4811 20.1909 20.5696 20.3451 20.5696 20.5352C20.5696 20.8006 20.5663 21.0661 20.5696 21.3314C20.5743 21.7188 20.5854 22.3108 20.7465 22.6689C20.855 22.91 20.7938 23.21 20.9911 23.4183C21.1129 23.5468 21.2513 23.7062 21.4126 23.7826C21.6176 23.8796 21.7707 23.5672 21.8576 23.4417C22.3272 22.7633 22.779 21.7957 22.5393 20.9567C22.5178 20.8813 22.4375 20.6465 22.3702 20.6081C22.2858 20.5598 22.2217 20.5612 22.1256 20.5612C21.9711 20.5612 22.2434 20.6623 22.3025 20.7017" stroke="currentColor" stroke-width="2" stroke-linecap="round"/>
<path d="M21.7405 21.779C21.8029 21.7096 21.8522 21.6312 21.881 21.5448" stroke="currentColor" stroke-width="2" stroke-linecap="round"/>
<path d="M21.881 11.709C21.881 11.8414 21.9409 12.2514 22.1152 11.9901" stroke="currentColor" stroke-width="2" stroke-linecap="round"/>
</svg>
