<svg width="24" height="24" viewBox="0 0 24 24" fill="none" xmlns="http://www.w3.org/2000/svg">
<path d="M21.4286 0H2.57143C1.15371 0 0 1.15371 0 2.57143V16.2857C0 17.7034 1.15371 18.8571 2.57143 18.8571H8.07343L10.4666 23.052C10.7589 23.6366 11.346 24 12 24C12.654 24 13.2411 23.6366 13.512 23.0931L15.9266 18.8571H21.4286C22.8463 18.8571 24 17.7034 24 16.2857V2.57143C24 1.15371 22.8463 0 21.4286 0ZM22.2857 16.2857C22.2857 16.758 21.9017 17.1429 21.4286 17.1429H15.4286C15.1209 17.1429 14.8371 17.3083 14.6837 17.5757L11.9786 22.2446L9.31714 17.5757C9.16371 17.3083 8.88 17.1429 8.57229 17.1429H2.57143C2.09829 17.1429 1.71429 16.758 1.71429 16.2857V2.57143C1.71429 2.09914 2.09829 1.71429 2.57143 1.71429H21.4286C21.9017 1.71429 22.2857 2.09914 22.2857 2.57143V16.2857ZM16.3671 7.602L13.7426 7.22057L12.5683 4.842C12.2803 4.25657 11.3194 4.25657 11.0314 4.842L9.85714 7.22057L7.23257 7.602C6.90943 7.64914 6.642 7.87543 6.54 8.18571C6.43971 8.496 6.52286 8.83629 6.75686 9.06429L8.65714 10.9157L8.20886 13.5309C8.154 13.8523 8.286 14.1771 8.54914 14.3691C8.81486 14.5611 9.16371 14.586 9.45257 14.4343L11.8003 13.2L14.148 14.4343C14.2731 14.5003 14.4111 14.5329 14.5474 14.5329C14.7249 14.5329 14.9023 14.478 15.0514 14.3691C15.3154 14.1771 15.4474 13.8523 15.3917 13.5309L14.9434 10.9157L16.8437 9.06429C17.0769 8.83629 17.1609 8.496 17.0606 8.18571C16.9594 7.87543 16.6911 7.64914 16.368 7.602H16.3671ZM13.4229 10.0029C13.2214 10.2 13.1289 10.4837 13.1769 10.7614L13.4083 12.1089L12.1989 11.4729C12.0737 11.4069 11.9366 11.3743 11.7994 11.3743C11.6623 11.3743 11.526 11.4069 11.4 11.4729L10.1906 12.1089L10.422 10.7614C10.47 10.4837 10.3774 10.2 10.176 10.0029L9.19629 9.04886L10.5489 8.85257C10.8283 8.81229 11.0691 8.63657 11.1943 8.38371L11.7994 7.158L12.4046 8.38371C12.5297 8.63657 12.7706 8.81229 13.05 8.85257L14.4026 9.04886L13.4229 10.0029Z" fill="currentColor"/>
</svg>
